<svg width="21" height="21" viewBox="0 0 21 21" fill="none" xmlns="http://www.w3.org/2000/svg">
<g clip-path="url(#clip0_94_29)">
<path d="M11.375 13.125H13.125V11.375H11.375V13.125ZM7.875 11.375H9.625V13.125H7.875V11.375ZM11.375 14.875H13.125V16.625H11.375V14.875ZM7.875 14.875H9.625V16.625H7.875V14.875ZM11.375 4.375H13.125V6.125H11.375V4.375ZM7.875 4.375H9.625V6.125H7.875V4.375ZM11.375 7.875H13.125V9.625H11.375V7.875ZM7.875 7.875H9.625V9.625H7.875V7.875ZM0 7C0 5.55275 1.17775 4.375 2.625 4.375H4.375V2.625C4.375 1.17775 5.55275 0 7 0H14C15.4472 0 16.625 1.17775 16.625 2.625V7.875H18.375C19.8223 7.875 21 9.05275 21 10.5V21H0V7ZM19.25 10.5C19.25 10.017 18.8571 9.625 18.375 9.625H14.875V2.625C14.875 2.142 14.4821 1.75 14 1.75H7C6.51787 1.75 6.125 2.142 6.125 2.625V6.125H2.625C2.14288 6.125 1.75 6.517 1.75 7V19.25H19.25V10.5ZM3.5 11.375H5.25V13.125H3.5V11.375ZM3.5 14.875H5.25V16.625H3.5V14.875ZM15.75 11.375H17.5V13.125H15.75V11.375ZM15.75 14.875H17.5V16.625H15.75V14.875ZM3.5 7.875H5.25V9.625H3.5V7.875Z" fill="#949494"/>
</g>
<defs>
<clipPath id="clip0_94_29">
<rect width="21" height="21" fill="white" transform="matrix(-1 0 0 1 21 0)"/>
</clipPath>
</defs>
</svg>
