<?xml version="1.0" encoding="UTF-8"?>
<!DOCTYPE svg PUBLIC "-//W3C//DTD SVG 1.1//EN" "http://www.w3.org/Graphics/SVG/1.1/DTD/svg11.dtd">
<svg xmlns="http://www.w3.org/2000/svg" version="1.1" width="141px" height="141px" style="shape-rendering:geometricPrecision; text-rendering:geometricPrecision; image-rendering:optimizeQuality; fill-rule:evenodd; clip-rule:evenodd" xmlns:xlink="http://www.w3.org/1999/xlink">
<g><path style="opacity:0.625" fill="#dadadc" d="M 60.5,-0.5 C 66.5,-0.5 72.5,-0.5 78.5,-0.5C 121.71,9.57496 141.876,36.9083 139,81.5C 131.643,115.026 111.143,134.693 77.5,140.5C 72.5,140.5 67.5,140.5 62.5,140.5C 28.2753,134.942 7.27529,115.275 -0.5,81.5C -0.5,73.8333 -0.5,66.1667 -0.5,58.5C 7.0592,25.6072 27.3925,5.94054 60.5,-0.5 Z"/></g>
<g><path style="opacity:1" fill="#090d17" d="M 121.5,25.5 C 119.968,26.3696 118.468,26.0362 117,24.5C 116.586,24.9574 116.086,25.2907 115.5,25.5C 107.373,23.9948 99.2067,22.9948 91,22.5C 67.8686,22.5873 43.7019,23.2539 18.5,24.5C 39.9282,1.56102 65.5949,-4.60565 95.5,6C 105.923,10.3552 114.59,16.8552 121.5,25.5 Z"/></g>
<g><path style="opacity:1" fill="#f8f9fa" d="M 109.5,29.5 C 110.146,31.1561 110.813,32.8228 111.5,34.5C 110.928,36.6873 110.928,39.0206 111.5,41.5C 110.946,45.0335 110.612,48.7002 110.5,52.5C 108.611,53.604 106.945,54.9373 105.5,56.5C 104.596,57.209 104.263,58.209 104.5,59.5C 102.801,59.3398 101.134,59.5065 99.5,60C 100.888,60.8893 100.722,61.3893 99,61.5C 97.0786,59.9972 94.912,59.3305 92.5,59.5C 92.3713,57.7839 92.038,56.1172 91.5,54.5C 91.5,54.1667 91.5,53.8333 91.5,53.5C 91.1865,52.6115 90.0199,51.9448 88,51.5C 88.5218,49.1201 88.3552,46.7868 87.5,44.5C 89.8362,42.9272 89.8362,41.5939 87.5,40.5C 87.3601,38.8762 88.0267,37.7096 89.5,37C 88.6195,36.2917 87.9528,35.4584 87.5,34.5C 87.5743,32.5891 88.5743,31.4224 90.5,31C 89.7476,30.3292 89.4142,29.4959 89.5,28.5C 94.5366,24.3259 100.203,23.4925 106.5,26C 107.71,27.0391 108.71,28.2058 109.5,29.5 Z"/></g>
<g><path style="opacity:1" fill="#101828" d="M 121.5,25.5 C 122.833,26.1667 123.833,27.1667 124.5,28.5C 119.68,30.5143 114.68,30.8476 109.5,29.5C 108.71,28.2058 107.71,27.0391 106.5,26C 100.203,23.4925 94.5366,24.3259 89.5,28.5C 72.3338,28.2683 54.3338,28.7683 35.5,30C 28.2003,30.1286 21.0336,30.9619 14,32.5C 13.5357,31.9056 13.369,31.2389 13.5,30.5C 14.4431,27.8908 16.1097,25.8908 18.5,24.5C 43.7019,23.2539 67.8686,22.5873 91,22.5C 99.2067,22.9948 107.373,23.9948 115.5,25.5C 116.086,25.2907 116.586,24.9574 117,24.5C 118.468,26.0362 119.968,26.3696 121.5,25.5 Z"/></g>
<g><path style="opacity:1" fill="#162033" d="M 89.5,28.5 C 89.4142,29.4959 89.7476,30.3292 90.5,31C 88.5743,31.4224 87.5743,32.5891 87.5,34.5C 80.008,34.3946 72.508,34.0613 65,33.5C 49.2739,34.0627 33.6072,35.396 18,37.5C 15.1131,37.5663 12.2797,37.233 9.5,36.5C 10.3507,34.1184 11.684,32.1184 13.5,30.5C 13.369,31.2389 13.5357,31.9056 14,32.5C 21.0336,30.9619 28.2003,30.1286 35.5,30C 54.3338,28.7683 72.3338,28.2683 89.5,28.5 Z"/></g>
<g><path style="opacity:1" fill="#1e2b42" d="M 87.5,34.5 C 87.9528,35.4584 88.6195,36.2917 89.5,37C 88.0267,37.7096 87.3601,38.8762 87.5,40.5C 72.8096,41.1138 58.143,42.1138 43.5,43.5C 42.8333,43.5 42.1667,43.5 41.5,43.5C 32.9425,44.7904 24.6092,45.4571 16.5,45.5C 14.0504,45.298 11.717,45.6314 9.5,46.5C 7.51676,46.8432 6.18342,46.1765 5.5,44.5C 6.32567,41.5152 7.659,38.8485 9.5,36.5C 12.2797,37.233 15.1131,37.5663 18,37.5C 33.6072,35.396 49.2739,34.0627 65,33.5C 72.508,34.0613 80.008,34.3946 87.5,34.5 Z"/></g>
<g><path style="opacity:1" fill="#1e2a40" d="M 124.5,28.5 C 127.669,32.833 130.336,37.4997 132.5,42.5C 132.209,43.6491 131.376,44.3158 130,44.5C 123.642,43.819 117.475,42.819 111.5,41.5C 110.928,39.0206 110.928,36.6873 111.5,34.5C 110.813,32.8228 110.146,31.1561 109.5,29.5C 114.68,30.8476 119.68,30.5143 124.5,28.5 Z"/></g>
<g><path style="opacity:1" fill="#283751" d="M 87.5,40.5 C 89.8362,41.5939 89.8362,42.9272 87.5,44.5C 86.5178,45.1408 85.5178,45.8075 84.5,46.5C 74.2199,46.0733 63.8866,46.0733 53.5,46.5C 50.8082,43.8578 47.4749,42.8578 43.5,43.5C 58.143,42.1138 72.8096,41.1138 87.5,40.5 Z"/></g>
<g><path style="opacity:1" fill="#2b3a56" d="M 111.5,41.5 C 117.475,42.819 123.642,43.819 130,44.5C 131.376,44.3158 132.209,43.6491 132.5,42.5C 133.931,43.7804 134.598,45.4471 134.5,47.5C 134.53,48.4972 134.03,49.1639 133,49.5C 131.56,48.8524 130.06,48.5191 128.5,48.5C 123.647,46.5241 119.647,47.5241 116.5,51.5C 115.549,53.118 114.216,54.4513 112.5,55.5C 111.081,54.9953 110.415,53.9953 110.5,52.5C 110.612,48.7002 110.946,45.0335 111.5,41.5 Z"/></g>
<g><path style="opacity:1" fill="#7286b0" d="M 43.5,43.5 C 47.4749,42.8578 50.8082,43.8578 53.5,46.5C 55.177,48.5398 56.8437,50.5398 58.5,52.5C 57.4062,53.5817 56.0729,54.2483 54.5,54.5C 50.9591,52.4701 47.2925,50.6368 43.5,49C 42.2475,47.1722 42.2475,45.3388 43.5,43.5 Z"/></g>
<g><path style="opacity:1" fill="#314160" d="M 87.5,44.5 C 88.3552,46.7868 88.5218,49.1201 88,51.5C 90.0199,51.9448 91.1865,52.6115 91.5,53.5C 87.3998,53.7633 83.3998,53.4299 79.5,52.5C 79.573,50.9731 78.9063,49.9731 77.5,49.5C 74.5507,47.5014 71.5507,47.1681 68.5,48.5C 65.5444,49.4554 63.5444,51.4554 62.5,54.5C 61.675,55.3857 60.675,55.719 59.5,55.5C 58.8902,54.609 58.5569,53.609 58.5,52.5C 56.8437,50.5398 55.177,48.5398 53.5,46.5C 63.8866,46.0733 74.2199,46.0733 84.5,46.5C 85.5178,45.8075 86.5178,45.1408 87.5,44.5 Z"/></g>
<g><path style="opacity:1" fill="#7b8db6" d="M 128.5,48.5 C 129.649,52.4271 128.982,56.0938 126.5,59.5C 119.092,62.0509 115.759,59.3842 116.5,51.5C 119.647,47.5241 123.647,46.5241 128.5,48.5 Z"/></g>
<g><path style="opacity:1" fill="#546993" d="M 41.5,43.5 C 42.1667,43.5 42.8333,43.5 43.5,43.5C 42.2475,45.3388 42.2475,47.1722 43.5,49C 47.2925,50.6368 50.9591,52.4701 54.5,54.5C 56.0729,54.2483 57.4062,53.5817 58.5,52.5C 58.5569,53.609 58.8902,54.609 59.5,55.5C 56.9369,56.0883 54.6036,57.0883 52.5,58.5C 49.0679,55.5572 45.2346,54.8905 41,56.5C 40.9467,60.5134 41.4467,64.5134 42.5,68.5C 43.7387,68.9424 44.7387,69.6091 45.5,70.5C 43.1944,70.0074 40.861,69.6741 38.5,69.5C 38.4618,66.0489 37.7951,62.7156 36.5,59.5C 37.5898,57.2557 39.2564,55.4223 41.5,54C 37.7135,50.589 37.7135,47.089 41.5,43.5 Z"/></g>
<g><path style="opacity:1" fill="#6f83ad" d="M 68.5,48.5 C 65.1772,53.9943 66.8439,56.9943 73.5,57.5C 78.3816,56.6649 79.7149,53.9983 77.5,49.5C 78.9063,49.9731 79.573,50.9731 79.5,52.5C 79.8957,55.0444 79.229,57.2111 77.5,59C 72.6972,60.1982 68.0305,61.6982 63.5,63.5C 61.686,61.0347 60.3527,58.368 59.5,55.5C 60.675,55.719 61.675,55.3857 62.5,54.5C 63.5444,51.4554 65.5444,49.4554 68.5,48.5 Z"/></g>
<g><path style="opacity:1" fill="#8495bd" d="M 77.5,49.5 C 79.7149,53.9983 78.3816,56.6649 73.5,57.5C 66.8439,56.9943 65.1772,53.9943 68.5,48.5C 71.5507,47.1681 74.5507,47.5014 77.5,49.5 Z"/></g>
<g><path style="opacity:1" fill="#44577b" d="M 134.5,47.5 C 136.101,50.5502 137.101,53.8835 137.5,57.5C 131.75,58.5831 128.416,61.9164 127.5,67.5C 128.401,63.7593 127.068,61.7593 123.5,61.5C 123.5,62.8333 123.5,64.1667 123.5,65.5C 122.5,65.5 121.5,65.5 120.5,65.5C 120.762,64.0222 120.429,62.6888 119.5,61.5C 117.487,62.9695 115.82,64.6362 114.5,66.5C 112.589,66.4257 111.422,65.4257 111,63.5C 110.722,64.4158 110.222,65.0825 109.5,65.5C 109.768,63.901 109.434,62.5676 108.5,61.5C 108.179,59.9519 107.179,59.2852 105.5,59.5C 105.5,58.5 105.5,57.5 105.5,56.5C 106.945,54.9373 108.611,53.604 110.5,52.5C 110.415,53.9953 111.081,54.9953 112.5,55.5C 114.216,54.4513 115.549,53.118 116.5,51.5C 115.759,59.3842 119.092,62.0509 126.5,59.5C 128.982,56.0938 129.649,52.4271 128.5,48.5C 130.06,48.5191 131.56,48.8524 133,49.5C 134.03,49.1639 134.53,48.4972 134.5,47.5 Z"/></g>
<g><path style="opacity:1" fill="#b3bdd7" d="M 91.5,54.5 C 92.038,56.1172 92.3713,57.7839 92.5,59.5C 94.912,59.3305 97.0786,59.9972 99,61.5C 100.722,61.3893 100.888,60.8893 99.5,60C 101.134,59.5065 102.801,59.3398 104.5,59.5C 104.263,58.209 104.596,57.209 105.5,56.5C 105.5,57.5 105.5,58.5 105.5,59.5C 107.179,59.2852 108.179,59.9519 108.5,61.5C 102.197,62.7955 95.8639,62.7955 89.5,61.5C 88.4324,60.5655 87.099,60.2322 85.5,60.5C 84.8321,55.8394 86.8321,53.8394 91.5,54.5 Z"/></g>
<g><path style="opacity:1" fill="#7485a7" d="M 97.5,56.5 C 98.675,56.281 99.675,56.6143 100.5,57.5C 98.9483,58.7979 97.9483,58.4646 97.5,56.5 Z"/></g>
<g><path style="opacity:1" fill="#94a3c6" d="M 137.5,57.5 C 138.299,60.4299 138.632,63.4299 138.5,66.5C 136.704,67.7927 135.037,69.2927 133.5,71C 131.119,71.7385 129.119,71.2385 127.5,69.5C 127.5,68.8333 127.5,68.1667 127.5,67.5C 128.416,61.9164 131.75,58.5831 137.5,57.5 Z"/></g>
<g><path style="opacity:1" fill="#6478a1" d="M 2.5,54.5 C 2.57205,57.5525 3.57205,60.2192 5.5,62.5C 5.5,64.1667 5.5,65.8333 5.5,67.5C 3.70848,67.366 2.04181,67.6993 0.5,68.5C 0.22914,63.5662 0.895807,58.8996 2.5,54.5 Z"/></g>
<g><path style="opacity:1" fill="#32405c" d="M 59.5,55.5 C 60.3527,58.368 61.686,61.0347 63.5,63.5C 63.2852,65.1788 63.9519,66.1788 65.5,66.5C 62.185,67.219 58.5184,67.8857 54.5,68.5C 54.8016,65.9407 54.4682,63.6074 53.5,61.5C 53.4431,60.391 53.1098,59.391 52.5,58.5C 54.6036,57.0883 56.9369,56.0883 59.5,55.5 Z"/></g>
<g><path style="opacity:1" fill="#8d9dc2" d="M 52.5,58.5 C 53.1098,59.391 53.4431,60.391 53.5,61.5C 53.046,64.1398 51.8793,66.4732 50,68.5C 49.1841,69.8228 48.0174,70.4894 46.5,70.5C 46.1667,70.5 45.8333,70.5 45.5,70.5C 44.7387,69.6091 43.7387,68.9424 42.5,68.5C 41.4467,64.5134 40.9467,60.5134 41,56.5C 45.2346,54.8905 49.0679,55.5572 52.5,58.5 Z"/></g>
<g><path style="opacity:1" fill="#3f5173" d="M 5.5,62.5 C 6.40397,63.209 6.73731,64.209 6.5,65.5C 8.29152,65.634 9.95819,65.3007 11.5,64.5C 11.5175,67.5235 12.5175,70.1901 14.5,72.5C 17.6014,74.0984 20.2681,76.2651 22.5,79C 25.367,79.8007 28.0336,79.6341 30.5,78.5C 32.5,79.8333 34.5,81.1667 36.5,82.5C 37.4916,82.3284 38.1583,82.6618 38.5,83.5C 37.5,83.5 36.5,83.5 35.5,83.5C 35.5,84.5 35.5,85.5 35.5,86.5C 32.033,86.5543 29.3663,85.0543 27.5,82C 19.3358,79.4992 12.5024,74.9992 7,68.5C 4.87904,71.7474 3.04571,75.0807 1.5,78.5C 0.520558,75.3752 0.187225,72.0419 0.5,68.5C 2.04181,67.6993 3.70848,67.366 5.5,67.5C 5.5,65.8333 5.5,64.1667 5.5,62.5 Z"/></g>
<g><path style="opacity:1" fill="#111927" d="M 75.5,68.5 C 69.0331,68.0803 62.6998,68.747 56.5,70.5C 55.2867,70.2528 54.62,69.5862 54.5,68.5C 58.5184,67.8857 62.185,67.219 65.5,66.5C 69.5474,66.6952 73.5474,66.3619 77.5,65.5C 78.1667,65.6667 78.8333,65.8333 79.5,66C 78.1416,66.9344 76.8083,67.7677 75.5,68.5 Z"/></g>
<g><path style="opacity:1" fill="#45587e" d="M 79.5,52.5 C 83.3998,53.4299 87.3998,53.7633 91.5,53.5C 91.5,53.8333 91.5,54.1667 91.5,54.5C 86.8321,53.8394 84.8321,55.8394 85.5,60.5C 87.099,60.2322 88.4324,60.5655 89.5,61.5C 88.0213,65.3824 88.3547,69.2158 90.5,73C 88.8659,73.4935 87.1992,73.6602 85.5,73.5C 84.1667,73.5 82.8333,73.5 81.5,73.5C 81.5,74.5 81.5,75.5 81.5,76.5C 82.791,76.2627 83.791,76.596 84.5,77.5C 82.7085,77.634 81.0418,77.3007 79.5,76.5C 79.1961,75.8501 78.8627,75.1835 78.5,74.5C 79.8333,73.5 81.1667,72.5 82.5,71.5C 82.0234,70.069 81.3567,68.7357 80.5,67.5C 78.9291,68.3094 77.2624,68.6427 75.5,68.5C 76.8083,67.7677 78.1416,66.9344 79.5,66C 78.8333,65.8333 78.1667,65.6667 77.5,65.5C 73.5474,66.3619 69.5474,66.6952 65.5,66.5C 63.9519,66.1788 63.2852,65.1788 63.5,63.5C 68.0305,61.6982 72.6972,60.1982 77.5,59C 79.229,57.2111 79.8957,55.0444 79.5,52.5 Z"/></g>
<g><path style="opacity:1" fill="#2c3b56" d="M 89.5,61.5 C 95.8639,62.7955 102.197,62.7955 108.5,61.5C 109.434,62.5676 109.768,63.901 109.5,65.5C 109.455,68.0772 110.455,70.0772 112.5,71.5C 111.491,72.9352 110.157,73.7685 108.5,74C 109.337,75.0113 109.67,76.1779 109.5,77.5C 106.68,77.2475 104.014,77.7475 101.5,79C 103.595,79.5556 103.762,80.0556 102,80.5C 98.9739,79.1282 95.8073,78.4615 92.5,78.5C 89.9407,78.8016 87.6074,78.4682 85.5,77.5C 87.924,77.8076 90.2573,77.4742 92.5,76.5C 89.8976,75.8676 87.5643,74.8676 85.5,73.5C 87.1992,73.6602 88.8659,73.4935 90.5,73C 88.3547,69.2158 88.0213,65.3824 89.5,61.5 Z"/></g>
<g><path style="opacity:1" fill="#202b40" d="M 127.5,67.5 C 127.5,68.1667 127.5,68.8333 127.5,69.5C 126.833,69.5 126.5,69.8333 126.5,70.5C 124.283,71.3686 121.95,71.702 119.5,71.5C 118,69.73 116.333,68.0634 114.5,66.5C 115.82,64.6362 117.487,62.9695 119.5,61.5C 120.429,62.6888 120.762,64.0222 120.5,65.5C 121.5,65.5 122.5,65.5 123.5,65.5C 123.5,64.1667 123.5,62.8333 123.5,61.5C 127.068,61.7593 128.401,63.7593 127.5,67.5 Z"/></g>
<g><path style="opacity:1" fill="#7c8eb6" d="M 19.5,64.5 C 22.2061,64.6878 24.5395,65.6878 26.5,67.5C 27.7521,70.1631 28.7521,72.8298 29.5,75.5C 29.5,76.1667 29.5,76.8333 29.5,77.5C 27.7116,78.6225 25.7116,78.7891 23.5,78C 21.4526,73.9436 18.6193,70.4436 15,67.5C 14.5172,66.552 14.3505,65.552 14.5,64.5C 16.1667,64.5 17.8333,64.5 19.5,64.5 Z"/></g>
<g><path style="opacity:1" fill="#526791" d="M 26.5,67.5 C 31.7872,66.1384 34.4539,68.1384 34.5,73.5C 32.4471,73.4021 30.7804,74.0687 29.5,75.5C 28.7521,72.8298 27.7521,70.1631 26.5,67.5 Z"/></g>
<g><path style="opacity:1" fill="#2d3b58" d="M 41.5,43.5 C 37.7135,47.089 37.7135,50.589 41.5,54C 39.2564,55.4223 37.5898,57.2557 36.5,59.5C 37.7951,62.7156 38.4618,66.0489 38.5,69.5C 40.861,69.6741 43.1944,70.0074 45.5,70.5C 45.8333,70.5 46.1667,70.5 46.5,70.5C 48.5951,72.5961 50.9284,74.4294 53.5,76C 50.6454,78.0299 47.9787,80.1966 45.5,82.5C 44.2102,81.0652 42.5435,80.0652 40.5,79.5C 45.6772,77.4349 45.3438,76.6016 39.5,77C 38.8742,77.7504 38.3742,78.5838 38,79.5C 36.7308,78.0953 36.2308,76.4286 36.5,74.5C 35.5,74.5 34.5,74.5 33.5,74.5C 33.9565,77.4056 34.9565,80.0722 36.5,82.5C 34.5,81.1667 32.5,79.8333 30.5,78.5C 30.5,77.8333 30.1667,77.5 29.5,77.5C 29.5,76.8333 29.5,76.1667 29.5,75.5C 30.7804,74.0687 32.4471,73.4021 34.5,73.5C 34.4539,68.1384 31.7872,66.1384 26.5,67.5C 24.5395,65.6878 22.2061,64.6878 19.5,64.5C 16.9387,63.2329 14.272,63.2329 11.5,64.5C 9.95819,65.3007 8.29152,65.634 6.5,65.5C 6.73731,64.209 6.40397,63.209 5.5,62.5C 3.57205,60.2192 2.57205,57.5525 2.5,54.5C 3.13007,50.9523 4.13007,47.6189 5.5,44.5C 6.18342,46.1765 7.51676,46.8432 9.5,46.5C 7.50015,48.5286 7.16682,50.8619 8.5,53.5C 10.6898,55.524 13.0232,57.3573 15.5,59C 18.0075,59.0929 20.1741,59.9262 22,61.5C 22.7172,60.9558 23.2172,60.2891 23.5,59.5C 24.64,58.1986 25.9733,57.0319 27.5,56C 24.1419,52.4183 20.4753,49.2516 16.5,46.5C 16.5,46.1667 16.5,45.8333 16.5,45.5C 24.6092,45.4571 32.9425,44.7904 41.5,43.5 Z"/></g>
<g><path style="opacity:1" fill="#677ca7" d="M 16.5,46.5 C 20.4753,49.2516 24.1419,52.4183 27.5,56C 25.9733,57.0319 24.64,58.1986 23.5,59.5C 19.4492,57.4302 15.2825,55.4302 11,53.5C 8.72944,48.2517 10.5628,45.9184 16.5,46.5 Z"/></g>
<g><path style="opacity:1" fill="#455981" d="M 16.5,45.5 C 16.5,45.8333 16.5,46.1667 16.5,46.5C 10.5628,45.9184 8.72944,48.2517 11,53.5C 15.2825,55.4302 19.4492,57.4302 23.5,59.5C 23.2172,60.2891 22.7172,60.9558 22,61.5C 20.1741,59.9262 18.0075,59.0929 15.5,59C 13.0232,57.3573 10.6898,55.524 8.5,53.5C 7.16682,50.8619 7.50015,48.5286 9.5,46.5C 11.717,45.6314 14.0504,45.298 16.5,45.5 Z"/></g>
<g><path style="opacity:1" fill="#6a7da5" d="M 138.5,66.5 C 138.5,67.8333 138.5,69.1667 138.5,70.5C 136.112,73.0762 133.112,74.0762 129.5,73.5C 128.5,72.5 127.5,71.5 126.5,70.5C 126.5,69.8333 126.833,69.5 127.5,69.5C 129.119,71.2385 131.119,71.7385 133.5,71C 135.037,69.2927 136.704,67.7927 138.5,66.5 Z"/></g>
<g><path style="opacity:1" fill="#566b95" d="M 19.5,64.5 C 17.8333,64.5 16.1667,64.5 14.5,64.5C 14.3505,65.552 14.5172,66.552 15,67.5C 18.6193,70.4436 21.4526,73.9436 23.5,78C 25.7116,78.7891 27.7116,78.6225 29.5,77.5C 30.1667,77.5 30.5,77.8333 30.5,78.5C 28.0336,79.6341 25.367,79.8007 22.5,79C 20.2681,76.2651 17.6014,74.0984 14.5,72.5C 12.5175,70.1901 11.5175,67.5235 11.5,64.5C 14.272,63.2329 16.9387,63.2329 19.5,64.5 Z"/></g>
<g><path style="opacity:1" fill="#42516f" d="M 126.5,70.5 C 127.5,71.5 128.5,72.5 129.5,73.5C 128.856,76.8044 126.856,78.1378 123.5,77.5C 121.952,77.8212 121.285,78.8212 121.5,80.5C 120.402,79.3991 120.235,78.0657 121,76.5C 122.167,75.3333 123.333,74.1667 124.5,73C 122.618,72.8019 120.952,72.3019 119.5,71.5C 121.95,71.702 124.283,71.3686 126.5,70.5 Z"/></g>
<g><path style="opacity:1" fill="#233048" d="M 35.5,86.5 C 35.5,87.5 35.5,88.5 35.5,89.5C 34.8333,89.5 34.1667,89.5 33.5,89.5C 33.5299,88.5028 33.0299,87.8361 32,87.5C 30.6667,88.8333 29.3333,90.1667 28,91.5C 25.3592,90.0665 22.5259,89.0665 19.5,88.5C 18.8933,88.6236 18.56,88.9569 18.5,89.5C 18.1667,89.5 17.8333,89.5 17.5,89.5C 16.8677,84.6951 14.201,81.5284 9.5,80C 6.85397,79.5026 4.1873,79.3359 1.5,79.5C 1.5,79.1667 1.5,78.8333 1.5,78.5C 3.04571,75.0807 4.87904,71.7474 7,68.5C 12.5024,74.9992 19.3358,79.4992 27.5,82C 29.3663,85.0543 32.033,86.5543 35.5,86.5 Z"/></g>
<g><path style="opacity:1" fill="#111826" d="M 85.5,73.5 C 87.5643,74.8676 89.8976,75.8676 92.5,76.5C 90.2573,77.4742 87.924,77.8076 85.5,77.5C 85.1667,77.5 84.8333,77.5 84.5,77.5C 83.791,76.596 82.791,76.2627 81.5,76.5C 81.5,75.5 81.5,74.5 81.5,73.5C 82.8333,73.5 84.1667,73.5 85.5,73.5 Z"/></g>
<g><path style="opacity:1" fill="#31405e" d="M 138.5,70.5 C 138.5,72.5 138.5,74.5 138.5,76.5C 136.167,78.5 133.833,80.5 131.5,82.5C 131.565,82.0618 131.399,81.7284 131,81.5C 127.454,84.4058 125.954,83.4058 126.5,78.5C 125.209,78.7373 124.209,78.404 123.5,77.5C 126.856,78.1378 128.856,76.8044 129.5,73.5C 133.112,74.0762 136.112,73.0762 138.5,70.5 Z"/></g>
<g><path style="opacity:1" fill="#798bb4" d="M 79.5,76.5 C 81.0418,77.3007 82.7085,77.634 84.5,77.5C 84.8333,77.5 85.1667,77.5 85.5,77.5C 87.6074,78.4682 89.9407,78.8016 92.5,78.5C 92.5,80.1667 92.5,81.8333 92.5,83.5C 88.5191,84.0209 84.5191,84.3542 80.5,84.5C 80.2671,82.9382 79.6005,81.6049 78.5,80.5C 77.1917,79.7677 75.8584,78.9344 74.5,78C 71.1182,77.8236 67.7848,77.3236 64.5,76.5C 63.1865,74.4816 63.8532,73.3149 66.5,73C 65.5,72.6667 64.5,72.3333 63.5,72C 68.0853,70.7748 72.752,70.2748 77.5,70.5C 77.0254,73.0821 77.6921,75.0821 79.5,76.5 Z"/></g>
<g><path style="opacity:1" fill="#111622" d="M 45.5,82.5 C 43.2362,83.2186 40.9029,83.552 38.5,83.5C 38.1583,82.6618 37.4916,82.3284 36.5,82.5C 34.9565,80.0722 33.9565,77.4056 33.5,74.5C 34.5,74.5 35.5,74.5 36.5,74.5C 36.2308,76.4286 36.7308,78.0953 38,79.5C 38.3742,78.5838 38.8742,77.7504 39.5,77C 45.3438,76.6016 45.6772,77.4349 40.5,79.5C 42.5435,80.0652 44.2102,81.0652 45.5,82.5 Z"/></g>
<g><path style="opacity:1" fill="#0a0e17" d="M 123.5,77.5 C 124.209,78.404 125.209,78.7373 126.5,78.5C 125.954,83.4058 127.454,84.4058 131,81.5C 131.399,81.7284 131.565,82.0618 131.5,82.5C 129.553,85.4345 126.886,86.1012 123.5,84.5C 124.246,83.2638 124.579,81.9305 124.5,80.5C 123.5,80.5 122.5,80.5 121.5,80.5C 121.285,78.8212 121.952,77.8212 123.5,77.5 Z"/></g>
<g><path style="opacity:1" fill="#7083ad" d="M 114.5,66.5 C 116.333,68.0634 118,69.73 119.5,71.5C 120.952,72.3019 122.618,72.8019 124.5,73C 123.333,74.1667 122.167,75.3333 121,76.5C 120.235,78.0657 120.402,79.3991 121.5,80.5C 121.669,84.8661 120.003,86.0328 116.5,84C 112.514,83.5012 108.514,83.3345 104.5,83.5C 104.5,82.5 104.5,81.5 104.5,80.5C 112.916,82.4217 115.583,79.4217 112.5,71.5C 110.455,70.0772 109.455,68.0772 109.5,65.5C 110.222,65.0825 110.722,64.4158 111,63.5C 111.422,65.4257 112.589,66.4257 114.5,66.5 Z"/></g>
<g><path style="opacity:1" fill="#212c41" d="M 112.5,71.5 C 115.583,79.4217 112.916,82.4217 104.5,80.5C 104.5,81.5 104.5,82.5 104.5,83.5C 104.196,84.1499 103.863,84.8165 103.5,85.5C 106.071,86.7277 107.405,88.7277 107.5,91.5C 101.755,91.7889 96.0884,91.2889 90.5,90C 90.0426,89.586 89.7093,89.086 89.5,88.5C 90.5175,87.1476 91.8508,86.1476 93.5,85.5C 93.3764,84.8933 93.0431,84.56 92.5,84.5C 92.5,84.1667 92.5,83.8333 92.5,83.5C 92.5,81.8333 92.5,80.1667 92.5,78.5C 95.8073,78.4615 98.9739,79.1282 102,80.5C 103.762,80.0556 103.595,79.5556 101.5,79C 104.014,77.7475 106.68,77.2475 109.5,77.5C 109.67,76.1779 109.337,75.0113 108.5,74C 110.157,73.7685 111.491,72.9352 112.5,71.5 Z"/></g>
<g><path style="opacity:1" fill="#526790" d="M 1.5,79.5 C 4.1873,79.3359 6.85397,79.5026 9.5,80C 14.201,81.5284 16.8677,84.6951 17.5,89.5C 16.3991,90.5983 15.0657,90.765 13.5,90C 10.1249,87.8186 6.45827,86.3186 2.5,85.5C 1.65859,83.6208 1.32526,81.6208 1.5,79.5 Z"/></g>
<g><path style="opacity:1" fill="#495d84" d="M 78.5,80.5 C 79.6005,81.6049 80.2671,82.9382 80.5,84.5C 74.3289,82.5826 67.9956,82.0826 61.5,83C 58.8144,85.5463 57.8144,88.713 58.5,92.5C 56.7839,92.3713 55.1172,92.038 53.5,91.5C 51.8828,90.962 50.2161,90.6287 48.5,90.5C 50.6089,87.03 52.4423,83.3634 54,79.5C 56.0673,76.93 58.5673,74.93 61.5,73.5C 61.5036,74.867 62.1703,76.367 63.5,78C 68.4119,79.416 73.4119,80.2493 78.5,80.5 Z"/></g>
<g><path style="opacity:1" fill="#27354f" d="M 75.5,97.5 C 75.5,98.1667 75.8333,98.5 76.5,98.5C 76.5,98.8333 76.5,99.1667 76.5,99.5C 70.4638,99.3599 64.4638,99.6932 58.5,100.5C 58.634,98.7085 58.3007,97.0418 57.5,95.5C 60.766,95.5674 62.266,93.9008 62,90.5C 66.7185,84.618 71.8852,84.118 77.5,89C 76.0056,91.6388 75.3389,94.4721 75.5,97.5 Z"/></g>
<g><path style="opacity:1" fill="#394a6a" d="M 136.5,85.5 C 135.565,89.9701 134.232,94.3034 132.5,98.5C 130.32,95.619 129.32,92.2856 129.5,88.5C 131.213,86.1496 133.547,85.1496 136.5,85.5 Z"/></g>
<g><path style="opacity:1" fill="#697da7" d="M 53.5,61.5 C 54.4682,63.6074 54.8016,65.9407 54.5,68.5C 54.62,69.5862 55.2867,70.2528 56.5,70.5C 62.6998,68.747 69.0331,68.0803 75.5,68.5C 77.2624,68.6427 78.9291,68.3094 80.5,67.5C 81.3567,68.7357 82.0234,70.069 82.5,71.5C 81.1667,72.5 79.8333,73.5 78.5,74.5C 78.8627,75.1835 79.1961,75.8501 79.5,76.5C 77.6921,75.0821 77.0254,73.0821 77.5,70.5C 72.752,70.2748 68.0853,70.7748 63.5,72C 64.5,72.3333 65.5,72.6667 66.5,73C 63.8532,73.3149 63.1865,74.4816 64.5,76.5C 67.7848,77.3236 71.1182,77.8236 74.5,78C 75.8584,78.9344 77.1917,79.7677 78.5,80.5C 73.4119,80.2493 68.4119,79.416 63.5,78C 62.1703,76.367 61.5036,74.867 61.5,73.5C 58.5673,74.93 56.0673,76.93 54,79.5C 52.4423,83.3634 50.6089,87.03 48.5,90.5C 46.5,93.1667 44.1667,95.5 41.5,97.5C 37.2562,96.6671 35.2562,94.0004 35.5,89.5C 35.5,88.5 35.5,87.5 35.5,86.5C 35.5,85.5 35.5,84.5 35.5,83.5C 36.5,83.5 37.5,83.5 38.5,83.5C 40.9029,83.552 43.2362,83.2186 45.5,82.5C 47.9787,80.1966 50.6454,78.0299 53.5,76C 50.9284,74.4294 48.5951,72.5961 46.5,70.5C 48.0174,70.4894 49.1841,69.8228 50,68.5C 51.8793,66.4732 53.046,64.1398 53.5,61.5 Z"/></g>
<g><path style="opacity:1" fill="#687ba5" d="M 129.5,88.5 C 129.32,92.2856 130.32,95.619 132.5,98.5C 131.404,101.032 130.071,103.365 128.5,105.5C 128.5,104.5 128.5,103.5 128.5,102.5C 128.573,100.973 127.906,99.9731 126.5,99.5C 126.573,97.9731 125.906,96.9731 124.5,96.5C 123.007,94.0887 122.007,91.4221 121.5,88.5C 122.325,87.6143 123.325,87.281 124.5,87.5C 124.67,88.8221 124.337,89.9887 123.5,91C 124.448,91.4828 125.448,91.6495 126.5,91.5C 126.5,89.8333 126.5,88.1667 126.5,86.5C 128.179,86.2852 129.179,86.9519 129.5,88.5 Z"/></g>
<g><path style="opacity:1" fill="#344463" d="M 80.5,84.5 C 80.5813,89.6017 78.9147,93.935 75.5,97.5C 75.3389,94.4721 76.0056,91.6388 77.5,89C 71.8852,84.118 66.7185,84.618 62,90.5C 62.266,93.9008 60.766,95.5674 57.5,95.5C 56.1667,94.1667 54.8333,92.8333 53.5,91.5C 55.1172,92.038 56.7839,92.3713 58.5,92.5C 57.8144,88.713 58.8144,85.5463 61.5,83C 67.9956,82.0826 74.3289,82.5826 80.5,84.5 Z"/></g>
<g><path style="opacity:1" fill="#0b0e16" d="M 33.5,89.5 C 33.2616,91.3212 33.2616,93.1545 33.5,95C 29.8484,95.4986 26.1817,95.6653 22.5,95.5C 20.565,93.9646 19.2317,91.9646 18.5,89.5C 18.56,88.9569 18.8933,88.6236 19.5,88.5C 22.5259,89.0665 25.3592,90.0665 28,91.5C 29.3333,90.1667 30.6667,88.8333 32,87.5C 33.0299,87.8361 33.5299,88.5028 33.5,89.5 Z"/></g>
<g><path style="opacity:1" fill="#2d3c58" d="M 2.5,85.5 C 6.45827,86.3186 10.1249,87.8186 13.5,90C 15.0657,90.765 16.3991,90.5983 17.5,89.5C 17.8333,89.5 18.1667,89.5 18.5,89.5C 19.2317,91.9646 20.565,93.9646 22.5,95.5C 21.1667,95.5 19.8333,95.5 18.5,95.5C 18.4828,97.5648 18.1495,99.5648 17.5,101.5C 14.2139,100.793 10.8806,100.46 7.5,100.5C 5.2368,95.7104 3.57014,90.7104 2.5,85.5 Z"/></g>
<g><path style="opacity:1" fill="#202a3e" d="M 48.5,90.5 C 50.2161,90.6287 51.8828,90.962 53.5,91.5C 54.8333,92.8333 56.1667,94.1667 57.5,95.5C 58.3007,97.0418 58.634,98.7085 58.5,100.5C 64.4638,99.6932 70.4638,99.3599 76.5,99.5C 76.7593,101.989 75.7593,103.656 73.5,104.5C 73.5774,103.25 74.244,102.417 75.5,102C 69.3324,99.916 63.3324,100.416 57.5,103.5C 54.3465,102.376 51.5132,103.043 49,105.5C 47.1643,103.585 45.9976,101.252 45.5,98.5C 44.2638,99.2458 42.9305,99.5792 41.5,99.5C 41.5,99.1667 41.5,98.8333 41.5,98.5C 41.5,98.1667 41.5,97.8333 41.5,97.5C 44.1667,95.5 46.5,93.1667 48.5,90.5 Z"/></g>
<g><path style="opacity:1" fill="#4b5f87" d="M 138.5,76.5 C 137.938,79.546 137.271,82.546 136.5,85.5C 133.547,85.1496 131.213,86.1496 129.5,88.5C 129.179,86.9519 128.179,86.2852 126.5,86.5C 126.5,88.1667 126.5,89.8333 126.5,91.5C 125.448,91.6495 124.448,91.4828 123.5,91C 124.337,89.9887 124.67,88.8221 124.5,87.5C 123.325,87.281 122.325,87.6143 121.5,88.5C 122.007,91.4221 123.007,94.0887 124.5,96.5C 117.837,96.974 111.171,97.474 104.5,98C 101.562,98.6958 98.8957,99.8625 96.5,101.5C 97.4348,99.1386 98.7682,96.9719 100.5,95C 95.8111,94.1595 91.1444,93.3261 86.5,92.5C 86.5792,91.0695 86.2458,89.7362 85.5,88.5C 87.7654,86.8726 90.0987,85.5392 92.5,84.5C 93.0431,84.56 93.3764,84.8933 93.5,85.5C 91.8508,86.1476 90.5175,87.1476 89.5,88.5C 89.7093,89.086 90.0426,89.586 90.5,90C 96.0884,91.2889 101.755,91.7889 107.5,91.5C 107.405,88.7277 106.071,86.7277 103.5,85.5C 103.863,84.8165 104.196,84.1499 104.5,83.5C 108.514,83.3345 112.514,83.5012 116.5,84C 120.003,86.0328 121.669,84.8661 121.5,80.5C 122.5,80.5 123.5,80.5 124.5,80.5C 124.579,81.9305 124.246,83.2638 123.5,84.5C 126.886,86.1012 129.553,85.4345 131.5,82.5C 133.833,80.5 136.167,78.5 138.5,76.5 Z"/></g>
<g><path style="opacity:1" fill="#6175a0" d="M 92.5,83.5 C 92.5,83.8333 92.5,84.1667 92.5,84.5C 90.0987,85.5392 87.7654,86.8726 85.5,88.5C 86.2458,89.7362 86.5792,91.0695 86.5,92.5C 91.1444,93.3261 95.8111,94.1595 100.5,95C 98.7682,96.9719 97.4348,99.1386 96.5,101.5C 94.7376,102.262 93.7376,103.596 93.5,105.5C 92.027,106.74 90.3604,107.74 88.5,108.5C 85.4973,107.915 82.4973,107.248 79.5,106.5C 82.4699,102.43 81.4699,99.7637 76.5,98.5C 75.8333,98.5 75.5,98.1667 75.5,97.5C 78.9147,93.935 80.5813,89.6017 80.5,84.5C 84.5191,84.3542 88.5191,84.0209 92.5,83.5 Z"/></g>
<g><path style="opacity:1" fill="#536993" d="M 33.5,89.5 C 34.1667,89.5 34.8333,89.5 35.5,89.5C 35.2562,94.0004 37.2562,96.6671 41.5,97.5C 41.5,97.8333 41.5,98.1667 41.5,98.5C 40.5318,100.607 40.1984,102.941 40.5,105.5C 35.3029,105.768 30.4696,107.101 26,109.5C 24.9326,108.809 23.7659,108.309 22.5,108C 22.787,104.737 21.1204,102.57 17.5,101.5C 18.1495,99.5648 18.4828,97.5648 18.5,95.5C 19.8333,95.5 21.1667,95.5 22.5,95.5C 26.1817,95.6653 29.8484,95.4986 33.5,95C 33.2616,93.1545 33.2616,91.3212 33.5,89.5 Z"/></g>
<g><path style="opacity:1" fill="#364666" d="M 124.5,96.5 C 125.906,96.9731 126.573,97.9731 126.5,99.5C 119.825,99.3337 113.158,99.5004 106.5,100C 100.777,101.68 97.1105,105.346 95.5,111C 92.4686,111.495 89.4686,111.329 86.5,110.5C 89.005,109.503 91.6717,109.503 94.5,110.5C 94.634,108.708 94.3007,107.042 93.5,105.5C 93.7376,103.596 94.7376,102.262 96.5,101.5C 98.8957,99.8625 101.562,98.6958 104.5,98C 111.171,97.474 117.837,96.974 124.5,96.5 Z"/></g>
<g><path style="opacity:1" fill="#0a0e17" d="M 73.5,104.5 C 62.3055,107.472 50.9722,108.806 39.5,108.5C 39.8627,107.817 40.1961,107.15 40.5,106.5C 41.9217,106.291 43.255,105.791 44.5,105C 42.3234,103.814 41.3234,101.981 41.5,99.5C 42.9305,99.5792 44.2638,99.2458 45.5,98.5C 45.9976,101.252 47.1643,103.585 49,105.5C 51.5132,103.043 54.3465,102.376 57.5,103.5C 63.3324,100.416 69.3324,99.916 75.5,102C 74.244,102.417 73.5774,103.25 73.5,104.5 Z"/></g>
<g><path style="opacity:1" fill="#151e30" d="M 128.5,102.5 C 128.5,103.5 128.5,104.5 128.5,105.5C 125.258,111.411 120.925,116.411 115.5,120.5C 113.658,120.277 111.825,119.943 110,119.5C 104.731,120.179 99.5647,121.179 94.5,122.5C 94.2447,119.984 93.4114,117.65 92,115.5C 91.0228,116.774 90.1894,116.774 89.5,115.5C 90.1515,114.909 90.8182,114.243 91.5,113.5C 93.0983,114.485 94.765,114.651 96.5,114C 98.7764,109.725 101.776,106.059 105.5,103C 113.159,102.5 120.826,102.334 128.5,102.5 Z"/></g>
<g><path style="opacity:1" fill="#506690" d="M 76.5,99.5 C 76.5,99.1667 76.5,98.8333 76.5,98.5C 81.4699,99.7637 82.4699,102.43 79.5,106.5C 82.4973,107.248 85.4973,107.915 88.5,108.5C 90.3604,107.74 92.027,106.74 93.5,105.5C 94.3007,107.042 94.634,108.708 94.5,110.5C 91.6717,109.503 89.005,109.503 86.5,110.5C 84.3352,112.793 81.6685,114.627 78.5,116C 76.9632,117.11 76.2965,118.61 76.5,120.5C 75.6618,120.842 75.3284,121.508 75.5,122.5C 74.5655,123.568 74.2322,124.901 74.5,126.5C 73.5,126.5 72.5,126.5 71.5,126.5C 71.634,124.708 71.3007,123.042 70.5,121.5C 68.1442,116.442 64.3108,113.109 59,111.5C 58.5172,110.552 58.3505,109.552 58.5,108.5C 65.2375,107.552 71.9042,106.219 78.5,104.5C 78.8799,102.302 78.2132,100.635 76.5,99.5 Z"/></g>
<g><path style="opacity:1" fill="#24314a" d="M 26.5,123.5 C 21.1275,119.129 16.4608,114.129 12.5,108.5C 17.2377,107.403 21.4044,108.736 25,112.5C 26.3408,114.837 27.1741,117.337 27.5,120C 27.4857,121.385 27.1524,122.551 26.5,123.5 Z"/></g>
<g><path style="opacity:1" fill="#3e5074" d="M 41.5,98.5 C 41.5,98.8333 41.5,99.1667 41.5,99.5C 41.3234,101.981 42.3234,103.814 44.5,105C 43.255,105.791 41.9217,106.291 40.5,106.5C 38.8235,107.183 38.1568,108.517 38.5,110.5C 39.552,110.351 40.552,110.517 41.5,111C 39.9586,112.371 38.6253,113.871 37.5,115.5C 34.2833,118.061 32.2833,121.395 31.5,125.5C 31.5,126.167 31.5,126.833 31.5,127.5C 29.8089,126.136 28.1423,124.803 26.5,123.5C 27.1524,122.551 27.4857,121.385 27.5,120C 27.1741,117.337 26.3408,114.837 25,112.5C 21.4044,108.736 17.2377,107.403 12.5,108.5C 10.8474,105.869 9.1807,103.203 7.5,100.5C 10.8806,100.46 14.2139,100.793 17.5,101.5C 21.1204,102.57 22.787,104.737 22.5,108C 23.7659,108.309 24.9326,108.809 26,109.5C 30.4696,107.101 35.3029,105.768 40.5,105.5C 40.1984,102.941 40.5318,100.607 41.5,98.5 Z"/></g>
<g><path style="opacity:1" fill="#30405e" d="M 76.5,99.5 C 78.2132,100.635 78.8799,102.302 78.5,104.5C 71.9042,106.219 65.2375,107.552 58.5,108.5C 58.3505,109.552 58.5172,110.552 59,111.5C 64.3108,113.109 68.1442,116.442 70.5,121.5C 59.6426,118.746 48.6426,116.746 37.5,115.5C 38.6253,113.871 39.9586,112.371 41.5,111C 40.552,110.517 39.552,110.351 38.5,110.5C 38.1568,108.517 38.8235,107.183 40.5,106.5C 40.1961,107.15 39.8627,107.817 39.5,108.5C 50.9722,108.806 62.3055,107.472 73.5,104.5C 75.7593,103.656 76.7593,101.989 76.5,99.5 Z"/></g>
<g><path style="opacity:1" fill="#0f1623" d="M 89.5,115.5 C 90.1894,116.774 91.0228,116.774 92,115.5C 93.4114,117.65 94.2447,119.984 94.5,122.5C 99.5647,121.179 104.731,120.179 110,119.5C 111.825,119.943 113.658,120.277 115.5,120.5C 114.415,122.587 112.749,123.92 110.5,124.5C 105.623,123.812 101.29,124.979 97.5,128C 94.7759,128.27 92.1092,128.77 89.5,129.5C 88.3044,129.154 88.3044,128.654 89.5,128C 90.8721,127.598 92.2054,127.098 93.5,126.5C 94.5827,125.635 94.7494,124.635 94,123.5C 90.1797,126.876 86.0131,127.876 81.5,126.5C 85.9408,125.948 89.9408,124.281 93.5,121.5C 93,121.167 92.5,120.833 92,120.5C 89.2416,123.495 86.0749,124.495 82.5,123.5C 82.238,122.022 82.5713,120.689 83.5,119.5C 85.595,117.454 87.595,116.121 89.5,115.5 Z"/></g>
<g><path style="opacity:1" fill="#1c273d" d="M 37.5,115.5 C 48.6426,116.746 59.6426,118.746 70.5,121.5C 71.3007,123.042 71.634,124.708 71.5,126.5C 71.4955,130.534 71.1621,134.534 70.5,138.5C 65.8215,138.666 61.1548,138.499 56.5,138C 54.9419,137.79 53.6085,137.29 52.5,136.5C 53.5,136.5 54.5,136.5 55.5,136.5C 55.2971,123.224 48.6304,118.39 35.5,122C 34.6159,123.72 33.2825,124.886 31.5,125.5C 32.2833,121.395 34.2833,118.061 37.5,115.5 Z"/></g>
<g><path style="opacity:1" fill="#1f2a40" d="M 126.5,99.5 C 127.906,99.9731 128.573,100.973 128.5,102.5C 120.826,102.334 113.159,102.5 105.5,103C 101.776,106.059 98.7764,109.725 96.5,114C 94.765,114.651 93.0983,114.485 91.5,113.5C 90.8182,114.243 90.1515,114.909 89.5,115.5C 87.595,116.121 85.595,117.454 83.5,119.5C 82.5713,120.689 82.238,122.022 82.5,123.5C 86.0749,124.495 89.2416,123.495 92,120.5C 92.5,120.833 93,121.167 93.5,121.5C 89.9408,124.281 85.9408,125.948 81.5,126.5C 80.561,123.894 78.8943,121.894 76.5,120.5C 76.2965,118.61 76.9632,117.11 78.5,116C 81.6685,114.627 84.3352,112.793 86.5,110.5C 89.4686,111.329 92.4686,111.495 95.5,111C 97.1105,105.346 100.777,101.68 106.5,100C 113.158,99.5004 119.825,99.3337 126.5,99.5 Z"/></g>
<g><path style="opacity:1" fill="#0f1622" d="M 52.5,136.5 C 44.8955,134.863 37.8955,131.863 31.5,127.5C 31.5,126.833 31.5,126.167 31.5,125.5C 33.2825,124.886 34.6159,123.72 35.5,122C 48.6304,118.39 55.2971,123.224 55.5,136.5C 54.5,136.5 53.5,136.5 52.5,136.5 Z"/></g>
<g><path style="opacity:1" fill="#070a10" d="M 76.5,120.5 C 78.8943,121.894 80.561,123.894 81.5,126.5C 86.0131,127.876 90.1797,126.876 94,123.5C 94.7494,124.635 94.5827,125.635 93.5,126.5C 92.2054,127.098 90.8721,127.598 89.5,128C 88.3044,128.654 88.3044,129.154 89.5,129.5C 92.1092,128.77 94.7759,128.27 97.5,128C 101.29,124.979 105.623,123.812 110.5,124.5C 105.444,129.365 99.444,132.699 92.5,134.5C 87.4889,134.666 82.4889,134.499 77.5,134C 76.6433,133.311 75.9767,132.478 75.5,131.5C 78.1551,128.466 78.1551,125.466 75.5,122.5C 75.3284,121.508 75.6618,120.842 76.5,120.5 Z"/></g>
<g><path style="opacity:1" fill="#2a3955" d="M 75.5,122.5 C 78.1551,125.466 78.1551,128.466 75.5,131.5C 75.9767,132.478 76.6433,133.311 77.5,134C 82.4889,134.499 87.4889,134.666 92.5,134.5C 85.5373,137.224 78.204,138.557 70.5,138.5C 71.1621,134.534 71.4955,130.534 71.5,126.5C 72.5,126.5 73.5,126.5 74.5,126.5C 74.2322,124.901 74.5655,123.568 75.5,122.5 Z"/></g>
</svg>
