<svg width="21" height="18" viewBox="0 0 21 18" fill="none" xmlns="http://www.w3.org/2000/svg">
<g clip-path="url(#clip0_94_33)">
<path d="M18.375 11.25H17.8748C17.6873 11.25 17.5013 11.2642 17.316 11.2927L12.0315 7.32974L13.2975 6.11774C13.5968 5.83124 13.6073 5.35574 13.3208 5.05724C13.0335 4.75799 12.558 4.74824 12.2603 5.03399L9.13052 8.03024C8.97452 8.18624 8.76227 8.26649 8.53952 8.24774C8.31602 8.22974 8.11952 8.11649 7.98527 7.92899C7.77977 7.64399 7.84277 7.19774 8.11127 6.92849L11.6385 3.60674C12.3068 2.97899 13.3515 2.82524 14.169 3.23549L15.906 4.10399C16.4235 4.36274 17.004 4.49924 17.5823 4.49924H18.3743C18.789 4.49924 19.1243 4.16399 19.1243 3.74924C19.1243 3.33449 18.789 2.99924 18.3743 2.99924H17.5823C17.235 2.99924 16.8863 2.91749 16.5758 2.76224L14.8403 1.89374C13.4723 1.20899 11.7255 1.46324 10.6095 2.51474L10.146 2.95124L9.62102 2.47274C8.93177 1.84499 8.03927 1.49924 7.07852 1.49924C6.50027 1.49924 5.92352 1.63574 5.40827 1.89299L3.67277 2.76149C3.36152 2.91674 3.01277 2.99849 2.66552 2.99849H1.87502C1.46027 2.99849 1.12502 3.33374 1.12502 3.74849C1.12502 4.16324 1.46027 4.49849 1.87502 4.49849H2.66702C3.24527 4.49849 3.82577 4.36124 4.34402 4.10324L6.08102 3.23474C6.84752 2.84924 7.92452 2.95349 8.61152 3.58124L9.05177 3.98249L7.06727 5.85149C6.26252 6.65549 6.13427 7.92674 6.76877 8.80499C7.15877 9.34724 7.93352 9.74924 8.60177 9.74924C9.19652 9.74924 9.76727 9.51524 10.1798 9.10199L10.9343 8.37974L15.6938 11.949C15.6705 11.9655 11.0453 15.4335 11.0453 15.4335C10.503 15.855 9.74627 15.855 9.19277 15.4252L4.62452 11.9992C3.98027 11.5155 3.18077 11.2492 2.37452 11.2492H1.87427C1.45952 11.2492 1.12427 11.5845 1.12427 11.9992C1.12427 12.414 1.45952 12.7492 1.87427 12.7492H2.37452C2.85827 12.7492 3.33752 12.909 3.72452 13.1992L8.28227 16.6177C8.82602 17.0407 9.47777 17.2522 10.128 17.2522C10.7745 17.2522 11.4203 17.043 11.9558 16.626L16.5255 13.2C16.9118 12.9097 17.391 12.75 17.8748 12.75H18.375C18.7898 12.75 19.125 12.4147 19.125 12C19.125 11.5852 18.7898 11.25 18.375 11.25Z" fill="#949494"/>
</g>
<rect x="18.5625" y="2.8125" width="1.6875" height="10.125" fill="#949494"/>
<rect y="2.8125" width="1.6875" height="10.125" fill="#949494"/>
<defs>
<clipPath id="clip0_94_33">
<rect width="18" height="18" fill="white" transform="translate(1.125)"/>
</clipPath>
</defs>
</svg>
