<?xml version="1.0" encoding="UTF-8"?>
<!DOCTYPE svg PUBLIC "-//W3C//DTD SVG 1.1//EN" "http://www.w3.org/Graphics/SVG/1.1/DTD/svg11.dtd">
<svg xmlns="http://www.w3.org/2000/svg" version="1.1" width="141px" height="141px" style="shape-rendering:geometricPrecision; text-rendering:geometricPrecision; image-rendering:optimizeQuality; fill-rule:evenodd; clip-rule:evenodd" xmlns:xlink="http://www.w3.org/1999/xlink">
<g><path style="opacity:0.721" fill="#dfdedf" d="M 60.5,-0.5 C 66.5,-0.5 72.5,-0.5 78.5,-0.5C 121.71,9.57496 141.876,36.9083 139,81.5C 131.643,115.026 111.143,134.693 77.5,140.5C 72.5,140.5 67.5,140.5 62.5,140.5C 28.2753,134.942 7.27529,115.275 -0.5,81.5C -0.5,73.8333 -0.5,66.1667 -0.5,58.5C 7.0592,25.6072 27.3925,5.94054 60.5,-0.5 Z"/></g>
<g><path style="opacity:1" fill="#464a5c" d="M 93.5,54.5 C 93.5,54.1667 93.5,53.8333 93.5,53.5C 98.892,54.2488 104.225,54.5821 109.5,54.5C 110.744,56.8005 112.744,58.1338 115.5,58.5C 117.409,57.6518 119.409,57.3184 121.5,57.5C 121.068,58.7095 120.401,59.7095 119.5,60.5C 118.833,57.8333 118.167,57.8333 117.5,60.5C 114.927,59.3552 112.261,58.8552 109.5,59C 111.79,60.7772 113.457,62.9438 114.5,65.5C 112.537,64.0401 110.704,62.3734 109,60.5C 107.301,61.4061 105.467,61.7394 103.5,61.5C 103.5,60.5 103.5,59.5 103.5,58.5C 100.402,58.5875 100.068,58.0875 102.5,57C 99.5259,56.0069 96.5259,55.1736 93.5,54.5 Z"/></g>
<g><path style="opacity:1" fill="#232642" d="M 93.5,54.5 C 96.5259,55.1736 99.5259,56.0069 102.5,57C 100.068,58.0875 100.402,58.5875 103.5,58.5C 103.5,59.5 103.5,60.5 103.5,61.5C 105.467,61.7394 107.301,61.4061 109,60.5C 110.704,62.3734 112.537,64.0401 114.5,65.5C 116.513,68.6049 116.679,71.9382 115,75.5C 114.667,73.8333 114.333,72.1667 114,70.5C 113.577,71.9561 112.744,72.4561 111.5,72C 112.615,67.8288 112.282,67.6622 110.5,71.5C 106.878,72.6586 103.211,72.8253 99.5,72C 98.7877,70.575 98.621,69.075 99,67.5C 96.9592,68.4231 94.7925,68.7564 92.5,68.5C 92.5,66.1667 92.5,63.8333 92.5,61.5C 94.767,60.5769 97.1003,59.7436 99.5,59C 97.765,58.3486 96.0983,58.5153 94.5,59.5C 93.5481,57.9547 93.2148,56.288 93.5,54.5 Z"/></g>
<g><path style="opacity:1" fill="#d9ac97" d="M 15.5,27.5 C 18.7544,33.6769 21.7544,40.0103 24.5,46.5C 24.6532,49.8011 25.6532,52.8011 27.5,55.5C 25.611,61.0588 26.9443,65.5588 31.5,69C 30.5679,73.0776 30.5679,76.9109 31.5,80.5C 30.5,80.1667 29.8333,79.5 29.5,78.5C 29.1667,77.5 28.5,76.8333 27.5,76.5C 27.5,75.8333 27.5,75.1667 27.5,74.5C 28.1239,74.0831 28.4573,73.4164 28.5,72.5C 26.2017,67.0001 24.535,61.3334 23.5,55.5C 22.5,55.5 21.5,55.5 20.5,55.5C 20.9502,49.8669 19.9502,44.5335 17.5,39.5C 16.7065,39.9312 15.8732,40.2645 15,40.5C 12.7597,39.1551 10.9264,37.4884 9.5,35.5C 11.1468,32.5265 13.1468,29.8599 15.5,27.5 Z"/></g>
<g><path style="opacity:1" fill="#d4d5bd" d="M 92.5,52.5 C 93.1667,52.5 93.5,52.8333 93.5,53.5C 93.5,53.8333 93.5,54.1667 93.5,54.5C 92.325,54.719 91.325,54.3857 90.5,53.5C 90.9569,52.7025 91.6236,52.3691 92.5,52.5 Z"/></g>
<g><path style="opacity:1" fill="#cca191" d="M 5.5,44.5 C 4.77356,48.2604 6.10689,50.927 9.5,52.5C 11.2834,55.1002 13.2834,57.4336 15.5,59.5C 17.2516,61.2459 18.5849,63.2459 19.5,65.5C 18.3361,69.9427 15.3361,72.276 10.5,72.5C 11.3351,71.0568 12.6684,70.0568 14.5,69.5C 13.0186,68.5197 11.6853,67.353 10.5,66C 14.2721,64.6107 14.2721,63.6107 10.5,63C 12.9047,61.3854 12.9047,60.7188 10.5,61C 9.10679,62.1711 8.27346,63.6711 8,65.5C 7.33333,62.8333 6.66667,62.8333 6,65.5C 3.83699,63.8587 2.33699,61.8587 1.5,59.5C 2.07562,54.1906 3.40896,49.1906 5.5,44.5 Z"/></g>
<g><path style="opacity:1" fill="#785057" d="M 15.5,59.5 C 13.2834,57.4336 11.2834,55.1002 9.5,52.5C 9.5,50.8333 9.5,49.1667 9.5,47.5C 11.1667,47.5 12.8333,47.5 14.5,47.5C 15.2841,51.723 16.6174,55.723 18.5,59.5C 17.5,59.5 16.5,59.5 15.5,59.5 Z"/></g>
<g><path style="opacity:1" fill="#594f60" d="M 84.5,39.5 C 82.3996,45.4033 82.0662,51.4033 83.5,57.5C 85.7729,58.7353 87.6062,58.4019 89,56.5C 89.6172,57.4491 89.4506,58.2825 88.5,59C 89.8584,59.9344 91.1917,60.7677 92.5,61.5C 91.209,61.2627 90.209,61.596 89.5,62.5C 89.1667,62.5 88.8333,62.5 88.5,62.5C 88.3152,60.1104 86.9818,59.1104 84.5,59.5C 82.3122,59.3073 80.6455,60.1406 79.5,62C 74.5111,62.4993 69.5111,62.6659 64.5,62.5C 64.1583,61.6618 63.4916,61.3284 62.5,61.5C 60.567,59.0626 58.4003,56.7293 56,54.5C 54.0896,51.5385 52.9229,48.5385 52.5,45.5C 56.9889,43.9356 61.1556,44.6023 65,47.5C 66.8348,46.8807 69.0014,46.714 71.5,47C 72.428,47.3879 73.0946,48.0546 73.5,49C 72.2178,51.6739 72.5512,54.1739 74.5,56.5C 75.086,56.2907 75.586,55.9574 76,55.5C 77.1433,58.9153 78.81,59.2486 81,56.5C 81.7255,51.9088 81.0589,47.5754 79,43.5C 78.6667,44.1667 78.3333,44.8333 78,45.5C 76.6491,45.5544 75.4824,45.0544 74.5,44C 75.1476,42.5603 75.4809,41.0603 75.5,39.5C 76.6603,42.1328 78.6603,42.9661 81.5,42C 77.551,41.1932 77.551,40.6932 81.5,40.5C 81.6932,36.551 82.1932,36.551 83,40.5C 83.3826,39.944 83.8826,39.6107 84.5,39.5 Z"/></g>
<g><path style="opacity:1" fill="#c9998c" d="M 9.5,35.5 C 10.9264,37.4884 12.7597,39.1551 15,40.5C 15.8732,40.2645 16.7065,39.9312 17.5,39.5C 19.9502,44.5335 20.9502,49.8669 20.5,55.5C 21.5,55.5 22.5,55.5 23.5,55.5C 24.535,61.3334 26.2017,67.0001 28.5,72.5C 28.4573,73.4164 28.1239,74.0831 27.5,74.5C 26.3466,72.1932 25.1799,69.8599 24,67.5C 23.3292,66.7476 22.4959,66.4142 21.5,66.5C 22.5366,64.2625 22.7033,61.9291 22,59.5C 19.2466,55.0695 16.9133,50.4029 15,45.5C 14.586,45.9574 14.086,46.2907 13.5,46.5C 10.5188,44.1015 8.85214,41.1015 8.5,37.5C 8.83333,36.8333 9.16667,36.1667 9.5,35.5 Z"/></g>
<g><path style="opacity:1" fill="#766d7b" d="M 49.5,38.5 C 49.6878,41.2061 50.6878,43.5395 52.5,45.5C 52.9229,48.5385 54.0896,51.5385 56,54.5C 58.4003,56.7293 60.567,59.0626 62.5,61.5C 62.5,61.8333 62.5,62.1667 62.5,62.5C 61.5222,62.811 60.8555,63.4777 60.5,64.5C 61.5896,65.6086 61.5896,66.6086 60.5,67.5C 58.5398,62.581 55.8731,58.2477 52.5,54.5C 47.7714,54.1809 43.4381,52.5142 39.5,49.5C 35.5021,50.7597 31.5021,50.7597 27.5,49.5C 26.8333,49.5 26.5,49.1667 26.5,48.5C 27.5778,45.5979 28.2444,42.5979 28.5,39.5C 30.1789,43.4696 31.5122,43.1363 32.5,38.5C 36.3771,37.803 40.2104,37.1363 44,36.5C 44.3333,37.1667 44.6667,37.8333 45,38.5C 46.4902,37.2721 47.9902,37.2721 49.5,38.5 Z"/></g>
<g><path style="opacity:1" fill="#4c485d" d="M 53.5,33.5 C 54.1814,35.1585 55.0147,36.8251 56,38.5C 56.3333,37.8333 56.6667,37.1667 57,36.5C 59.1398,38.4869 61.6398,39.8202 64.5,40.5C 68.1918,38.2437 72.1918,36.9103 76.5,36.5C 75.8902,37.391 75.5569,38.391 75.5,39.5C 75.4809,41.0603 75.1476,42.5603 74.5,44C 75.4824,45.0544 76.6491,45.5544 78,45.5C 78.3333,44.8333 78.6667,44.1667 79,43.5C 81.0589,47.5754 81.7255,51.9088 81,56.5C 78.81,59.2486 77.1433,58.9153 76,55.5C 75.586,55.9574 75.086,56.2907 74.5,56.5C 72.5512,54.1739 72.2178,51.6739 73.5,49C 73.0946,48.0546 72.428,47.3879 71.5,47C 69.0014,46.714 66.8348,46.8807 65,47.5C 61.1556,44.6023 56.9889,43.9356 52.5,45.5C 50.6878,43.5395 49.6878,41.2061 49.5,38.5C 49.8333,37.5 50.5,36.8333 51.5,36.5C 52.4013,35.7095 53.0679,34.7095 53.5,33.5 Z"/></g>
<g><path style="opacity:1" fill="#9d7173" d="M 8.5,37.5 C 8.85214,41.1015 10.5188,44.1015 13.5,46.5C 14.086,46.2907 14.586,45.9574 15,45.5C 16.9133,50.4029 19.2466,55.0695 22,59.5C 22.7033,61.9291 22.5366,64.2625 21.5,66.5C 20.8333,66.1667 20.1667,65.8333 19.5,65.5C 18.5849,63.2459 17.2516,61.2459 15.5,59.5C 16.5,59.5 17.5,59.5 18.5,59.5C 16.6174,55.723 15.2841,51.723 14.5,47.5C 12.8333,47.5 11.1667,47.5 9.5,47.5C 9.5,49.1667 9.5,50.8333 9.5,52.5C 6.10689,50.927 4.77356,48.2604 5.5,44.5C 6.22713,42.0462 7.22713,39.7128 8.5,37.5 Z"/></g>
<g><path style="opacity:1" fill="#3f4156" d="M 98.5,45.5 C 98.631,46.2389 98.4643,46.9056 98,47.5C 96.1978,46.2107 95.0312,44.5441 94.5,42.5C 94.9231,39.7118 93.9231,37.7118 91.5,36.5C 87.333,39.3176 87.6663,41.3176 92.5,42.5C 92.5,45.8333 92.5,49.1667 92.5,52.5C 91.6236,52.3691 90.9569,52.7025 90.5,53.5C 91.325,54.3857 92.325,54.719 93.5,54.5C 93.2148,56.288 93.5481,57.9547 94.5,59.5C 96.0983,58.5153 97.765,58.3486 99.5,59C 97.1003,59.7436 94.767,60.5769 92.5,61.5C 91.1917,60.7677 89.8584,59.9344 88.5,59C 89.4506,58.2825 89.6172,57.4491 89,56.5C 87.6062,58.4019 85.7729,58.7353 83.5,57.5C 82.0662,51.4033 82.3996,45.4033 84.5,39.5C 84.9382,39.5654 85.2716,39.3988 85.5,39C 83.9575,36.2984 81.6241,35.1318 78.5,35.5C 83.3887,34.3213 88.2221,32.6546 93,30.5C 96.5896,33.8358 97.423,37.8358 95.5,42.5C 96.1882,43.8549 97.1882,44.8549 98.5,45.5 Z"/></g>
<g><path style="opacity:1" fill="#797c81" d="M 94.5,42.5 C 93.8333,42.5 93.1667,42.5 92.5,42.5C 87.6663,41.3176 87.333,39.3176 91.5,36.5C 93.9231,37.7118 94.9231,39.7118 94.5,42.5 Z"/></g>
<g><path style="opacity:1" fill="#778895" d="M 19.5,22.5 C 21.6375,24.702 23.8041,27.0353 26,29.5C 26.9433,32.8445 27.7766,36.1779 28.5,39.5C 28.2444,42.5979 27.5778,45.5979 26.5,48.5C 25.8333,47.8333 25.1667,47.1667 24.5,46.5C 21.7544,40.0103 18.7544,33.6769 15.5,27.5C 16.604,25.6115 17.9373,23.9448 19.5,22.5 Z"/></g>
<g><path style="opacity:1" fill="#7e7e82" d="M 78.5,35.5 C 81.6241,35.1318 83.9575,36.2984 85.5,39C 85.2716,39.3988 84.9382,39.5654 84.5,39.5C 83.8826,39.6107 83.3826,39.944 83,40.5C 82.1932,36.551 81.6932,36.551 81.5,40.5C 77.551,40.6932 77.551,41.1932 81.5,42C 78.6603,42.9661 76.6603,42.1328 75.5,39.5C 75.5569,38.391 75.8902,37.391 76.5,36.5C 77.1667,36.1667 77.8333,35.8333 78.5,35.5 Z"/></g>
<g><path style="opacity:1" fill="#3a3e59" d="M 50.5,4.5 C 51.2216,4.91753 51.7216,5.5842 52,6.5C 52.2015,17.0517 55.3682,26.5517 61.5,35C 64.366,36.4568 67.366,36.7901 70.5,36C 78.3491,32.9168 86.3491,30.0835 94.5,27.5C 96.0589,28.0736 97.5589,28.7402 99,29.5C 101.148,34.9302 100.981,40.2635 98.5,45.5C 97.1882,44.8549 96.1882,43.8549 95.5,42.5C 97.423,37.8358 96.5896,33.8358 93,30.5C 88.2221,32.6546 83.3887,34.3213 78.5,35.5C 77.8333,35.8333 77.1667,36.1667 76.5,36.5C 72.1918,36.9103 68.1918,38.2437 64.5,40.5C 61.6398,39.8202 59.1398,38.4869 57,36.5C 56.6667,37.1667 56.3333,37.8333 56,38.5C 55.0147,36.8251 54.1814,35.1585 53.5,33.5C 52.7823,28.0481 51.449,22.7148 49.5,17.5C 51.7631,13.2305 51.7631,9.06387 49.5,5C 49.7284,4.60123 50.0618,4.43456 50.5,4.5 Z"/></g>
<g><path style="opacity:1" fill="#38445d" d="M 124.5,28.5 C 131.742,37.5455 136.076,47.8788 137.5,59.5C 135.974,56.1074 133.307,54.7741 129.5,55.5C 129.649,54.448 129.483,53.448 129,52.5C 125.793,55.1502 125.293,54.9835 127.5,52C 126.22,49.8683 126.22,47.7016 127.5,45.5C 125.844,39.9824 124.844,34.3158 124.5,28.5 Z"/></g>
<g><path style="opacity:1" fill="#bfc4b4" d="M 130.5,49.5 C 131.978,49.238 133.311,49.5713 134.5,50.5C 133.833,50.8333 133.167,51.1667 132.5,51.5C 131.287,51.2528 130.62,50.5862 130.5,49.5 Z"/></g>
<g><path style="opacity:1" fill="#ccd1bc" d="M 131.5,46.5 C 133.337,46.6395 133.67,47.3061 132.5,48.5C 131.702,48.0431 131.369,47.3764 131.5,46.5 Z"/></g>
<g><path style="opacity:1" fill="#252e4a" d="M 116.5,19.5 C 119.392,22.271 122.058,25.271 124.5,28.5C 124.844,34.3158 125.844,39.9824 127.5,45.5C 126.22,47.7016 126.22,49.8683 127.5,52C 125.293,54.9835 125.793,55.1502 129,52.5C 129.483,53.448 129.649,54.448 129.5,55.5C 133.307,54.7741 135.974,56.1074 137.5,59.5C 138.489,64.9753 138.822,70.642 138.5,76.5C 137.5,76.5 136.5,76.5 135.5,76.5C 134.292,75.7659 132.959,75.4326 131.5,75.5C 132.117,71.5048 130.951,68.1715 128,65.5C 127.667,66.1667 127.333,66.8333 127,67.5C 125.055,66.1367 122.888,65.3034 120.5,65C 119.62,63.6439 119.286,62.1439 119.5,60.5C 120.401,59.7095 121.068,58.7095 121.5,57.5C 123.137,56.0256 124.137,54.1923 124.5,52C 123.005,43.517 120.505,35.3504 117,27.5C 116.971,24.6741 116.805,22.0074 116.5,19.5 Z"/></g>
<g><path style="opacity:1" fill="#5c6f83" d="M 51.5,36.5 C 50.5,36.8333 49.8333,37.5 49.5,38.5C 47.9902,37.2721 46.4902,37.2721 45,38.5C 44.6667,37.8333 44.3333,37.1667 44,36.5C 40.2104,37.1363 36.3771,37.803 32.5,38.5C 31.5122,43.1363 30.1789,43.4696 28.5,39.5C 27.7766,36.1779 26.9433,32.8445 26,29.5C 23.8041,27.0353 21.6375,24.702 19.5,22.5C 20.5,21.8333 21.5,21.1667 22.5,20.5C 24.228,21.379 26.0614,22.0457 28,22.5C 31.859,20.1607 36.0257,18.494 40.5,17.5C 42.1347,18.0463 43.8014,18.3796 45.5,18.5C 47.4646,22.0036 49.298,25.6702 51,29.5C 51.4966,31.8098 51.6633,34.1432 51.5,36.5 Z"/></g>
<g><path style="opacity:1" fill="#2e344f" d="M 60.5,1.5 C 59.791,2.40397 58.791,2.73731 57.5,2.5C 57.33,3.82207 57.6634,4.98873 58.5,6C 54.9383,15.0063 56.6049,23.0063 63.5,30C 69.7465,31.1074 75.0798,29.4407 79.5,25C 85.7651,23.0165 92.0984,21.5165 98.5,20.5C 102.246,23.4256 104.58,27.259 105.5,32C 104.505,38.7537 103.838,45.587 103.5,52.5C 105.415,52.7845 107.081,52.4511 108.5,51.5C 109.833,51.5 110.5,50.8333 110.5,49.5C 111.249,50.531 111.915,51.6976 112.5,53C 111.263,53.2321 110.263,53.7321 109.5,54.5C 104.225,54.5821 98.892,54.2488 93.5,53.5C 93.5,52.8333 93.1667,52.5 92.5,52.5C 92.5,49.1667 92.5,45.8333 92.5,42.5C 93.1667,42.5 93.8333,42.5 94.5,42.5C 95.0312,44.5441 96.1978,46.2107 98,47.5C 98.4643,46.9056 98.631,46.2389 98.5,45.5C 100.981,40.2635 101.148,34.9302 99,29.5C 97.5589,28.7402 96.0589,28.0736 94.5,27.5C 86.3491,30.0835 78.3491,32.9168 70.5,36C 67.366,36.7901 64.366,36.4568 61.5,35C 55.3682,26.5517 52.2015,17.0517 52,6.5C 51.7216,5.5842 51.2216,4.91753 50.5,4.5C 50.5,4.16667 50.5,3.83333 50.5,3.5C 53.7635,2.51779 57.0968,1.85112 60.5,1.5 Z"/></g>
<g><path style="opacity:1" fill="#1c2240" d="M 114.5,18.5 C 115.167,18.8333 115.833,19.1667 116.5,19.5C 116.805,22.0074 116.971,24.6741 117,27.5C 120.505,35.3504 123.005,43.517 124.5,52C 124.137,54.1923 123.137,56.0256 121.5,57.5C 119.409,57.3184 117.409,57.6518 115.5,58.5C 112.744,58.1338 110.744,56.8005 109.5,54.5C 110.263,53.7321 111.263,53.2321 112.5,53C 111.915,51.6976 111.249,50.531 110.5,49.5C 109.508,49.3284 108.842,49.6618 108.5,50.5C 107.176,51.8499 106.176,51.6833 105.5,50C 106.251,40.4713 108.417,31.3047 112,22.5C 112.667,23.8333 113.333,23.8333 114,22.5C 114.49,21.2068 114.657,19.8734 114.5,18.5 Z"/></g>
<g><path style="opacity:1" fill="#eeefd0" d="M 110.5,49.5 C 110.5,50.8333 109.833,51.5 108.5,51.5C 108.5,51.1667 108.5,50.8333 108.5,50.5C 108.842,49.6618 109.508,49.3284 110.5,49.5 Z"/></g>
<g><path style="opacity:1" fill="#47556d" d="M 50.5,3.5 C 50.5,3.83333 50.5,4.16667 50.5,4.5C 50.0618,4.43456 49.7284,4.60123 49.5,5C 51.7631,9.06387 51.7631,13.2305 49.5,17.5C 51.449,22.7148 52.7823,28.0481 53.5,33.5C 53.0679,34.7095 52.4013,35.7095 51.5,36.5C 51.6633,34.1432 51.4966,31.8098 51,29.5C 49.298,25.6702 47.4646,22.0036 45.5,18.5C 43.8014,18.3796 42.1347,18.0463 40.5,17.5C 36.0257,18.494 31.859,20.1607 28,22.5C 26.0614,22.0457 24.228,21.379 22.5,20.5C 30.2252,12.2988 39.5585,6.63215 50.5,3.5 Z"/></g>
<g><path style="opacity:1" fill="#1f2848" d="M 87.5,3.5 C 97.8959,6.19318 106.896,11.1932 114.5,18.5C 114.657,19.8734 114.49,21.2068 114,22.5C 113.333,23.8333 112.667,23.8333 112,22.5C 108.417,31.3047 106.251,40.4713 105.5,50C 106.176,51.6833 107.176,51.8499 108.5,50.5C 108.5,50.8333 108.5,51.1667 108.5,51.5C 107.081,52.4511 105.415,52.7845 103.5,52.5C 103.838,45.587 104.505,38.7537 105.5,32C 104.58,27.259 102.246,23.4256 98.5,20.5C 98.4142,19.5041 98.7476,18.6708 99.5,18C 97.567,17.7489 95.7337,17.2489 94,16.5C 92.8525,17.4581 91.8525,17.1247 91,15.5C 89.2699,16.7396 87.4366,17.7396 85.5,18.5C 83.5749,18.4096 82.4083,17.4096 82,15.5C 81.5831,16.756 80.7498,17.4226 79.5,17.5C 82.1035,12.3679 84.7702,7.7012 87.5,3.5 Z"/></g>
<g><path style="opacity:1" fill="#242f4d" d="M 65.5,1.5 C 72.9683,1.22297 80.3016,1.88964 87.5,3.5C 84.7702,7.7012 82.1035,12.3679 79.5,17.5C 79.2089,18.6491 78.3756,19.3158 77,19.5C 72.9382,19.4885 70.1049,17.6552 68.5,14C 69.1068,9.55154 68.1068,5.38487 65.5,1.5 Z"/></g>
<g><path style="opacity:1" fill="#222846" d="M 60.5,1.5 C 62.1667,1.5 63.8333,1.5 65.5,1.5C 68.1068,5.38487 69.1068,9.55154 68.5,14C 70.1049,17.6552 72.9382,19.4885 77,19.5C 78.3756,19.3158 79.2089,18.6491 79.5,17.5C 80.7498,17.4226 81.5831,16.756 82,15.5C 82.4083,17.4096 83.5749,18.4096 85.5,18.5C 87.4366,17.7396 89.2699,16.7396 91,15.5C 91.8525,17.1247 92.8525,17.4581 94,16.5C 95.7337,17.2489 97.567,17.7489 99.5,18C 98.7476,18.6708 98.4142,19.5041 98.5,20.5C 92.0984,21.5165 85.7651,23.0165 79.5,25C 75.0798,29.4407 69.7465,31.1074 63.5,30C 56.6049,23.0063 54.9383,15.0063 58.5,6C 57.6634,4.98873 57.33,3.82207 57.5,2.5C 58.791,2.73731 59.791,2.40397 60.5,1.5 Z"/></g>
<g><path style="opacity:1" fill="#f1f1d2" d="M 119.5,60.5 C 118.833,60.5 118.167,60.5 117.5,60.5C 118.167,57.8333 118.833,57.8333 119.5,60.5 Z"/></g>
<g><path style="opacity:1" fill="#a49190" d="M 27.5,49.5 C 31.5021,50.7597 35.5021,50.7597 39.5,49.5C 43.4381,52.5142 47.7714,54.1809 52.5,54.5C 53.7845,56.9528 53.7845,59.4528 52.5,62C 53.6094,64.0466 54.2761,66.2133 54.5,68.5C 54.5,69.5 54.5,70.5 54.5,71.5C 53.1266,71.6567 51.7932,71.49 50.5,71C 49.1667,68.6667 47.8333,66.3333 46.5,64C 43.2744,62.8011 39.941,62.3011 36.5,62.5C 36.6162,59.0897 34.9496,57.7564 31.5,58.5C 30.4682,55.4303 29.1348,52.4303 27.5,49.5 Z"/></g>
<g><path style="opacity:1" fill="#171a38" d="M 117.5,60.5 C 118.301,62.0418 118.634,63.7085 118.5,65.5C 117.167,65.5 115.833,65.5 114.5,65.5C 113.457,62.9438 111.79,60.7772 109.5,59C 112.261,58.8552 114.927,59.3552 117.5,60.5 Z"/></g>
<g><path style="opacity:1" fill="#f1efd4" d="M 62.5,61.5 C 63.4916,61.3284 64.1583,61.6618 64.5,62.5C 64.5,62.8333 64.5,63.1667 64.5,63.5C 63.5084,63.6716 62.8417,63.3382 62.5,62.5C 62.5,62.1667 62.5,61.8333 62.5,61.5 Z"/></g>
<g><path style="opacity:1" fill="#b78b88" d="M 1.5,59.5 C 2.33699,61.8587 3.83699,63.8587 6,65.5C 6.66667,62.8333 7.33333,62.8333 8,65.5C 8.27346,63.6711 9.10679,62.1711 10.5,61C 12.9047,60.7188 12.9047,61.3854 10.5,63C 14.2721,63.6107 14.2721,64.6107 10.5,66C 11.6853,67.353 13.0186,68.5197 14.5,69.5C 12.6684,70.0568 11.3351,71.0568 10.5,72.5C 7.14755,71.2926 3.81421,71.2926 0.5,72.5C 0.294095,68.1018 0.627429,63.7685 1.5,59.5 Z"/></g>
<g><path style="opacity:1" fill="#71616c" d="M 88.5,62.5 C 88.8333,62.5 89.1667,62.5 89.5,62.5C 90.1784,64.8579 90.5117,67.0246 90.5,69C 88.8455,69.6077 87.1789,70.1077 85.5,70.5C 83.2844,68.2926 81.1177,68.2926 79,70.5C 78.8008,68.5975 77.9675,67.0975 76.5,66C 76.9574,65.586 77.2907,65.086 77.5,64.5C 74.8938,63.3483 72.2272,63.1816 69.5,64C 70.1667,66 71.5,67.3333 73.5,68C 72.2004,69.5788 72.5337,70.7455 74.5,71.5C 72.4274,73.9398 70.094,74.1065 67.5,72C 68.9597,71.1887 69.293,70.3554 68.5,69.5C 67.2638,70.2458 65.9305,70.5792 64.5,70.5C 63.5615,68.0897 63.5615,65.7564 64.5,63.5C 64.5,63.1667 64.5,62.8333 64.5,62.5C 69.5111,62.6659 74.5111,62.4993 79.5,62C 80.6455,60.1406 82.3122,59.3073 84.5,59.5C 86.9818,59.1104 88.3152,60.1104 88.5,62.5 Z"/></g>
<g><path style="opacity:1" fill="#464357" d="M 88.5,62.5 C 88,67.9987 85.5,69.332 81,66.5C 80.8525,60.4034 83.3525,59.0701 88.5,62.5 Z"/></g>
<g><path style="opacity:1" fill="#c0bfb1" d="M 83.5,62.5 C 85.1207,62.7869 86.1207,63.7869 86.5,65.5C 85.1667,66.8333 83.8333,66.8333 82.5,65.5C 83.1272,64.5832 83.4606,63.5832 83.5,62.5 Z"/></g>
<g><path style="opacity:1" fill="#c2a79d" d="M 31.5,58.5 C 34.9496,57.7564 36.6162,59.0897 36.5,62.5C 39.941,62.3011 43.2744,62.8011 46.5,64C 47.8333,66.3333 49.1667,68.6667 50.5,71C 51.7932,71.49 53.1266,71.6567 54.5,71.5C 54.5,70.5 54.5,69.5 54.5,68.5C 55.4212,69.981 56.5879,71.3144 58,72.5C 59.7261,70.9022 60.5594,71.2355 60.5,73.5C 56.4638,73.5724 55.6304,75.2391 58,78.5C 58.2492,77.376 58.7492,76.376 59.5,75.5C 60.7112,76.2739 60.7112,77.1072 59.5,78C 60.1667,78.3333 60.8333,78.6667 61.5,79C 57.0684,79.6228 56.7351,80.6228 60.5,82C 60.1667,82.3333 59.8333,82.6667 59.5,83C 61.0993,84.7863 61.9326,86.953 62,89.5C 62.3333,89.1667 62.6667,88.8333 63,88.5C 63.49,89.7932 63.6567,91.1266 63.5,92.5C 64.5,92.5 65.5,92.5 66.5,92.5C 68.1667,92.5 69.8333,92.5 71.5,92.5C 74.0593,92.1984 76.3926,92.5318 78.5,93.5C 71.8333,93.5 65.1667,93.5 58.5,93.5C 57.2825,92.8386 55.9492,92.1719 54.5,91.5C 55.482,89.1657 55.6487,86.8324 55,84.5C 56.2975,85.7836 57.4642,85.6169 58.5,84C 56.9559,83.7104 55.6226,83.0437 54.5,82C 55.1667,81.6667 55.8333,81.3333 56.5,81C 54.3687,79.1434 53.8687,76.9768 55,74.5C 53.1163,77.1777 52.6163,80.011 53.5,83C 50.0699,83.6378 48.7366,82.1378 49.5,78.5C 50.552,78.6495 51.552,78.4828 52.5,78C 48.5085,77.5877 45.3419,75.7544 43,72.5C 42.6924,73.3081 42.1924,73.9747 41.5,74.5C 36.9354,73.4359 34.2688,70.6025 33.5,66C 36.7536,62.7889 36.087,61.2889 31.5,61.5C 31.5,60.5 31.5,59.5 31.5,58.5 Z"/></g>
<g><path style="opacity:1" fill="#454658" d="M 117.5,60.5 C 118.167,60.5 118.833,60.5 119.5,60.5C 119.286,62.1439 119.62,63.6439 120.5,65C 122.888,65.3034 125.055,66.1367 127,67.5C 127.333,66.8333 127.667,66.1667 128,65.5C 130.951,68.1715 132.117,71.5048 131.5,75.5C 132.959,75.4326 134.292,75.7659 135.5,76.5C 135.5,76.8333 135.5,77.1667 135.5,77.5C 128.479,75.4582 127.479,76.4582 132.5,80.5C 129.852,82.6582 126.852,83.9916 123.5,84.5C 123.646,88.5191 123.979,92.5191 124.5,96.5C 124.167,96.5 123.833,96.5 123.5,96.5C 122.746,91.5365 122.413,86.5365 122.5,81.5C 123.239,81.631 123.906,81.4643 124.5,81C 122.1,80.2564 119.767,79.4231 117.5,78.5C 117.225,80.8418 116.392,80.8418 115,78.5C 114.138,76.913 113.471,75.2464 113,73.5C 112.707,77.9799 111.874,78.3133 110.5,74.5C 106.893,73.5108 103.226,73.1774 99.5,73.5C 99.5,74.8333 99.5,76.1667 99.5,77.5C 98.5,77.5 97.5,77.5 96.5,77.5C 98.8632,75.917 98.8632,74.0836 96.5,72C 94.5911,71.5521 93.4244,72.3855 93,74.5C 92.9152,72.9154 92.7486,71.5821 92.5,70.5C 91.018,73.2565 91.518,75.5899 94,77.5C 94.7358,80.592 94.5691,83.592 93.5,86.5C 92.6236,86.6309 91.9569,86.2975 91.5,85.5C 90.0677,80.7993 87.7343,76.6327 84.5,73C 86.6192,72.6582 86.9526,71.8249 85.5,70.5C 87.1789,70.1077 88.8455,69.6077 90.5,69C 90.5117,67.0246 90.1784,64.8579 89.5,62.5C 90.209,61.596 91.209,61.2627 92.5,61.5C 92.5,63.8333 92.5,66.1667 92.5,68.5C 94.7925,68.7564 96.9592,68.4231 99,67.5C 98.621,69.075 98.7877,70.575 99.5,72C 103.211,72.8253 106.878,72.6586 110.5,71.5C 112.282,67.6622 112.615,67.8288 111.5,72C 112.744,72.4561 113.577,71.9561 114,70.5C 114.333,72.1667 114.667,73.8333 115,75.5C 116.679,71.9382 116.513,68.6049 114.5,65.5C 115.833,65.5 117.167,65.5 118.5,65.5C 118.634,63.7085 118.301,62.0418 117.5,60.5 Z"/></g>
<g><path style="opacity:1" fill="#e5e6cc" d="M 122.5,73.5 C 123.978,73.238 125.311,73.5713 126.5,74.5C 125.833,74.8333 125.167,75.1667 124.5,75.5C 123.287,75.2528 122.62,74.5862 122.5,73.5 Z"/></g>
<g><path style="opacity:1" fill="#22233d" d="M 117.5,78.5 C 119.767,79.4231 122.1,80.2564 124.5,81C 123.906,81.4643 123.239,81.631 122.5,81.5C 118.333,80.0686 116.333,81.7352 116.5,86.5C 113.428,86.8174 110.428,86.4841 107.5,85.5C 105.146,82.4789 102.479,79.8123 99.5,77.5C 99.5,76.1667 99.5,74.8333 99.5,73.5C 103.226,73.1774 106.893,73.5108 110.5,74.5C 111.874,78.3133 112.707,77.9799 113,73.5C 113.471,75.2464 114.138,76.913 115,78.5C 116.392,80.8418 117.225,80.8418 117.5,78.5 Z"/></g>
<g><path style="opacity:1" fill="#eff0d2" d="M 123.5,70.5 C 125.337,70.6395 125.67,71.3061 124.5,72.5C 123.702,72.0431 123.369,71.3764 123.5,70.5 Z"/></g>
<g><path style="opacity:1" fill="#1d203c" d="M 123.5,70.5 C 122.596,71.209 122.263,72.209 122.5,73.5C 121.292,72.7659 119.959,72.4326 118.5,72.5C 118.5,73.8333 118.5,75.1667 118.5,76.5C 121.187,76.3359 123.854,76.5026 126.5,77C 123.462,78.3282 120.462,78.8282 117.5,78.5C 114.875,77.5343 114.875,76.5343 117.5,75.5C 116.349,69.1537 119.016,66.6537 125.5,68C 125.833,68.3333 126.167,68.6667 126.5,69C 125.263,69.2321 124.263,69.7321 123.5,70.5 Z"/></g>
<g><path style="opacity:1" fill="#877379" d="M 52.5,54.5 C 55.8731,58.2477 58.5398,62.581 60.5,67.5C 61.5896,66.6086 61.5896,65.6086 60.5,64.5C 60.8555,63.4777 61.5222,62.811 62.5,62.5C 62.8417,63.3382 63.5084,63.6716 64.5,63.5C 63.5615,65.7564 63.5615,68.0897 64.5,70.5C 65.9305,70.5792 67.2638,70.2458 68.5,69.5C 69.293,70.3554 68.9597,71.1887 67.5,72C 70.094,74.1065 72.4274,73.9398 74.5,71.5C 78.919,72.3229 79.5856,74.4895 76.5,78C 77.9013,79.677 79.2347,81.3437 80.5,83C 77.3639,85.9712 74.3639,89.1379 71.5,92.5C 69.8333,92.5 68.1667,92.5 66.5,92.5C 67.9575,90.9892 69.7908,89.9892 72,89.5C 72.6667,88.1667 72.6667,86.8333 72,85.5C 70.2494,84.8263 68.5827,84.493 67,84.5C 68.4815,82.9318 69.1482,80.9318 69,78.5C 66.9783,77.0091 65.3117,77.3424 64,79.5C 63.6667,77.8333 63.3333,76.1667 63,74.5C 62.3292,73.7476 61.4959,73.4142 60.5,73.5C 60.5594,71.2355 59.7261,70.9022 58,72.5C 56.5879,71.3144 55.4212,69.981 54.5,68.5C 54.2761,66.2133 53.6094,64.0466 52.5,62C 53.7845,59.4528 53.7845,56.9528 52.5,54.5 Z"/></g>
<g><path style="opacity:1" fill="#6d6c75" d="M 96.5,77.5 C 95.5233,80.2869 95.19,83.2869 95.5,86.5C 94.8333,86.5 94.1667,86.5 93.5,86.5C 94.5691,83.592 94.7358,80.592 94,77.5C 91.518,75.5899 91.018,73.2565 92.5,70.5C 92.7486,71.5821 92.9152,72.9154 93,74.5C 93.4244,72.3855 94.5911,71.5521 96.5,72C 98.8632,74.0836 98.8632,75.917 96.5,77.5 Z"/></g>
<g><path style="opacity:1" fill="#b9ada6" d="M 19.5,65.5 C 20.1667,65.8333 20.8333,66.1667 21.5,66.5C 22.4959,66.4142 23.3292,66.7476 24,67.5C 25.1799,69.8599 26.3466,72.1932 27.5,74.5C 27.5,75.1667 27.5,75.8333 27.5,76.5C 26.2652,76.2786 25.2652,75.6119 24.5,74.5C 22.9596,76.3868 21.2929,78.2201 19.5,80C 18.552,80.4828 17.552,80.6495 16.5,80.5C 16.5,81.5 16.5,82.5 16.5,83.5C 14.8008,83.3398 13.1341,83.5065 11.5,84C 10.3147,85.353 8.98138,86.5197 7.5,87.5C 5.32037,85.9444 3.32037,84.2777 1.5,82.5C 1.54046,79.1194 1.20713,75.7861 0.5,72.5C 3.81421,71.2926 7.14755,71.2926 10.5,72.5C 15.3361,72.276 18.3361,69.9427 19.5,65.5 Z"/></g>
<g><path style="opacity:1" fill="#ac928f" d="M 60.5,73.5 C 61.4959,73.4142 62.3292,73.7476 63,74.5C 63.3333,76.1667 63.6667,77.8333 64,79.5C 65.3117,77.3424 66.9783,77.0091 69,78.5C 69.1482,80.9318 68.4815,82.9318 67,84.5C 68.5827,84.493 70.2494,84.8263 72,85.5C 72.6667,86.8333 72.6667,88.1667 72,89.5C 69.7908,89.9892 67.9575,90.9892 66.5,92.5C 65.5,92.5 64.5,92.5 63.5,92.5C 63.6567,91.1266 63.49,89.7932 63,88.5C 62.6667,88.8333 62.3333,89.1667 62,89.5C 61.9326,86.953 61.0993,84.7863 59.5,83C 59.8333,82.6667 60.1667,82.3333 60.5,82C 56.7351,80.6228 57.0684,79.6228 61.5,79C 60.8333,78.6667 60.1667,78.3333 59.5,78C 60.7112,77.1072 60.7112,76.2739 59.5,75.5C 58.7492,76.376 58.2492,77.376 58,78.5C 55.6304,75.2391 56.4638,73.5724 60.5,73.5 Z"/></g>
<g><path style="opacity:1" fill="#323851" d="M 135.5,77.5 C 137.017,91.1991 132.35,103.532 121.5,114.5C 120.373,109.052 122.373,104.886 127.5,102C 125.567,101.749 123.734,101.249 122,100.5C 121.333,101.167 120.667,101.833 120,102.5C 119.505,100.527 119.338,98.5273 119.5,96.5C 119.938,96.5654 120.272,96.3988 120.5,96C 119.584,95.6258 118.75,95.1258 118,94.5C 117.433,91.8323 116.933,89.1656 116.5,86.5C 116.333,81.7352 118.333,80.0686 122.5,81.5C 122.413,86.5365 122.746,91.5365 123.5,96.5C 122.224,97.3864 122.224,98.3864 123.5,99.5C 125.404,98.7434 125.737,97.7434 124.5,96.5C 123.979,92.5191 123.646,88.5191 123.5,84.5C 126.852,83.9916 129.852,82.6582 132.5,80.5C 127.479,76.4582 128.479,75.4582 135.5,77.5 Z"/></g>
<g><path style="opacity:1" fill="#dfbda8" d="M 24.5,46.5 C 25.1667,47.1667 25.8333,47.8333 26.5,48.5C 26.5,49.1667 26.8333,49.5 27.5,49.5C 29.1348,52.4303 30.4682,55.4303 31.5,58.5C 31.5,59.5 31.5,60.5 31.5,61.5C 36.087,61.2889 36.7536,62.7889 33.5,66C 34.2688,70.6025 36.9354,73.4359 41.5,74.5C 42.1924,73.9747 42.6924,73.3081 43,72.5C 45.3419,75.7544 48.5085,77.5877 52.5,78C 51.552,78.4828 50.552,78.6495 49.5,78.5C 48.7366,82.1378 50.0699,83.6378 53.5,83C 52.6163,80.011 53.1163,77.1777 55,74.5C 53.8687,76.9768 54.3687,79.1434 56.5,81C 55.8333,81.3333 55.1667,81.6667 54.5,82C 55.6226,83.0437 56.9559,83.7104 58.5,84C 57.4642,85.6169 56.2975,85.7836 55,84.5C 55.6487,86.8324 55.482,89.1657 54.5,91.5C 55.9492,92.1719 57.2825,92.8386 58.5,93.5C 55.8333,93.5 53.1667,93.5 50.5,93.5C 48.507,90.5737 47.1737,87.2404 46.5,83.5C 44.9913,81.5761 42.9913,80.4094 40.5,80C 39.7894,78.7453 38.956,77.5786 38,76.5C 37.5,77 37,77.5 36.5,78C 38.3665,81.6409 37.3665,83.3076 33.5,83C 32.6195,82.2917 31.9528,81.4584 31.5,80.5C 30.5679,76.9109 30.5679,73.0776 31.5,69C 26.9443,65.5588 25.611,61.0588 27.5,55.5C 25.6532,52.8011 24.6532,49.8011 24.5,46.5 Z"/></g>
<g><path style="opacity:1" fill="#5c5060" d="M 85.5,70.5 C 86.9526,71.8249 86.6192,72.6582 84.5,73C 87.7343,76.6327 90.0677,80.7993 91.5,85.5C 91.9569,86.2975 92.6236,86.6309 93.5,86.5C 93.5,87.8333 94.1667,88.5 95.5,88.5C 95.0919,89.6431 94.4252,90.6431 93.5,91.5C 86.9004,92.2661 83.067,95.9328 82,102.5C 81.6667,101.833 81.3333,101.167 81,100.5C 80.6667,105.833 80.3333,111.167 80,116.5C 78.395,120.276 75.5616,122.276 71.5,122.5C 69.5,120.833 67.5,119.167 65.5,117.5C 70.4235,112.655 74.0901,106.988 76.5,100.5C 78.0418,99.6993 79.7085,99.366 81.5,99.5C 81.2865,97.8561 81.6198,96.3561 82.5,95C 81.4366,93.8118 80.1033,93.3118 78.5,93.5C 76.3926,92.5318 74.0593,92.1984 71.5,92.5C 74.3639,89.1379 77.3639,85.9712 80.5,83C 79.2347,81.3437 77.9013,79.677 76.5,78C 79.5856,74.4895 78.919,72.3229 74.5,71.5C 72.5337,70.7455 72.2004,69.5788 73.5,68C 71.5,67.3333 70.1667,66 69.5,64C 72.2272,63.1816 74.8938,63.3483 77.5,64.5C 77.2907,65.086 76.9574,65.586 76.5,66C 77.9675,67.0975 78.8008,68.5975 79,70.5C 81.1177,68.2926 83.2844,68.2926 85.5,70.5 Z"/></g>
<g><path style="opacity:1" fill="#e7e7cf" d="M 93.5,86.5 C 94.1667,86.5 94.8333,86.5 95.5,86.5C 95.5,87.1667 95.5,87.8333 95.5,88.5C 94.1667,88.5 93.5,87.8333 93.5,86.5 Z"/></g>
<g><path style="opacity:1" fill="#ebd9c6" d="M 50.5,93.5 C 47.8333,93.5 45.1667,93.5 42.5,93.5C 45.4854,81.7767 42.4854,80.2767 33.5,89C 34.1984,89.9707 34.1984,91.1374 33.5,92.5C 34.8579,94.5032 36.1913,96.5032 37.5,98.5C 35.8583,100.081 33.8583,100.747 31.5,100.5C 31.6646,97.4816 31.498,94.4816 31,91.5C 29.6244,92.7051 28.4577,94.0384 27.5,95.5C 26.5,95.5 25.5,95.5 24.5,95.5C 22.5,95.5 20.5,95.5 18.5,95.5C 19.3331,93.2478 19.3331,91.0811 18.5,89C 20.2983,87.4947 22.1316,87.3281 24,88.5C 25.3513,86.981 26.8513,85.6477 28.5,84.5C 27.0921,83.7568 25.7588,82.9234 24.5,82C 25.7014,81.0975 26.5348,79.9308 27,78.5C 27.3333,79.1667 27.6667,79.8333 28,80.5C 28.2784,79.5842 28.7784,78.9175 29.5,78.5C 29.8333,79.5 30.5,80.1667 31.5,80.5C 31.9528,81.4584 32.6195,82.2917 33.5,83C 37.3665,83.3076 38.3665,81.6409 36.5,78C 37,77.5 37.5,77 38,76.5C 38.956,77.5786 39.7894,78.7453 40.5,80C 42.9913,80.4094 44.9913,81.5761 46.5,83.5C 47.1737,87.2404 48.507,90.5737 50.5,93.5 Z"/></g>
<g><path style="opacity:1" fill="#d0b8aa" d="M 27.5,76.5 C 28.5,76.8333 29.1667,77.5 29.5,78.5C 28.7784,78.9175 28.2784,79.5842 28,80.5C 27.6667,79.8333 27.3333,79.1667 27,78.5C 26.5348,79.9308 25.7014,81.0975 24.5,82C 25.7588,82.9234 27.0921,83.7568 28.5,84.5C 26.8513,85.6477 25.3513,86.981 24,88.5C 22.1316,87.3281 20.2983,87.4947 18.5,89C 19.3331,91.0811 19.3331,93.2478 18.5,95.5C 20.5,95.5 22.5,95.5 24.5,95.5C 24.5,95.8333 24.5,96.1667 24.5,96.5C 21.9528,97.8789 21.9528,99.5456 24.5,101.5C 23.9422,104.127 22.9422,106.46 21.5,108.5C 20.5269,106.052 20.1936,103.385 20.5,100.5C 16.5,100.5 12.5,100.5 8.5,100.5C 8.3215,97.7835 7.8215,95.1168 7,92.5C 6.02278,91.2264 5.18944,91.2264 4.5,92.5C 3.51127,89.2737 2.51127,85.9404 1.5,82.5C 3.32037,84.2777 5.32037,85.9444 7.5,87.5C 8.98138,86.5197 10.3147,85.353 11.5,84C 13.1341,83.5065 14.8008,83.3398 16.5,83.5C 16.5,82.5 16.5,81.5 16.5,80.5C 17.552,80.6495 18.552,80.4828 19.5,80C 21.2929,78.2201 22.9596,76.3868 24.5,74.5C 25.2652,75.6119 26.2652,76.2786 27.5,76.5 Z"/></g>
<g><path style="opacity:1" fill="#eae4cd" d="M 50.5,93.5 C 53.1667,93.5 55.8333,93.5 58.5,93.5C 65.1667,93.5 71.8333,93.5 78.5,93.5C 80.1033,93.3118 81.4366,93.8118 82.5,95C 81.6198,96.3561 81.2865,97.8561 81.5,99.5C 79.7085,99.366 78.0418,99.6993 76.5,100.5C 74.1667,100.5 71.8333,100.5 69.5,100.5C 68.1667,100.5 66.8333,100.5 65.5,100.5C 62.5,100.5 59.5,100.5 56.5,100.5C 55.8333,100.5 55.1667,100.5 54.5,100.5C 50.1667,100.5 45.8333,100.5 41.5,100.5C 39.5168,100.843 38.1834,100.176 37.5,98.5C 36.1913,96.5032 34.8579,94.5032 33.5,92.5C 34.1984,91.1374 34.1984,89.9707 33.5,89C 42.4854,80.2767 45.4854,81.7767 42.5,93.5C 45.1667,93.5 47.8333,93.5 50.5,93.5 Z"/></g>
<g><path style="opacity:1" fill="#a7aaa3" d="M 123.5,96.5 C 123.833,96.5 124.167,96.5 124.5,96.5C 125.737,97.7434 125.404,98.7434 123.5,99.5C 122.224,98.3864 122.224,97.3864 123.5,96.5 Z"/></g>
<g><path style="opacity:1" fill="#c38a7a" d="M 24.5,96.5 C 25.7868,97.8714 26.4535,99.7047 26.5,102C 26.3333,103.833 26.1667,105.667 26,107.5C 24.0633,110.613 21.8966,113.613 19.5,116.5C 18.5,116.167 17.8333,115.5 17.5,114.5C 19.2255,112.772 20.5589,110.772 21.5,108.5C 22.9422,106.46 23.9422,104.127 24.5,101.5C 21.9528,99.5456 21.9528,97.8789 24.5,96.5 Z"/></g>
<g><path style="opacity:1" fill="#d4b8a9" d="M 41.5,100.5 C 45.8333,100.5 50.1667,100.5 54.5,100.5C 54.5,101.5 54.5,102.5 54.5,103.5C 49.4526,102.865 45.786,104.865 43.5,109.5C 42.2638,110.246 40.9305,110.579 39.5,110.5C 40.1098,109.609 40.4431,108.609 40.5,107.5C 41.3686,105.283 41.702,102.95 41.5,100.5 Z"/></g>
<g><path style="opacity:1" fill="#f3cfb2" d="M 37.5,98.5 C 38.1834,100.176 39.5168,100.843 41.5,100.5C 41.702,102.95 41.3686,105.283 40.5,107.5C 39.2652,107.721 38.2652,108.388 37.5,109.5C 36.914,109.291 36.414,108.957 36,108.5C 33.6647,111.166 31.8314,114.166 30.5,117.5C 28.8333,118.833 27.1667,118.833 25.5,117.5C 26.0652,111.794 27.3986,106.294 29.5,101C 29.6068,98.7794 28.9402,96.9461 27.5,95.5C 28.4577,94.0384 29.6244,92.7051 31,91.5C 31.498,94.4816 31.6646,97.4816 31.5,100.5C 33.8583,100.747 35.8583,100.081 37.5,98.5 Z"/></g>
<g><path style="opacity:1" fill="#312f45" d="M 106.5,91.5 C 104.147,93.1013 101.98,95.1013 100,97.5C 97.3366,101.661 95.0032,105.994 93,110.5C 93.5423,112.88 94.0423,115.88 94.5,119.5C 92.7344,124.428 93.7344,128.761 97.5,132.5C 90.0046,136.041 82.0046,138.041 73.5,138.5C 76.529,134.637 80.029,131.304 84,128.5C 87.0067,119.457 88.3401,110.123 88,100.5C 92.3425,97.6495 96.1758,94.1495 99.5,90C 102.058,89.7247 104.392,90.2247 106.5,91.5 Z"/></g>
<g><path style="opacity:1" fill="#283351" d="M 110.5,96.5 C 111.261,97.3909 112.261,98.0576 113.5,98.5C 115.325,97.3489 117.325,96.6822 119.5,96.5C 119.338,98.5273 119.505,100.527 120,102.5C 120.667,101.833 121.333,101.167 122,100.5C 123.734,101.249 125.567,101.749 127.5,102C 122.373,104.886 120.373,109.052 121.5,114.5C 118.167,118.5 114.5,122.167 110.5,125.5C 107.617,120.897 105.284,115.897 103.5,110.5C 105.088,105.306 107.421,100.64 110.5,96.5 Z"/></g>
<g><path style="opacity:1" fill="#e2a99a" d="M 21.5,108.5 C 20.5589,110.772 19.2255,112.772 17.5,114.5C 11.6448,108.132 7.3115,100.798 4.5,92.5C 5.18944,91.2264 6.02278,91.2264 7,92.5C 7.8215,95.1168 8.3215,97.7835 8.5,100.5C 12.5,100.5 16.5,100.5 20.5,100.5C 20.1936,103.385 20.5269,106.052 21.5,108.5 Z"/></g>
<g><path style="opacity:1" fill="#886c74" d="M 65.5,100.5 C 66.8333,100.5 68.1667,100.5 69.5,100.5C 69.5086,102.308 69.0086,103.975 68,105.5C 64.3745,108.824 60.7078,112.157 57,115.5C 53.1993,123.378 47.0326,127.545 38.5,128C 37.6195,128.708 36.9528,129.542 36.5,130.5C 34.6675,129.752 33.0009,128.752 31.5,127.5C 32.5,125.833 33.8333,124.5 35.5,123.5C 40.9007,124.034 45.9007,122.867 50.5,120C 52.1022,118.065 53.2689,115.899 54,113.5C 58.4358,109.572 62.2692,105.239 65.5,100.5 Z"/></g>
<g><path style="opacity:1" fill="#ba9d98" d="M 54.5,100.5 C 55.1667,100.5 55.8333,100.5 56.5,100.5C 56.5086,102.308 56.0086,103.975 55,105.5C 50.7811,108.052 47.6145,111.552 45.5,116C 42.5107,117.273 39.5107,118.439 36.5,119.5C 37.304,116.421 38.304,113.421 39.5,110.5C 40.9305,110.579 42.2638,110.246 43.5,109.5C 45.786,104.865 49.4526,102.865 54.5,103.5C 54.5,102.5 54.5,101.5 54.5,100.5 Z"/></g>
<g><path style="opacity:1" fill="#24243e" d="M 106.5,91.5 C 106.774,93.9806 108.107,95.6473 110.5,96.5C 107.421,100.64 105.088,105.306 103.5,110.5C 105.284,115.897 107.617,120.897 110.5,125.5C 106.618,128.609 102.284,130.942 97.5,132.5C 93.7344,128.761 92.7344,124.428 94.5,119.5C 94.0423,115.88 93.5423,112.88 93,110.5C 95.0032,105.994 97.3366,101.661 100,97.5C 101.98,95.1013 104.147,93.1013 106.5,91.5 Z"/></g>
<g><path style="opacity:1" fill="#e7b8a0" d="M 24.5,96.5 C 24.5,96.1667 24.5,95.8333 24.5,95.5C 25.5,95.5 26.5,95.5 27.5,95.5C 28.9402,96.9461 29.6068,98.7794 29.5,101C 27.3986,106.294 26.0652,111.794 25.5,117.5C 27.1667,118.833 28.8333,118.833 30.5,117.5C 31.8314,114.166 33.6647,111.166 36,108.5C 36.414,108.957 36.914,109.291 37.5,109.5C 38.2652,108.388 39.2652,107.721 40.5,107.5C 40.4431,108.609 40.1098,109.609 39.5,110.5C 38.304,113.421 37.304,116.421 36.5,119.5C 36.1667,120.833 35.8333,122.167 35.5,123.5C 33.8333,124.5 32.5,125.833 31.5,127.5C 26.8019,124.463 22.8019,120.797 19.5,116.5C 21.8966,113.613 24.0633,110.613 26,107.5C 26.1667,105.667 26.3333,103.833 26.5,102C 26.4535,99.7047 25.7868,97.8714 24.5,96.5 Z"/></g>
<g><path style="opacity:1" fill="#9e8284" d="M 56.5,100.5 C 59.5,100.5 62.5,100.5 65.5,100.5C 62.2692,105.239 58.4358,109.572 54,113.5C 53.2689,115.899 52.1022,118.065 50.5,120C 45.9007,122.867 40.9007,124.034 35.5,123.5C 35.8333,122.167 36.1667,120.833 36.5,119.5C 39.5107,118.439 42.5107,117.273 45.5,116C 47.6145,111.552 50.7811,108.052 55,105.5C 56.0086,103.975 56.5086,102.308 56.5,100.5 Z"/></g>
<g><path style="opacity:1" fill="#3e3a4f" d="M 96.5,77.5 C 97.5,77.5 98.5,77.5 99.5,77.5C 102.479,79.8123 105.146,82.4789 107.5,85.5C 110.428,86.4841 113.428,86.8174 116.5,86.5C 116.933,89.1656 117.433,91.8323 118,94.5C 118.75,95.1258 119.584,95.6258 120.5,96C 120.272,96.3988 119.938,96.5654 119.5,96.5C 117.325,96.6822 115.325,97.3489 113.5,98.5C 112.261,98.0576 111.261,97.3909 110.5,96.5C 108.107,95.6473 106.774,93.9806 106.5,91.5C 104.392,90.2247 102.058,89.7247 99.5,90C 96.1758,94.1495 92.3425,97.6495 88,100.5C 88.3401,110.123 87.0067,119.457 84,128.5C 80.029,131.304 76.529,134.637 73.5,138.5C 69.1667,138.5 64.8333,138.5 60.5,138.5C 60.4142,137.504 60.7476,136.671 61.5,136C 64.04,133.993 66.7067,133.327 69.5,134C 70.1667,132.667 71.1667,131.667 72.5,131C 69.9557,129.437 69.9557,127.937 72.5,126.5C 71.3349,125.416 70.0016,124.583 68.5,124C 69.5266,123.487 70.5266,122.987 71.5,122.5C 75.5616,122.276 78.395,120.276 80,116.5C 80.3333,111.167 80.6667,105.833 81,100.5C 81.3333,101.167 81.6667,101.833 82,102.5C 83.067,95.9328 86.9004,92.2661 93.5,91.5C 94.4252,90.6431 95.0919,89.6431 95.5,88.5C 95.5,87.8333 95.5,87.1667 95.5,86.5C 95.19,83.2869 95.5233,80.2869 96.5,77.5 Z"/></g>
<g><path style="opacity:1" fill="#afafa6" d="M 111.5,90.5 C 113.121,90.7869 114.121,91.7869 114.5,93.5C 113.167,94.8333 111.833,94.8333 110.5,93.5C 111.127,92.5832 111.461,91.5832 111.5,90.5 Z"/></g>
<g><path style="opacity:1" fill="#6e5763" d="M 69.5,100.5 C 71.8333,100.5 74.1667,100.5 76.5,100.5C 74.0901,106.988 70.4235,112.655 65.5,117.5C 60.7287,121.769 56.062,126.269 51.5,131C 51.8541,132.626 51.8541,134.459 51.5,136.5C 46.1763,135.282 41.1763,133.282 36.5,130.5C 36.9528,129.542 37.6195,128.708 38.5,128C 47.0326,127.545 53.1993,123.378 57,115.5C 60.7078,112.157 64.3745,108.824 68,105.5C 69.0086,103.975 69.5086,102.308 69.5,100.5 Z"/></g>
<g><path style="opacity:1" fill="#524253" d="M 65.5,117.5 C 67.5,119.167 69.5,120.833 71.5,122.5C 70.5266,122.987 69.5266,123.487 68.5,124C 70.0016,124.583 71.3349,125.416 72.5,126.5C 69.9557,127.937 69.9557,129.437 72.5,131C 71.1667,131.667 70.1667,132.667 69.5,134C 66.7067,133.327 64.04,133.993 61.5,136C 60.7476,136.671 60.4142,137.504 60.5,138.5C 57.3704,138.3 54.3704,137.634 51.5,136.5C 51.8541,134.459 51.8541,132.626 51.5,131C 56.062,126.269 60.7287,121.769 65.5,117.5 Z"/></g>
</svg>
