<?xml version="1.0" encoding="UTF-8"?>
<!DOCTYPE svg PUBLIC "-//W3C//DTD SVG 1.1//EN" "http://www.w3.org/Graphics/SVG/1.1/DTD/svg11.dtd">
<svg xmlns="http://www.w3.org/2000/svg" version="1.1" width="141px" height="141px" style="shape-rendering:geometricPrecision; text-rendering:geometricPrecision; image-rendering:optimizeQuality; fill-rule:evenodd; clip-rule:evenodd" xmlns:xlink="http://www.w3.org/1999/xlink">
<g><path style="opacity:0.585" fill="#e1e1e1" d="M 60.5,-0.5 C 66.5,-0.5 72.5,-0.5 78.5,-0.5C 93.4705,1.82159 106.47,8.15492 117.5,18.5C 116.833,18.5 116.5,18.8333 116.5,19.5C 113.365,16.0994 109.698,13.4327 105.5,11.5C 105.158,10.6618 104.492,10.3284 103.5,10.5C 95.4053,5.91263 86.7387,2.91263 77.5,1.5C 76.6054,6.47408 76.6054,11.4741 77.5,16.5C 76.8333,16.5 76.5,16.1667 76.5,15.5C 75.6864,10.8809 75.3531,6.21425 75.5,1.5C 65.731,0.763188 56.3977,2.09652 47.5,5.5C 47.1667,5.5 46.8333,5.5 46.5,5.5C 42.1822,6.99222 38.1822,8.99222 34.5,11.5C 31.91,12.1283 29.5766,13.295 27.5,15C 24.9638,17.705 22.2971,20.205 19.5,22.5C 19.5,21.8333 19.1667,21.5 18.5,21.5C 29.9974,9.41768 43.9974,2.08434 60.5,-0.5 Z M 76.5,15.5 C 75.8333,15.5 75.1667,15.5 74.5,15.5C 65.6134,11.8914 56.6134,8.55802 47.5,5.5C 56.3977,2.09652 65.731,0.763188 75.5,1.5C 75.3531,6.21425 75.6864,10.8809 76.5,15.5 Z M 103.5,10.5 C 101.5,11.5 99.5,12.5 97.5,13.5C 92.6766,14.7741 88.0099,16.4408 83.5,18.5C 81.4214,18.0293 79.4214,17.3627 77.5,16.5C 76.6054,11.4741 76.6054,6.47408 77.5,1.5C 86.7387,2.91263 95.4053,5.91263 103.5,10.5 Z M 46.5,5.5 C 44.6864,10.2829 42.6864,14.9496 40.5,19.5C 40.1667,19.5 39.8333,19.5 39.5,19.5C 38.3065,18.7281 37.3065,17.7281 36.5,16.5C 37.045,14.6011 36.3784,12.9345 34.5,11.5C 38.1822,8.99222 42.1822,6.99222 46.5,5.5 Z"/></g>
<g><path style="opacity:1" fill="#81cceb" d="M 46.5,5.5 C 46.8333,5.5 47.1667,5.5 47.5,5.5C 56.6134,8.55802 65.6134,11.8914 74.5,15.5C 74.5,16.8333 74.5,18.1667 74.5,19.5C 71.6075,20.523 68.7742,20.523 66,19.5C 65.1162,22.0583 63.6162,24.0583 61.5,25.5C 54.7126,22.5844 47.7126,20.5844 40.5,19.5C 42.6864,14.9496 44.6864,10.2829 46.5,5.5 Z"/></g>
<g><path style="opacity:0.998" fill="#72b4ea" d="M 74.5,15.5 C 75.1667,15.5 75.8333,15.5 76.5,15.5C 76.5,16.1667 76.8333,16.5 77.5,16.5C 79.4214,17.3627 81.4214,18.0293 83.5,18.5C 82.6515,21.6811 80.9848,24.3477 78.5,26.5C 74.9408,26.2845 71.4408,26.6178 68,27.5C 65.7752,26.904 63.6085,26.2374 61.5,25.5C 63.6162,24.0583 65.1162,22.0583 66,19.5C 68.7742,20.523 71.6075,20.523 74.5,19.5C 74.5,18.1667 74.5,16.8333 74.5,15.5 Z"/></g>
<g><path style="opacity:1" fill="#565657" d="M 97.5,13.5 C 97.0223,15.9171 96.0223,18.0838 94.5,20C 96.8843,22.0243 97.051,24.1909 95,26.5C 93.9032,24.9474 92.5699,23.614 91,22.5C 89.2663,23.2489 87.433,23.7489 85.5,24C 84.1772,24.8159 83.5106,25.9826 83.5,27.5C 81.7839,27.3713 80.1172,27.038 78.5,26.5C 80.9848,24.3477 82.6515,21.6811 83.5,18.5C 88.0099,16.4408 92.6766,14.7741 97.5,13.5 Z"/></g>
<g><path style="opacity:1" fill="#323232" d="M 34.5,11.5 C 36.3784,12.9345 37.045,14.6011 36.5,16.5C 31.5404,18.3171 27.2071,21.1505 23.5,25C 25.1884,26.6884 26.8551,28.3551 28.5,30C 29.5184,34.2587 31.1851,38.092 33.5,41.5C 35.2975,45.2398 36.2975,49.2398 36.5,53.5C 36.1667,53.5 35.8333,53.5 35.5,53.5C 35.0354,48.57 33.0354,44.57 29.5,41.5C 28.0283,34.1768 24.3616,28.5102 18.5,24.5C 18.3284,23.5084 18.6618,22.8417 19.5,22.5C 22.2971,20.205 24.9638,17.705 27.5,15C 29.5766,13.295 31.91,12.1283 34.5,11.5 Z"/></g>
<g><path style="opacity:1" fill="#272727" d="M 105.5,11.5 C 109.698,13.4327 113.365,16.0994 116.5,19.5C 117.338,19.8417 117.672,20.5084 117.5,21.5C 115.512,24.1283 113.512,26.795 111.5,29.5C 108.513,29.9978 105.513,30.4978 102.5,31C 101.29,32.0391 100.29,33.2058 99.5,34.5C 98.7109,34.7828 98.0442,35.2828 97.5,36C 100.791,38.332 101.291,41.1653 99,44.5C 98.1376,42.913 97.4709,41.2464 97,39.5C 95.9887,38.6634 94.8221,38.33 93.5,38.5C 92.7627,32.1421 95.0961,27.3088 100.5,24C 99.5294,22.7964 98.5294,22.2964 97.5,22.5C 99.5272,19.7789 101.027,16.7789 102,13.5C 103.113,12.695 104.279,12.0283 105.5,11.5 Z"/></g>
<g><path style="opacity:1" fill="#bebfbf" d="M 39.5,19.5 C 39.8333,19.5 40.1667,19.5 40.5,19.5C 47.7126,20.5844 54.7126,22.5844 61.5,25.5C 63.6085,26.2374 65.7752,26.904 68,27.5C 71.4408,26.6178 74.9408,26.2845 78.5,26.5C 78.5,26.8333 78.5,27.1667 78.5,27.5C 75.5755,27.4598 72.9088,28.2932 70.5,30C 71.448,30.4828 72.448,30.6495 73.5,30.5C 73.3487,35.4836 71.3487,35.6502 67.5,31C 62.2751,29.4452 56.9418,28.4452 51.5,28C 52.5914,30.0639 52.7581,32.2305 52,34.5C 47.9538,37.045 44.7871,40.3783 42.5,44.5C 40.5954,47.3037 38.9287,50.3037 37.5,53.5C 37.1667,53.5 36.8333,53.5 36.5,53.5C 36.2975,49.2398 35.2975,45.2398 33.5,41.5C 32.8379,37.5341 32.5045,33.5341 32.5,29.5C 34.5972,29.9967 36.4305,30.33 38,30.5C 37.7832,26.8518 38.2832,23.1851 39.5,19.5 Z"/></g>
<g><path style="opacity:1" fill="#a0a0a0" d="M 36.5,16.5 C 37.3065,17.7281 38.3065,18.7281 39.5,19.5C 38.2832,23.1851 37.7832,26.8518 38,30.5C 36.4305,30.33 34.5972,29.9967 32.5,29.5C 32.5045,33.5341 32.8379,37.5341 33.5,41.5C 31.1851,38.092 29.5184,34.2587 28.5,30C 26.8551,28.3551 25.1884,26.6884 23.5,25C 27.2071,21.1505 31.5404,18.3171 36.5,16.5 Z"/></g>
<g><path style="opacity:1" fill="#6e6d6e" d="M 78.5,27.5 C 78.0825,28.2216 77.4158,28.7216 76.5,29C 78.3008,29.3173 78.6341,29.984 77.5,31C 79.5384,32.236 80.7051,34.0694 81,36.5C 83.6305,36.8592 85.7971,37.8592 87.5,39.5C 86.5806,42.0892 84.914,44.0892 82.5,45.5C 83.9492,46.1719 85.2825,46.8386 86.5,47.5C 85.1779,47.33 84.0113,47.6634 83,48.5C 83.0187,50.1075 83.1854,51.7741 83.5,53.5C 84.5,53.5 85.5,53.5 86.5,53.5C 86.3893,54.1174 86.056,54.6174 85.5,55C 88.3665,56.9006 90.3665,59.4006 91.5,62.5C 89.9232,64.645 88.2565,64.3116 86.5,61.5C 85.1667,63.1667 83.8333,64.8333 82.5,66.5C 81.5159,63.5719 81.1826,60.5719 81.5,57.5C 83.9965,55.4424 83.3298,54.2757 79.5,54C 76.6851,51.4794 77.0184,49.8127 80.5,49C 78.0087,48.3741 78.0087,47.5407 80.5,46.5C 78.605,41.2752 77.605,41.6086 77.5,47.5C 74.8559,47.8399 72.5225,47.1733 70.5,45.5C 69.1431,47.1856 67.8098,48.8523 66.5,50.5C 65.4878,48.0357 63.6545,46.369 61,45.5C 59.6346,46.5929 59.3013,47.9262 60,49.5C 61.2975,48.2164 62.4642,48.3831 63.5,50C 60.8185,50.6637 58.4852,49.997 56.5,48C 58.4641,46.549 59.7974,44.7157 60.5,42.5C 63.9297,42.1065 67.0964,42.7732 70,44.5C 72.8249,43.4158 72.9915,42.2492 70.5,41C 71.7487,39.1759 72.9153,39.3426 74,41.5C 76.1718,40.4911 77.3385,38.8244 77.5,36.5C 71.3989,38.7011 65.0656,40.0344 58.5,40.5C 58.9704,39.3065 59.9704,38.6399 61.5,38.5C 66.0225,38.1101 70.3558,37.1101 74.5,35.5C 74.7845,33.5853 74.4511,31.9187 73.5,30.5C 72.448,30.6495 71.448,30.4828 70.5,30C 72.9088,28.2932 75.5755,27.4598 78.5,27.5 Z"/></g>
<g><path style="opacity:1" fill="#878888" d="M 78.5,26.5 C 80.1172,27.038 81.7839,27.3713 83.5,27.5C 86.8524,27.7837 89.8524,28.9504 92.5,31C 90.2443,33.4848 90.2443,35.8182 92.5,38C 91.2572,40.3026 89.5906,40.8026 87.5,39.5C 85.7971,37.8592 83.6305,36.8592 81,36.5C 80.7051,34.0694 79.5384,32.236 77.5,31C 78.6341,29.984 78.3008,29.3173 76.5,29C 77.4158,28.7216 78.0825,28.2216 78.5,27.5C 78.5,27.1667 78.5,26.8333 78.5,26.5 Z"/></g>
<g><path style="opacity:1" fill="#6cacea" d="M 111.5,29.5 C 117.178,31.5037 122.845,33.5037 128.5,35.5C 128.5,36.1667 128.833,36.5 129.5,36.5C 131.957,39.7512 133.624,43.4179 134.5,47.5C 130.526,51.1384 126.526,54.8051 122.5,58.5C 117.49,49.6493 111.49,41.4826 104.5,34C 103.072,33.4209 101.738,33.5876 100.5,34.5C 100.167,34.5 99.8333,34.5 99.5,34.5C 100.29,33.2058 101.29,32.0391 102.5,31C 105.513,30.4978 108.513,29.9978 111.5,29.5 Z"/></g>
<g><path style="opacity:1" fill="#9c9ea0" d="M 73.5,30.5 C 74.4511,31.9187 74.7845,33.5853 74.5,35.5C 70.3558,37.1101 66.0225,38.1101 61.5,38.5C 59.9704,38.6399 58.9704,39.3065 58.5,40.5C 53.0237,41.2024 47.6904,42.5357 42.5,44.5C 44.7871,40.3783 47.9538,37.045 52,34.5C 52.7581,32.2305 52.5914,30.0639 51.5,28C 56.9418,28.4452 62.2751,29.4452 67.5,31C 71.3487,35.6502 73.3487,35.4836 73.5,30.5 Z"/></g>
<g><path style="opacity:1" fill="#3d3c3d" d="M 103.5,10.5 C 104.492,10.3284 105.158,10.6618 105.5,11.5C 104.279,12.0283 103.113,12.695 102,13.5C 101.027,16.7789 99.5272,19.7789 97.5,22.5C 98.5294,22.2964 99.5294,22.7964 100.5,24C 95.0961,27.3088 92.7627,32.1421 93.5,38.5C 94.8221,38.33 95.9887,38.6634 97,39.5C 97.4709,41.2464 98.1376,42.913 99,44.5C 101.291,41.1653 100.791,38.332 97.5,36C 98.0442,35.2828 98.7109,34.7828 99.5,34.5C 99.8333,34.5 100.167,34.5 100.5,34.5C 108.189,39.5316 113.189,46.5316 115.5,55.5C 115.333,56.1667 115.167,56.8333 115,57.5C 114.077,56.2412 113.243,54.9079 112.5,53.5C 111.808,54.0253 111.308,54.6919 111,55.5C 110.129,51.4861 107.629,49.4861 103.5,49.5C 102.193,48.8466 100.86,48.1799 99.5,47.5C 98.8076,48.0253 98.3076,48.6919 98,49.5C 94.2549,48.5116 90.4216,47.845 86.5,47.5C 85.2825,46.8386 83.9492,46.1719 82.5,45.5C 84.914,44.0892 86.5806,42.0892 87.5,39.5C 89.5906,40.8026 91.2572,40.3026 92.5,38C 90.2443,35.8182 90.2443,33.4848 92.5,31C 89.8524,28.9504 86.8524,27.7837 83.5,27.5C 83.5106,25.9826 84.1772,24.8159 85.5,24C 87.433,23.7489 89.2663,23.2489 91,22.5C 92.5699,23.614 93.9032,24.9474 95,26.5C 97.051,24.1909 96.8843,22.0243 94.5,20C 96.0223,18.0838 97.0223,15.9171 97.5,13.5C 99.5,12.5 101.5,11.5 103.5,10.5 Z"/></g>
<g><path style="opacity:1" fill="#474748" d="M 60.5,42.5 C 58.8297,42.7512 57.3297,43.4178 56,44.5C 55.6012,44.2716 55.4346,43.9382 55.5,43.5C 56.6935,42.7281 57.6935,41.7281 58.5,40.5C 65.0656,40.0344 71.3989,38.7011 77.5,36.5C 77.3385,38.8244 76.1718,40.4911 74,41.5C 72.9153,39.3426 71.7487,39.1759 70.5,41C 72.9915,42.2492 72.8249,43.4158 70,44.5C 67.0964,42.7732 63.9297,42.1065 60.5,42.5 Z"/></g>
<g><path style="opacity:1" fill="#8d8d8e" d="M 102.5,40.5 C 103.708,41.2341 105.041,41.5674 106.5,41.5C 106.705,44.1143 106.705,46.4476 106.5,48.5C 103.618,46.6326 102.285,43.966 102.5,40.5 Z"/></g>
<g><path style="opacity:1" fill="#79bee5" d="M 29.5,41.5 C 33.0354,44.57 35.0354,48.57 35.5,53.5C 34.0779,53.2504 33.0779,52.417 32.5,51C 30.1152,50.4436 27.7819,50.6103 25.5,51.5C 26.6389,48.082 27.9723,44.7487 29.5,41.5 Z"/></g>
<g><path style="opacity:1" fill="#8b8b8b" d="M 86.5,47.5 C 90.4216,47.845 94.2549,48.5116 98,49.5C 98.3076,48.6919 98.8076,48.0253 99.5,47.5C 100.86,48.1799 102.193,48.8466 103.5,49.5C 102.766,50.7079 102.433,52.0413 102.5,53.5C 99.7607,53.2934 97.4274,52.2934 95.5,50.5C 92.826,52.5025 89.826,53.5025 86.5,53.5C 85.5,53.5 84.5,53.5 83.5,53.5C 83.1854,51.7741 83.0187,50.1075 83,48.5C 84.0113,47.6634 85.1779,47.33 86.5,47.5 Z"/></g>
<g><path style="opacity:0.633" fill="#e9e9e9" d="M 116.5,19.5 C 116.5,18.8333 116.833,18.5 117.5,18.5C 137.696,38.6023 144.196,62.6023 137,90.5C 134.273,99.633 129.773,107.633 123.5,114.5C 123.5,113.833 123.5,113.167 123.5,112.5C 128.438,106.212 132.105,99.2115 134.5,91.5C 135.869,88.7016 136.869,85.7016 137.5,82.5C 137.634,80.7085 137.301,79.0418 136.5,77.5C 137.687,75.2598 138.354,72.7598 138.5,70C 137.941,65.1286 137.274,60.2953 136.5,55.5C 136.784,53.5853 136.451,51.9187 135.5,50.5C 135.737,49.209 135.404,48.209 134.5,47.5C 133.624,43.4179 131.957,39.7512 129.5,36.5C 128.833,36.5 128.5,36.1667 128.5,35.5C 125.565,30.235 121.899,25.5683 117.5,21.5C 117.672,20.5084 117.338,19.8417 116.5,19.5 Z"/></g>
<g><path style="opacity:1" fill="#636363" d="M 58.5,40.5 C 57.6935,41.7281 56.6935,42.7281 55.5,43.5C 48.6024,44.7957 48.2691,45.9624 54.5,47C 53.4844,47.5194 52.8178,48.3527 52.5,49.5C 53.4471,51.4002 54.9471,52.7335 57,53.5C 57.6514,55.235 57.4847,56.9017 56.5,58.5C 58.0072,59.7388 59.1739,59.4054 60,57.5C 60.5,58 61,58.5 61.5,59C 59.404,59.7365 57.7373,60.9032 56.5,62.5C 52.9891,62.8994 49.6557,63.5661 46.5,64.5C 43.6983,65.0126 40.6983,66.0126 37.5,67.5C 36.8933,67.3764 36.56,67.0431 36.5,66.5C 39.1517,64.7108 42.1517,63.7108 45.5,63.5C 45.822,61.2776 45.1554,59.4443 43.5,58C 47.8485,53.3372 47.1818,52.5039 41.5,55.5C 40.798,53.5331 40.798,51.8665 41.5,50.5C 40.3578,51.8262 39.0245,52.8262 37.5,53.5C 38.9287,50.3037 40.5954,47.3037 42.5,44.5C 47.6904,42.5357 53.0237,41.2024 58.5,40.5 Z"/></g>
<g><path style="opacity:1" fill="#adadae" d="M 81.5,57.5 C 80.5,56.1667 79.5,56.1667 78.5,57.5C 77.5041,57.4142 76.6708,57.7476 76,58.5C 75.6667,57.8333 75.3333,57.1667 75,56.5C 74.5685,59.0724 73.0685,60.4057 70.5,60.5C 68.0372,60.2189 65.8705,59.2189 64,57.5C 63.6667,57.8333 63.3333,58.1667 63,58.5C 63.0187,56.8925 63.1854,55.2259 63.5,53.5C 64.675,53.719 65.675,53.3857 66.5,52.5C 67.5498,51.5712 67.5498,50.9046 66.5,50.5C 67.8098,48.8523 69.1431,47.1856 70.5,45.5C 72.5225,47.1733 74.8559,47.8399 77.5,47.5C 77.605,41.6086 78.605,41.2752 80.5,46.5C 78.0087,47.5407 78.0087,48.3741 80.5,49C 77.0184,49.8127 76.6851,51.4794 79.5,54C 83.3298,54.2757 83.9965,55.4424 81.5,57.5 Z"/></g>
<g><path style="opacity:1" fill="#89d4ec" d="M 134.5,47.5 C 135.404,48.209 135.737,49.209 135.5,50.5C 130.855,53.1453 127.188,56.8119 124.5,61.5C 123.599,60.7095 122.932,59.7095 122.5,58.5C 126.526,54.8051 130.526,51.1384 134.5,47.5 Z"/></g>
<g><path style="opacity:1" fill="#bababa" d="M 35.5,53.5 C 35.8333,53.5 36.1667,53.5 36.5,53.5C 36.8333,53.5 37.1667,53.5 37.5,53.5C 39.0245,52.8262 40.3578,51.8262 41.5,50.5C 40.798,51.8665 40.798,53.5331 41.5,55.5C 47.1818,52.5039 47.8485,53.3372 43.5,58C 45.1554,59.4443 45.822,61.2776 45.5,63.5C 42.1517,63.7108 39.1517,64.7108 36.5,66.5C 35.089,68.539 33.089,69.539 30.5,69.5C 31.1126,65.4877 29.4459,63.4877 25.5,63.5C 24.9403,59.7787 22.7737,57.4454 19,56.5C 15.9437,58.0984 13.4437,60.2651 11.5,63C 9.53722,63.8442 8.20389,63.3442 7.5,61.5C 12.7724,56.9027 18.7724,53.5693 25.5,51.5C 27.7819,50.6103 30.1152,50.4436 32.5,51C 33.0779,52.417 34.0779,53.2504 35.5,53.5 Z"/></g>
<g><path style="opacity:1" fill="#a0a0a1" d="M 60.5,42.5 C 59.7974,44.7157 58.4641,46.549 56.5,48C 58.4852,49.997 60.8185,50.6637 63.5,50C 62.4642,48.3831 61.2975,48.2164 60,49.5C 59.3013,47.9262 59.6346,46.5929 61,45.5C 63.6545,46.369 65.4878,48.0357 66.5,50.5C 67.5498,50.9046 67.5498,51.5712 66.5,52.5C 65.675,53.3857 64.675,53.719 63.5,53.5C 63.1854,55.2259 63.0187,56.8925 63,58.5C 63.3333,58.1667 63.6667,57.8333 64,57.5C 65.8705,59.2189 68.0372,60.2189 70.5,60.5C 69.044,62.2845 68.044,64.2845 67.5,66.5C 66.0534,67.8072 65.3867,69.1405 65.5,70.5C 64.4495,69.1152 63.1161,68.1152 61.5,67.5C 61.3019,64.2148 59.6352,62.5482 56.5,62.5C 57.7373,60.9032 59.404,59.7365 61.5,59C 61,58.5 60.5,58 60,57.5C 59.1739,59.4054 58.0072,59.7388 56.5,58.5C 57.4847,56.9017 57.6514,55.235 57,53.5C 54.9471,52.7335 53.4471,51.4002 52.5,49.5C 52.8178,48.3527 53.4844,47.5194 54.5,47C 48.2691,45.9624 48.6024,44.7957 55.5,43.5C 55.4346,43.9382 55.6012,44.2716 56,44.5C 57.3297,43.4178 58.8297,42.7512 60.5,42.5 Z"/></g>
<g><path style="opacity:1" fill="#616162" d="M 122.5,58.5 C 122.932,59.7095 123.599,60.7095 124.5,61.5C 125.387,65.4187 126.721,69.0853 128.5,72.5C 129.15,74.4352 129.483,76.4352 129.5,78.5C 128.167,78.5 126.833,78.5 125.5,78.5C 125.072,75.2154 124.072,72.2154 122.5,69.5C 121.55,65.5865 119.217,62.9198 115.5,61.5C 114.778,61.9175 114.278,62.5842 114,63.5C 112.968,59.9728 110.802,57.6394 107.5,56.5C 107.719,55.325 107.386,54.325 106.5,53.5C 105.702,53.9569 105.369,54.6236 105.5,55.5C 104.222,55.2178 103.222,54.5511 102.5,53.5C 102.433,52.0413 102.766,50.7079 103.5,49.5C 107.629,49.4861 110.129,51.4861 111,55.5C 111.308,54.6919 111.808,54.0253 112.5,53.5C 113.243,54.9079 114.077,56.2412 115,57.5C 115.167,56.8333 115.333,56.1667 115.5,55.5C 113.189,46.5316 108.189,39.5316 100.5,34.5C 101.738,33.5876 103.072,33.4209 104.5,34C 111.49,41.4826 117.49,49.6493 122.5,58.5 Z"/></g>
<g><path style="opacity:0.991" fill="#6aa8ea" d="M 135.5,50.5 C 136.451,51.9187 136.784,53.5853 136.5,55.5C 133.6,60.8483 131.267,66.5149 129.5,72.5C 129.167,72.5 128.833,72.5 128.5,72.5C 126.721,69.0853 125.387,65.4187 124.5,61.5C 127.188,56.8119 130.855,53.1453 135.5,50.5 Z"/></g>
<g><path style="opacity:1" fill="#424242" d="M 102.5,53.5 C 103.222,54.5511 104.222,55.2178 105.5,55.5C 105.201,58.6421 103.534,60.8088 100.5,62C 102.441,62.7429 104.274,62.5762 106,61.5C 106.167,61.8333 106.333,62.1667 106.5,62.5C 102.665,63.9965 102.665,64.9965 106.5,65.5C 106.244,67.7925 106.577,69.9592 107.5,72C 105.055,72.9098 103.722,72.0764 103.5,69.5C 101.873,68.5908 101.04,66.5908 101,63.5C 100.333,64.1667 99.6667,64.8333 99,65.5C 96.7625,63.7964 94.2625,62.7964 91.5,62.5C 90.3665,59.4006 88.3665,56.9006 85.5,55C 86.056,54.6174 86.3893,54.1174 86.5,53.5C 89.826,53.5025 92.826,52.5025 95.5,50.5C 97.4274,52.2934 99.7607,53.2934 102.5,53.5 Z"/></g>
<g><path style="opacity:1" fill="#757575" d="M 78.5,57.5 C 79.3862,59.7216 79.3862,61.8882 78.5,64C 78.938,65.9203 79.6047,67.7536 80.5,69.5C 81.1924,68.9747 81.6924,68.3081 82,67.5C 82.4966,69.8098 82.6633,72.1432 82.5,74.5C 81.8333,74.5 81.1667,74.5 80.5,74.5C 76.3628,74.8537 72.3628,74.3537 68.5,73C 68.9574,72.586 69.2907,72.086 69.5,71.5C 68.8333,71.1667 68.1667,70.8333 67.5,70.5C 68.7053,69.0052 68.7053,67.6719 67.5,66.5C 68.044,64.2845 69.044,62.2845 70.5,60.5C 73.0685,60.4057 74.5685,59.0724 75,56.5C 75.3333,57.1667 75.6667,57.8333 76,58.5C 76.6708,57.7476 77.5041,57.4142 78.5,57.5 Z"/></g>
<g><path style="opacity:1" fill="#4f4f4f" d="M 81.5,57.5 C 81.1826,60.5719 81.5159,63.5719 82.5,66.5C 83.8333,64.8333 85.1667,63.1667 86.5,61.5C 88.2565,64.3116 89.9232,64.645 91.5,62.5C 94.2625,62.7964 96.7625,63.7964 99,65.5C 99.6667,64.8333 100.333,64.1667 101,63.5C 101.04,66.5908 101.873,68.5908 103.5,69.5C 100.791,70.4832 98.1238,70.6498 95.5,70C 95.67,71.5695 96.0033,73.4028 96.5,75.5C 91.8195,75.1382 87.1529,74.8049 82.5,74.5C 82.6633,72.1432 82.4966,69.8098 82,67.5C 81.6924,68.3081 81.1924,68.9747 80.5,69.5C 79.6047,67.7536 78.938,65.9203 78.5,64C 79.3862,61.8882 79.3862,59.7216 78.5,57.5C 79.5,56.1667 80.5,56.1667 81.5,57.5 Z"/></g>
<g><path style="opacity:1" fill="#868686" d="M 36.5,66.5 C 36.56,67.0431 36.8933,67.3764 37.5,67.5C 40.6983,66.0126 43.6983,65.0126 46.5,64.5C 47.038,66.1172 47.3713,67.7839 47.5,69.5C 43.6333,70.7295 39.7999,70.7295 36,69.5C 34.2458,71.25 32.0792,71.9167 29.5,71.5C 28.0669,69.4418 27.4003,67.1085 27.5,64.5C 25.323,64.5861 23.323,65.2528 21.5,66.5C 20.0589,65.696 18.5589,65.0294 17,64.5C 12.9361,64.5635 8.76941,64.8968 4.5,65.5C 4.5,68.1667 4.5,70.8333 4.5,73.5C 6.3588,73.4609 7.69213,74.2942 8.5,76C 6.68034,76.2004 5.347,77.0337 4.5,78.5C 3.20895,78.2627 2.20895,78.596 1.5,79.5C 0.166667,74.5 0.166667,69.5 1.5,64.5C 3.71053,63.8772 5.71053,62.8772 7.5,61.5C 8.20389,63.3442 9.53722,63.8442 11.5,63C 13.4437,60.2651 15.9437,58.0984 19,56.5C 22.7737,57.4454 24.9403,59.7787 25.5,63.5C 29.4459,63.4877 31.1126,65.4877 30.5,69.5C 33.089,69.539 35.089,68.539 36.5,66.5 Z"/></g>
<g><path style="opacity:1" fill="#b7b7b8" d="M 115.5,61.5 C 119.217,62.9198 121.55,65.5865 122.5,69.5C 122.175,74.5988 122.675,79.5988 124,84.5C 124.5,84 125,83.5 125.5,83C 129.486,82.5012 133.486,82.3345 137.5,82.5C 136.869,85.7016 135.869,88.7016 134.5,91.5C 130.5,90.5 126.5,89.5 122.5,88.5C 119.952,86.3905 117.619,84.0571 115.5,81.5C 115.5,79.1667 115.5,76.8333 115.5,74.5C 116.947,73.8658 117.613,72.6991 117.5,71C 116.131,67.9879 115.464,64.8212 115.5,61.5 Z"/></g>
<g><path style="opacity:1" fill="#707070" d="M 115.5,61.5 C 115.464,64.8212 116.131,67.9879 117.5,71C 117.613,72.6991 116.947,73.8658 115.5,74.5C 114.25,74.5774 113.417,75.244 113,76.5C 111.951,75.4829 110.784,75.3162 109.5,76C 110.167,76.3333 110.833,76.6667 111.5,77C 111.039,79.447 110.706,81.947 110.5,84.5C 106.8,82.3009 103.967,79.3009 102,75.5C 102.253,78.133 102.253,80.7996 102,83.5C 101.134,79.1935 100.134,78.8601 99,82.5C 98.1482,81.4293 97.3149,80.4293 96.5,79.5C 95.8478,78.2749 94.6811,77.6083 93,77.5C 88.5137,79.4883 85.0137,78.4883 82.5,74.5C 87.1529,74.8049 91.8195,75.1382 96.5,75.5C 96.0033,73.4028 95.67,71.5695 95.5,70C 98.1238,70.6498 100.791,70.4832 103.5,69.5C 103.722,72.0764 105.055,72.9098 107.5,72C 106.577,69.9592 106.244,67.7925 106.5,65.5C 102.665,64.9965 102.665,63.9965 106.5,62.5C 106.333,62.1667 106.167,61.8333 106,61.5C 104.274,62.5762 102.441,62.7429 100.5,62C 103.534,60.8088 105.201,58.6421 105.5,55.5C 105.369,54.6236 105.702,53.9569 106.5,53.5C 107.386,54.325 107.719,55.325 107.5,56.5C 110.802,57.6394 112.968,59.9728 114,63.5C 114.278,62.5842 114.778,61.9175 115.5,61.5 Z"/></g>
<g><path style="opacity:1" fill="#878787" d="M 58.5,83.5 C 57.8333,82.8333 57.1667,82.1667 56.5,81.5C 53.9824,79.6434 53.9824,77.8101 56.5,76C 55.3659,74.984 55.6992,74.3173 57.5,74C 54.5315,71.3446 51.1981,70.5112 47.5,71.5C 47.5,70.8333 47.5,70.1667 47.5,69.5C 50.5627,69.1365 53.5627,68.4698 56.5,67.5C 58.8758,68.2256 60.8758,69.5589 62.5,71.5C 62.2907,72.086 61.9574,72.586 61.5,73C 64.5,74.8333 67.5,76.6667 70.5,78.5C 71.3857,79.325 71.719,80.325 71.5,81.5C 68.1922,82.0262 66.0255,80.6928 65,77.5C 64.6667,78.1667 64.3333,78.8333 64,79.5C 62.8173,78.269 61.6507,78.269 60.5,79.5C 64.1572,81.9389 63.4905,83.2722 58.5,83.5 Z"/></g>
<g><path style="opacity:1" fill="#d3d2d3" d="M 56.5,62.5 C 59.6352,62.5482 61.3019,64.2148 61.5,67.5C 63.1161,68.1152 64.4495,69.1152 65.5,70.5C 65.3867,69.1405 66.0534,67.8072 67.5,66.5C 68.7053,67.6719 68.7053,69.0052 67.5,70.5C 68.1667,70.8333 68.8333,71.1667 69.5,71.5C 69.2907,72.086 68.9574,72.586 68.5,73C 72.3628,74.3537 76.3628,74.8537 80.5,74.5C 80.1961,75.1499 79.8627,75.8165 79.5,76.5C 81.3596,77.3249 83.0262,78.3249 84.5,79.5C 82.6096,79.2965 81.1096,79.9632 80,81.5C 80.1484,82.825 79.9817,83.9916 79.5,85C 76.2816,84.8589 72.9483,85.1922 69.5,86C 70.1667,86.3333 70.8333,86.6667 71.5,87C 70.2625,87.2321 69.2625,87.7321 68.5,88.5C 66.8305,90.5921 65.1638,92.5921 63.5,94.5C 62.4019,93.603 62.4019,92.7697 63.5,92C 62.2845,89.9045 61.4512,90.0712 61,92.5C 58.9829,89.8562 58.1495,86.8562 58.5,83.5C 63.4905,83.2722 64.1572,81.9389 60.5,79.5C 61.6507,78.269 62.8173,78.269 64,79.5C 64.3333,78.8333 64.6667,78.1667 65,77.5C 66.0255,80.6928 68.1922,82.0262 71.5,81.5C 71.719,80.325 71.3857,79.325 70.5,78.5C 67.5,76.6667 64.5,74.8333 61.5,73C 61.9574,72.586 62.2907,72.086 62.5,71.5C 60.8758,69.5589 58.8758,68.2256 56.5,67.5C 53.5627,68.4698 50.5627,69.1365 47.5,69.5C 47.3713,67.7839 47.038,66.1172 46.5,64.5C 49.6557,63.5661 52.9891,62.8994 56.5,62.5 Z"/></g>
<g><path style="opacity:1" fill="#2f2f2f" d="M 47.5,69.5 C 47.5,70.1667 47.5,70.8333 47.5,71.5C 43.2974,72.2702 39.2974,73.6035 35.5,75.5C 33.4559,76.0312 31.7893,77.1978 30.5,79C 25.8282,79.7092 21.3282,80.8759 17,82.5C 16.2613,81.4258 15.2613,80.7591 14,80.5C 11.6813,81.8713 9.18126,82.5379 6.5,82.5C 5.95526,78.8284 5.62192,79.1617 5.5,83.5C 4.5,83.5 3.5,83.5 2.5,83.5C 1.56552,82.4324 1.23219,81.099 1.5,79.5C 2.20895,78.596 3.20895,78.2627 4.5,78.5C 7.42994,77.701 10.4299,77.3677 13.5,77.5C 13.5,75.8333 13.5,74.1667 13.5,72.5C 18.787,71.6576 24.1203,71.3243 29.5,71.5C 32.0792,71.9167 34.2458,71.25 36,69.5C 39.7999,70.7295 43.6333,70.7295 47.5,69.5 Z"/></g>
<g><path style="opacity:1" fill="#565656" d="M 29.5,71.5 C 24.1203,71.3243 18.787,71.6576 13.5,72.5C 13.5,74.1667 13.5,75.8333 13.5,77.5C 10.4299,77.3677 7.42994,77.701 4.5,78.5C 5.347,77.0337 6.68034,76.2004 8.5,76C 7.69213,74.2942 6.3588,73.4609 4.5,73.5C 4.5,70.8333 4.5,68.1667 4.5,65.5C 8.76941,64.8968 12.9361,64.5635 17,64.5C 18.5589,65.0294 20.0589,65.696 21.5,66.5C 23.323,65.2528 25.323,64.5861 27.5,64.5C 27.4003,67.1085 28.0669,69.4418 29.5,71.5 Z"/></g>
<g><path style="opacity:1" fill="#3b3e41" d="M 35.5,75.5 C 36.2186,77.7638 36.552,80.0971 36.5,82.5C 31.6878,84.4041 26.6878,85.4041 21.5,85.5C 17.3735,85.428 13.3735,84.7613 9.5,83.5C 8.16667,83.5 6.83333,83.5 5.5,83.5C 5.62192,79.1617 5.95526,78.8284 6.5,82.5C 9.18126,82.5379 11.6813,81.8713 14,80.5C 15.2613,80.7591 16.2613,81.4258 17,82.5C 21.3282,80.8759 25.8282,79.7092 30.5,79C 31.7893,77.1978 33.4559,76.0312 35.5,75.5 Z"/></g>
<g><path style="opacity:1" fill="#898989" d="M 122.5,69.5 C 124.072,72.2154 125.072,75.2154 125.5,78.5C 126.833,78.5 128.167,78.5 129.5,78.5C 129.483,76.4352 129.15,74.4352 128.5,72.5C 128.833,72.5 129.167,72.5 129.5,72.5C 130.836,75.5027 133.169,77.1694 136.5,77.5C 137.301,79.0418 137.634,80.7085 137.5,82.5C 133.486,82.3345 129.486,82.5012 125.5,83C 125,83.5 124.5,84 124,84.5C 122.675,79.5988 122.175,74.5988 122.5,69.5 Z"/></g>
<g><path style="opacity:0.631" fill="#ebebeb" d="M 18.5,21.5 C 19.1667,21.5 19.5,21.8333 19.5,22.5C 18.6618,22.8417 18.3284,23.5084 18.5,24.5C 8.19128,35.7308 2.52462,49.0641 1.5,64.5C 0.166667,69.5 0.166667,74.5 1.5,79.5C 1.23219,81.099 1.56552,82.4324 2.5,83.5C 2.92809,86.7846 3.92809,89.7846 5.5,92.5C 5.5,93.1667 5.5,93.8333 5.5,94.5C 12.8296,113.163 25.8296,126.163 44.5,133.5C 44.5,134.167 44.8333,134.5 45.5,134.5C 45.5,135.167 45.1667,135.5 44.5,135.5C 20.0435,125.377 5.04355,107.377 -0.5,81.5C -0.5,73.8333 -0.5,66.1667 -0.5,58.5C 2.38999,44.3864 8.72333,32.0531 18.5,21.5 Z"/></g>
<g><path style="opacity:1" fill="#b3b3b3" d="M 56.5,81.5 C 55.8826,81.6107 55.3826,81.944 55,82.5C 52.2906,79.632 49.124,78.9653 45.5,80.5C 48.9953,80.2953 52.1619,81.6286 55,84.5C 55.7401,85.7494 55.5735,86.7494 54.5,87.5C 52.4595,86.4808 50.4595,86.4808 48.5,87.5C 48.6236,88.1067 48.9569,88.44 49.5,88.5C 50.8991,91.6988 51.8991,95.0321 52.5,98.5C 52.5654,98.9382 52.3988,99.2716 52,99.5C 51.1482,98.4293 50.3149,97.4293 49.5,96.5C 48.3386,91.1207 45.1719,87.7874 40,86.5C 39.6012,86.7284 39.4346,87.0618 39.5,87.5C 39.1667,87.5 38.8333,87.5 38.5,87.5C 38.2041,85.597 37.5375,83.9303 36.5,82.5C 36.552,80.0971 36.2186,77.7638 35.5,75.5C 39.2974,73.6035 43.2974,72.2702 47.5,71.5C 51.1981,70.5112 54.5315,71.3446 57.5,74C 55.6992,74.3173 55.3659,74.984 56.5,76C 53.9824,77.8101 53.9824,79.6434 56.5,81.5 Z"/></g>
<g><path style="opacity:1" fill="#929191" d="M 115.5,74.5 C 115.5,76.8333 115.5,79.1667 115.5,81.5C 114.463,82.9303 113.796,84.597 113.5,86.5C 112.504,86.4142 111.671,86.7476 111,87.5C 110.683,85.6992 110.016,85.3659 109,86.5C 105.535,86.0328 103.868,84.0328 104,80.5C 103.506,82.1341 103.34,83.8008 103.5,85.5C 101.523,84.8505 99.6895,84.8505 98,85.5C 96.8288,84.6604 95.6621,83.8271 94.5,83C 95.9733,82.2904 96.6399,81.1238 96.5,79.5C 97.3149,80.4293 98.1482,81.4293 99,82.5C 100.134,78.8601 101.134,79.1935 102,83.5C 102.253,80.7996 102.253,78.133 102,75.5C 103.967,79.3009 106.8,82.3009 110.5,84.5C 110.706,81.947 111.039,79.447 111.5,77C 110.833,76.6667 110.167,76.3333 109.5,76C 110.784,75.3162 111.951,75.4829 113,76.5C 113.417,75.244 114.25,74.5774 115.5,74.5 Z"/></g>
<g><path style="opacity:1" fill="#d6d6d7" d="M 56.5,81.5 C 57.1667,82.1667 57.8333,82.8333 58.5,83.5C 58.1495,86.8562 58.9829,89.8562 61,92.5C 61.4512,90.0712 62.2845,89.9045 63.5,92C 62.4019,92.7697 62.4019,93.603 63.5,94.5C 62.4036,96.1032 61.0703,97.6032 59.5,99C 61.445,98.8718 63.2784,99.0385 65,99.5C 65.5074,100.996 65.0074,102.163 63.5,103C 65.2262,104.53 67.2262,105.53 69.5,106C 68.6634,107.011 68.33,108.178 68.5,109.5C 72.9787,108.887 77.312,108.887 81.5,109.5C 79.0521,110.473 76.3854,110.806 73.5,110.5C 69.4238,110.879 65.7571,109.879 62.5,107.5C 59.2397,101.048 56.573,94.3818 54.5,87.5C 55.5735,86.7494 55.7401,85.7494 55,84.5C 52.1619,81.6286 48.9953,80.2953 45.5,80.5C 49.124,78.9653 52.2906,79.632 55,82.5C 55.3826,81.944 55.8826,81.6107 56.5,81.5 Z"/></g>
<g><path style="opacity:1" fill="#c2c2c3" d="M 84.5,79.5 C 84.3739,81.1998 83.7073,82.6998 82.5,84C 83.4872,86.3206 85.1539,87.9872 87.5,89C 85.8034,89.3845 84.1368,89.2178 82.5,88.5C 81.1619,86.8872 79.4952,86.3872 77.5,87C 79.9066,89.2848 82.4066,91.4514 85,93.5C 85.2189,94.938 85.7189,96.2713 86.5,97.5C 90.5567,99.3836 94.2234,101.884 97.5,105C 95.1902,105.497 92.8568,105.663 90.5,105.5C 88.2459,104.746 86.4126,103.413 85,101.5C 83.8691,100.665 83.0358,100.665 82.5,101.5C 81.5489,99.882 80.2156,98.5487 78.5,97.5C 81.028,96.1841 81.028,95.0174 78.5,94C 75.0437,92.877 72.2103,93.7104 70,96.5C 69.3076,95.9747 68.8076,95.3081 68.5,94.5C 69.9814,93.5197 71.3147,92.353 72.5,91C 70.6803,90.7996 69.347,89.9663 68.5,88.5C 69.2625,87.7321 70.2625,87.2321 71.5,87C 70.8333,86.6667 70.1667,86.3333 69.5,86C 72.9483,85.1922 76.2816,84.8589 79.5,85C 79.9817,83.9916 80.1484,82.825 80,81.5C 81.1096,79.9632 82.6096,79.2965 84.5,79.5 Z"/></g>
<g><path style="opacity:1" fill="#70afe9" d="M 115.5,81.5 C 117.619,84.0571 119.952,86.3905 122.5,88.5C 122.5,88.8333 122.5,89.1667 122.5,89.5C 117.886,92.1173 113.553,95.1173 109.5,98.5C 108.833,98.1667 108.167,97.8333 107.5,97.5C 109.472,93.8503 111.472,90.1836 113.5,86.5C 113.796,84.597 114.463,82.9303 115.5,81.5 Z"/></g>
<g><path style="opacity:0.987" fill="#5c93db" d="M 9.5,83.5 C 13.3735,84.7613 17.3735,85.428 21.5,85.5C 17.1667,88.8333 12.8333,92.1667 8.5,95.5C 7.60895,94.8902 6.60895,94.5569 5.5,94.5C 5.5,93.8333 5.5,93.1667 5.5,92.5C 6.56123,89.3777 7.89456,86.3777 9.5,83.5 Z"/></g>
<g><path style="opacity:1" fill="#bcbcbc" d="M 80.5,74.5 C 81.1667,74.5 81.8333,74.5 82.5,74.5C 85.0137,78.4883 88.5137,79.4883 93,77.5C 94.6811,77.6083 95.8478,78.2749 96.5,79.5C 96.6399,81.1238 95.9733,82.2904 94.5,83C 95.6621,83.8271 96.8288,84.6604 98,85.5C 99.6895,84.8505 101.523,84.8505 103.5,85.5C 103.34,83.8008 103.506,82.1341 104,80.5C 103.868,84.0328 105.535,86.0328 109,86.5C 110.016,85.3659 110.683,85.6992 111,87.5C 111.671,86.7476 112.504,86.4142 113.5,86.5C 111.472,90.1836 109.472,93.8503 107.5,97.5C 107.769,99.4286 107.269,101.095 106,102.5C 102.725,100.729 99.2254,99.7287 95.5,99.5C 92.0177,94.6729 87.6844,91.0062 82.5,88.5C 84.1368,89.2178 85.8034,89.3845 87.5,89C 85.1539,87.9872 83.4872,86.3206 82.5,84C 83.7073,82.6998 84.3739,81.1998 84.5,79.5C 83.0262,78.3249 81.3596,77.3249 79.5,76.5C 79.8627,75.8165 80.1961,75.1499 80.5,74.5 Z"/></g>
<g><path style="opacity:1" fill="#76bbeb" d="M 36.5,82.5 C 37.5375,83.9303 38.2041,85.597 38.5,87.5C 37.3121,86.3157 36.1455,86.3157 35,87.5C 34.6155,89.1966 34.7822,90.8632 35.5,92.5C 32.5699,91.2639 29.7366,91.5973 27,93.5C 24.898,92.9618 24.0646,91.9618 24.5,90.5C 22.0412,92.8061 19.0412,93.9728 15.5,94C 17.0653,95.5057 17.3986,97.0057 16.5,98.5C 13.8333,97.5 11.1667,96.5 8.5,95.5C 12.8333,92.1667 17.1667,88.8333 21.5,85.5C 26.6878,85.4041 31.6878,84.4041 36.5,82.5 Z"/></g>
<g><path style="opacity:1" fill="#434345" d="M 49.5,96.5 C 48.8826,96.3893 48.3826,96.056 48,95.5C 46.4432,101.36 48.6098,104.693 54.5,105.5C 54.2785,102.933 53.6118,100.599 52.5,98.5C 51.8991,95.0321 50.8991,91.6988 49.5,88.5C 50.1894,87.2264 51.0228,87.2264 52,88.5C 53.6312,94.4343 55.4645,100.268 57.5,106C 56.2283,107.307 55.2283,108.807 54.5,110.5C 53.8076,109.975 53.3076,109.308 53,108.5C 50.7093,114.208 50.2093,120.042 51.5,126C 51.6134,127.699 50.9468,128.866 49.5,129.5C 48.4111,125.989 48.4111,122.489 49.5,119C 49.2945,117.135 48.6278,115.468 47.5,114C 48.6041,111.674 48.2708,109.507 46.5,107.5C 47.3382,107.158 47.6716,106.492 47.5,105.5C 45.38,99.2598 42.7134,93.2598 39.5,87.5C 39.4346,87.0618 39.6012,86.7284 40,86.5C 45.1719,87.7874 48.3386,91.1207 49.5,96.5 Z"/></g>
<g><path style="opacity:1" fill="#dcdbdc" d="M 68.5,88.5 C 69.347,89.9663 70.6803,90.7996 72.5,91C 71.3147,92.353 69.9814,93.5197 68.5,94.5C 68.8076,95.3081 69.3076,95.9747 70,96.5C 72.2103,93.7104 75.0437,92.877 78.5,94C 81.028,95.0174 81.028,96.1841 78.5,97.5C 80.2156,98.5487 81.5489,99.882 82.5,101.5C 84.7206,103.693 86.054,106.36 86.5,109.5C 84.8333,109.5 83.1667,109.5 81.5,109.5C 77.312,108.887 72.9787,108.887 68.5,109.5C 68.33,108.178 68.6634,107.011 69.5,106C 67.2262,105.53 65.2262,104.53 63.5,103C 65.0074,102.163 65.5074,100.996 65,99.5C 63.2784,99.0385 61.445,98.8718 59.5,99C 61.0703,97.6032 62.4036,96.1032 63.5,94.5C 65.1638,92.5921 66.8305,90.5921 68.5,88.5 Z"/></g>
<g><path style="opacity:1" fill="#5f95de" d="M 122.5,89.5 C 120.5,94.5 118.5,99.5 116.5,104.5C 114.174,102.545 111.841,100.545 109.5,98.5C 113.553,95.1173 117.886,92.1173 122.5,89.5 Z"/></g>
<g><path style="opacity:1" fill="#7f8a94" d="M 38.5,87.5 C 38.8333,87.5 39.1667,87.5 39.5,87.5C 42.7134,93.2598 45.38,99.2598 47.5,105.5C 45.6159,105.288 44.2826,104.288 43.5,102.5C 43.0161,99.3736 41.6827,96.7069 39.5,94.5C 39.8333,93.8333 40.1667,93.1667 40.5,92.5C 39.0416,91.218 37.7082,91.218 36.5,92.5C 36.1667,92.5 35.8333,92.5 35.5,92.5C 34.7822,90.8632 34.6155,89.1966 35,87.5C 36.1455,86.3157 37.3121,86.3157 38.5,87.5 Z"/></g>
<g><path style="opacity:1" fill="#aaaaaa" d="M 107.5,97.5 C 108.167,97.8333 108.833,98.1667 109.5,98.5C 111.841,100.545 114.174,102.545 116.5,104.5C 118.115,107.45 120.115,110.116 122.5,112.5C 121.567,115.37 119.9,117.704 117.5,119.5C 117.693,116.525 116.693,114.025 114.5,112C 110.35,109.67 106.684,106.837 103.5,103.5C 101.865,102.319 100.198,102.319 98.5,103.5C 97.4756,102.148 96.4756,100.815 95.5,99.5C 99.2254,99.7287 102.725,100.729 106,102.5C 107.269,101.095 107.769,99.4286 107.5,97.5 Z"/></g>
<g><path style="opacity:1" fill="#79bfe9" d="M 35.5,92.5 C 35.8333,92.5 36.1667,92.5 36.5,92.5C 38.5236,97.2077 40.5236,101.874 42.5,106.5C 38.7577,105.119 35.4243,102.952 32.5,100C 31.2068,99.51 29.8734,99.3433 28.5,99.5C 28.615,101.947 29.615,103.947 31.5,105.5C 26.2799,103.387 21.2799,101.053 16.5,98.5C 17.3986,97.0057 17.0653,95.5057 15.5,94C 19.0412,93.9728 22.0412,92.8061 24.5,90.5C 24.0646,91.9618 24.898,92.9618 27,93.5C 29.7366,91.5973 32.5699,91.2639 35.5,92.5 Z"/></g>
<g><path style="opacity:1" fill="#757475" d="M 49.5,96.5 C 50.3149,97.4293 51.1482,98.4293 52,99.5C 52.3988,99.2716 52.5654,98.9382 52.5,98.5C 53.6118,100.599 54.2785,102.933 54.5,105.5C 48.6098,104.693 46.4432,101.36 48,95.5C 48.3826,96.056 48.8826,96.3893 49.5,96.5 Z"/></g>
<g><path style="opacity:1" fill="#868585" d="M 82.5,88.5 C 87.6844,91.0062 92.0177,94.6729 95.5,99.5C 96.4756,100.815 97.4756,102.148 98.5,103.5C 100.198,102.319 101.865,102.319 103.5,103.5C 106.684,106.837 110.35,109.67 114.5,112C 116.693,114.025 117.693,116.525 117.5,119.5C 117.5,120.167 117.167,120.5 116.5,120.5C 116.854,117.579 115.854,115.246 113.5,113.5C 108.302,112.328 103.468,110.328 99,107.5C 97.2341,108.233 95.4008,108.567 93.5,108.5C 92.1667,107.833 91.1667,106.833 90.5,105.5C 92.8568,105.663 95.1902,105.497 97.5,105C 94.2234,101.884 90.5567,99.3836 86.5,97.5C 85.7189,96.2713 85.2189,94.938 85,93.5C 82.4066,91.4514 79.9066,89.2848 77.5,87C 79.4952,86.3872 81.1619,86.8872 82.5,88.5 Z"/></g>
<g><path style="opacity:1" fill="#636363" d="M 116.5,120.5 C 115.167,121.5 113.833,122.5 112.5,123.5C 112.703,121.61 112.037,120.11 110.5,119C 108.026,118.887 106.026,117.887 104.5,116C 100.531,115.147 96.5314,114.481 92.5,114C 91.2567,112.846 90.2567,111.512 89.5,110C 91.0581,109.79 92.3915,109.29 93.5,108.5C 95.4008,108.567 97.2341,108.233 99,107.5C 103.468,110.328 108.302,112.328 113.5,113.5C 115.854,115.246 116.854,117.579 116.5,120.5 Z"/></g>
<g><path style="opacity:0.978" fill="#545658" d="M 47.5,105.5 C 47.6716,106.492 47.3382,107.158 46.5,107.5C 45.5,107.5 44.5,107.5 43.5,107.5C 43.8588,109.766 43.1922,111.599 41.5,113C 42.0665,118.512 43.3998,123.679 45.5,128.5C 44.6851,127.571 43.8518,126.571 43,125.5C 42.0428,121.044 40.7095,116.711 39,112.5C 36.0015,110.667 33.5015,108.334 31.5,105.5C 29.615,103.947 28.615,101.947 28.5,99.5C 29.8734,99.3433 31.2068,99.51 32.5,100C 35.4243,102.952 38.7577,105.119 42.5,106.5C 40.5236,101.874 38.5236,97.2077 36.5,92.5C 37.7082,91.218 39.0416,91.218 40.5,92.5C 40.1667,93.1667 39.8333,93.8333 39.5,94.5C 41.6827,96.7069 43.0161,99.3736 43.5,102.5C 44.2826,104.288 45.6159,105.288 47.5,105.5 Z"/></g>
<g><path style="opacity:1" fill="#757576" d="M 54.5,87.5 C 56.573,94.3818 59.2397,101.048 62.5,107.5C 65.7571,109.879 69.4238,110.879 73.5,110.5C 72.7368,112.368 71.7368,114.035 70.5,115.5C 70.6495,114.448 70.4828,113.448 70,112.5C 67.121,115.165 64.621,114.665 62.5,111C 61.2161,110.316 60.0495,110.483 59,111.5C 58.6667,110.5 58.3333,109.5 58,108.5C 56.6814,110.25 56.1814,112.25 56.5,114.5C 54.9081,115.602 54.0748,114.935 54,112.5C 53.6653,119.191 53.1653,125.857 52.5,132.5C 51.5,132.5 50.5,132.5 49.5,132.5C 49.5,131.5 49.5,130.5 49.5,129.5C 50.9468,128.866 51.6134,127.699 51.5,126C 50.2093,120.042 50.7093,114.208 53,108.5C 53.3076,109.308 53.8076,109.975 54.5,110.5C 55.2283,108.807 56.2283,107.307 57.5,106C 55.4645,100.268 53.6312,94.4343 52,88.5C 51.0228,87.2264 50.1894,87.2264 49.5,88.5C 48.9569,88.44 48.6236,88.1067 48.5,87.5C 50.4595,86.4808 52.4595,86.4808 54.5,87.5 Z"/></g>
<g><path style="opacity:1" fill="#9f9f9f" d="M 70.5,115.5 C 68.2114,118.627 65.7114,121.627 63,124.5C 62.2607,122.779 61.4274,121.113 60.5,119.5C 59.5078,123.783 59.1744,128.116 59.5,132.5C 57.4727,132.662 55.4727,132.495 53.5,132C 54.91,131.632 55.91,130.799 56.5,129.5C 57.8249,124.8 57.8249,119.8 56.5,114.5C 56.1814,112.25 56.6814,110.25 58,108.5C 58.3333,109.5 58.6667,110.5 59,111.5C 60.0495,110.483 61.2161,110.316 62.5,111C 64.621,114.665 67.121,115.165 70,112.5C 70.4828,113.448 70.6495,114.448 70.5,115.5 Z"/></g>
<g><path style="opacity:1" fill="#404041" d="M 90.5,105.5 C 91.1667,106.833 92.1667,107.833 93.5,108.5C 92.3915,109.29 91.0581,109.79 89.5,110C 90.2567,111.512 91.2567,112.846 92.5,114C 96.5314,114.481 100.531,115.147 104.5,116C 106.026,117.887 108.026,118.887 110.5,119C 112.037,120.11 112.703,121.61 112.5,123.5C 111.713,125.104 110.38,125.771 108.5,125.5C 108.586,124.504 108.252,123.671 107.5,123C 105.527,122.505 103.527,122.338 101.5,122.5C 98.5777,121.351 95.5777,120.351 92.5,119.5C 89.9574,116.402 87.9574,113.069 86.5,109.5C 86.054,106.36 84.7206,103.693 82.5,101.5C 83.0358,100.665 83.8691,100.665 85,101.5C 86.4126,103.413 88.2459,104.746 90.5,105.5 Z"/></g>
<g><path style="opacity:1" fill="#66a1e4" d="M 81.5,109.5 C 83.1667,109.5 84.8333,109.5 86.5,109.5C 87.9574,113.069 89.9574,116.402 92.5,119.5C 95.5777,120.351 98.5777,121.351 101.5,122.5C 100.359,123.339 99.0255,124.006 97.5,124.5C 95.0017,125.121 92.6684,124.455 90.5,122.5C 87.9722,123.498 87.9722,124.331 90.5,125C 88.4117,126.03 86.245,126.863 84,127.5C 82.168,124.8 81.0013,125.133 80.5,128.5C 76.5311,126.516 72.5311,124.516 68.5,122.5C 69.4552,120.254 70.1218,117.921 70.5,115.5C 71.7368,114.035 72.7368,112.368 73.5,110.5C 76.3854,110.806 79.0521,110.473 81.5,109.5 Z"/></g>
<g><path style="opacity:1" fill="#868686" d="M 56.5,114.5 C 57.8249,119.8 57.8249,124.8 56.5,129.5C 55.91,130.799 54.91,131.632 53.5,132C 55.4727,132.495 57.4727,132.662 59.5,132.5C 59.1744,128.116 59.5078,123.783 60.5,119.5C 61.4274,121.113 62.2607,122.779 63,124.5C 65.7114,121.627 68.2114,118.627 70.5,115.5C 70.1218,117.921 69.4552,120.254 68.5,122.5C 67.2235,124.95 65.7235,127.283 64,129.5C 63.51,130.793 63.3433,132.127 63.5,133.5C 59.6286,133.815 55.9619,133.482 52.5,132.5C 53.1653,125.857 53.6653,119.191 54,112.5C 54.0748,114.935 54.9081,115.602 56.5,114.5 Z"/></g>
<g><path style="opacity:0.975" fill="#649fe6" d="M 101.5,122.5 C 103.527,122.338 105.527,122.505 107.5,123C 108.252,123.671 108.586,124.504 108.5,125.5C 107.833,125.5 107.5,125.833 107.5,126.5C 103.683,130.409 99.0162,132.742 93.5,133.5C 89.0883,132.03 84.755,130.363 80.5,128.5C 81.0013,125.133 82.168,124.8 84,127.5C 86.245,126.863 88.4117,126.03 90.5,125C 87.9722,124.331 87.9722,123.498 90.5,122.5C 92.6684,124.455 95.0017,125.121 97.5,124.5C 99.0255,124.006 100.359,123.339 101.5,122.5 Z"/></g>
<g><path style="opacity:1" fill="#202020" d="M 46.5,107.5 C 48.2708,109.507 48.6041,111.674 47.5,114C 48.6278,115.468 49.2945,117.135 49.5,119C 48.4111,122.489 48.4111,125.989 49.5,129.5C 49.5,130.5 49.5,131.5 49.5,132.5C 50.5,132.5 51.5,132.5 52.5,132.5C 55.9619,133.482 59.6286,133.815 63.5,133.5C 64.4511,134.919 64.7845,136.585 64.5,138.5C 57.8447,138.585 51.5114,137.252 45.5,134.5C 44.8333,134.5 44.5,134.167 44.5,133.5C 45.038,131.883 45.3713,130.216 45.5,128.5C 43.3998,123.679 42.0665,118.512 41.5,113C 43.1922,111.599 43.8588,109.766 43.5,107.5C 44.5,107.5 45.5,107.5 46.5,107.5 Z"/></g>
<g><path style="opacity:0.564" fill="#e6e6e8" d="M 122.5,112.5 C 122.833,112.5 123.167,112.5 123.5,112.5C 123.5,113.167 123.5,113.833 123.5,114.5C 115.235,125.242 104.568,132.742 91.5,137C 86.7046,138.199 82.0379,139.366 77.5,140.5C 72.5,140.5 67.5,140.5 62.5,140.5C 56.3443,139.461 50.3443,137.794 44.5,135.5C 45.1667,135.5 45.5,135.167 45.5,134.5C 51.5114,137.252 57.8447,138.585 64.5,138.5C 74.6829,139.081 84.3496,137.415 93.5,133.5C 99.0162,132.742 103.683,130.409 107.5,126.5C 108.167,126.5 108.5,126.167 108.5,125.5C 110.38,125.771 111.713,125.104 112.5,123.5C 113.833,122.5 115.167,121.5 116.5,120.5C 117.167,120.5 117.5,120.167 117.5,119.5C 119.9,117.704 121.567,115.37 122.5,112.5 Z"/></g>
</svg>
