<?xml version="1.0" encoding="UTF-8"?>
<!DOCTYPE svg PUBLIC "-//W3C//DTD SVG 1.1//EN" "http://www.w3.org/Graphics/SVG/1.1/DTD/svg11.dtd">
<svg xmlns="http://www.w3.org/2000/svg" version="1.1" width="141px" height="141px" style="shape-rendering:geometricPrecision; text-rendering:geometricPrecision; image-rendering:optimizeQuality; fill-rule:evenodd; clip-rule:evenodd" xmlns:xlink="http://www.w3.org/1999/xlink">
<g><path style="opacity:0.542" fill="#e1e0e0" d="M 59.5,-0.5 C 66.1667,-0.5 72.8333,-0.5 79.5,-0.5C 117.071,7.73985 137.071,31.0732 139.5,69.5C 138.012,104.292 120.678,127.125 87.5,138C 83.0116,138.76 78.6783,139.594 74.5,140.5C 71.1667,140.5 67.8333,140.5 64.5,140.5C 29.8384,135.173 8.1717,115.506 -0.5,81.5C -0.5,73.8333 -0.5,66.1667 -0.5,58.5C -0.166667,58.5 0.166667,58.5 0.5,58.5C 7.19748,25.8025 26.8641,6.13584 59.5,-0.5 Z"/></g>
<g><path style="opacity:1" fill="#864d3f" d="M 50.5,93.5 C 50.56,92.9569 50.8933,92.6236 51.5,92.5C 51.8333,93.5 52.1667,94.5 52.5,95.5C 51.9049,98.1401 51.5715,100.807 51.5,103.5C 53.3797,103.771 54.713,103.104 55.5,101.5C 58.1667,99.8333 60.8333,98.1667 63.5,96.5C 63.2381,98.5638 62.0714,99.8971 60,100.5C 59.2506,101.635 59.4173,102.635 60.5,103.5C 63.555,100.108 66.8883,97.1076 70.5,94.5C 71.1667,94.5 71.8333,94.5 72.5,94.5C 68.0982,100.409 63.0982,105.909 57.5,111C 50.1193,113.956 42.7859,116.789 35.5,119.5C 28.6205,116.227 21.6205,113.227 14.5,110.5C 11.7589,108.025 9.75889,105.025 8.5,101.5C 9.84203,100.207 11.5087,99.3736 13.5,99C 20.1944,97.8418 26.8611,96.3418 33.5,94.5C 33.2914,95.9217 32.7914,97.255 32,98.5C 28.6617,100.564 25.4951,102.897 22.5,105.5C 26.8428,108.337 31.1762,111.17 35.5,114C 38.1667,114.667 40.8333,114.667 43.5,114C 44.4061,112.301 44.7394,110.467 44.5,108.5C 41.3695,109.092 39.0361,108.092 37.5,105.5C 39.5824,105.472 41.4157,106.139 43,107.5C 45.1513,104.349 47.6513,101.516 50.5,99C 51.6601,97.0025 51.6601,95.1692 50.5,93.5 Z"/></g>
<g><path style="opacity:1" fill="#703d2f" d="M 59.5,84.5 C 59.6567,85.8734 59.49,87.2068 59,88.5C 57.197,89.3134 55.697,90.4801 54.5,92C 54.6387,93.301 55.3054,94.1344 56.5,94.5C 56.0074,96.8056 55.6741,99.139 55.5,101.5C 54.713,103.104 53.3797,103.771 51.5,103.5C 51.5715,100.807 51.9049,98.1401 52.5,95.5C 52.1667,94.5 51.8333,93.5 51.5,92.5C 50.8933,92.6236 50.56,92.9569 50.5,93.5C 49.2101,94.0577 48.3768,95.0577 48,96.5C 46.7303,94.4215 45.2303,94.0882 43.5,95.5C 41.1602,96.086 38.9935,97.086 37,98.5C 37.0187,100.107 37.1854,101.774 37.5,103.5C 37.5,104.167 37.5,104.833 37.5,105.5C 39.0361,108.092 41.3695,109.092 44.5,108.5C 44.7394,110.467 44.4061,112.301 43.5,114C 40.8333,114.667 38.1667,114.667 35.5,114C 31.1762,111.17 26.8428,108.337 22.5,105.5C 25.4951,102.897 28.6617,100.564 32,98.5C 32.7914,97.255 33.2914,95.9217 33.5,94.5C 37.0953,92.3511 41.0953,90.8511 45.5,90C 49.7061,87.1175 54.3727,85.2842 59.5,84.5 Z"/></g>
<g><path style="opacity:1" fill="#d09d92" d="M 50.5,93.5 C 51.6601,95.1692 51.6601,97.0025 50.5,99C 47.6513,101.516 45.1513,104.349 43,107.5C 41.4157,106.139 39.5824,105.472 37.5,105.5C 37.5,104.833 37.5,104.167 37.5,103.5C 42.4891,104.609 46.1557,102.942 48.5,98.5C 45.4086,97.8114 43.2419,99.1447 42,102.5C 41.4274,99.4819 42.594,97.3152 45.5,96C 44.9056,95.5357 44.2389,95.369 43.5,95.5C 45.2303,94.0882 46.7303,94.4215 48,96.5C 48.3768,95.0577 49.2101,94.0577 50.5,93.5 Z"/></g>
<g><path style="opacity:1" fill="#ead1cc" d="M 43.5,95.5 C 44.2389,95.369 44.9056,95.5357 45.5,96C 42.594,97.3152 41.4274,99.4819 42,102.5C 43.2419,99.1447 45.4086,97.8114 48.5,98.5C 46.1557,102.942 42.4891,104.609 37.5,103.5C 37.1854,101.774 37.0187,100.107 37,98.5C 38.9935,97.086 41.1602,96.086 43.5,95.5 Z"/></g>
<g><path style="opacity:1" fill="#162935" d="M 131.5,99.5 C 116.71,126.735 93.7103,139.735 62.5,138.5C 59.7704,137.009 59.937,135.675 63,134.5C 63.2511,132.567 63.7511,130.734 64.5,129C 67.6484,127.924 70.6484,126.591 73.5,125C 74.0712,123.795 74.7379,122.628 75.5,121.5C 81.9905,117.825 88.3238,113.992 94.5,110C 103.236,107.269 111.569,103.602 119.5,99C 123.689,98.1881 127.689,98.3547 131.5,99.5 Z"/></g>
<g><path style="opacity:1" fill="#1c2f3d" d="M 105.5,96.5 C 114.467,97.3825 123.467,97.7159 132.5,97.5C 132.672,98.4916 132.338,99.1583 131.5,99.5C 127.689,98.3547 123.689,98.1881 119.5,99C 111.569,103.602 103.236,107.269 94.5,110C 88.3238,113.992 81.9905,117.825 75.5,121.5C 74.7379,122.628 74.0712,123.795 73.5,125C 70.6484,126.591 67.6484,127.924 64.5,129C 63.7511,130.734 63.2511,132.567 63,134.5C 59.937,135.675 59.7704,137.009 62.5,138.5C 42.2303,136.18 26.2303,126.847 14.5,110.5C 21.6205,113.227 28.6205,116.227 35.5,119.5C 37.6638,120.278 39.8304,120.612 42,120.5C 44.1917,119.601 46.3584,118.601 48.5,117.5C 50.7803,116.689 53.2803,116.689 56,117.5C 57.7635,116.056 59.7635,115.056 62,114.5C 62.3333,115.167 62.6667,115.833 63,116.5C 64.0302,114.224 65.5302,113.557 67.5,114.5C 79.2749,109.022 90.9416,103.355 102.5,97.5C 103.209,96.596 104.209,96.2627 105.5,96.5 Z"/></g>
<g><path style="opacity:1" fill="#203541" d="M 72.5,94.5 C 75.1667,94.5 77.8333,94.5 80.5,94.5C 81.0577,95.7899 82.0577,96.6232 83.5,97C 89.8246,97.4995 96.1579,97.6662 102.5,97.5C 90.9416,103.355 79.2749,109.022 67.5,114.5C 65.5302,113.557 64.0302,114.224 63,116.5C 62.6667,115.833 62.3333,115.167 62,114.5C 59.7635,115.056 57.7635,116.056 56,117.5C 53.2803,116.689 50.7803,116.689 48.5,117.5C 46.3584,118.601 44.1917,119.601 42,120.5C 39.8304,120.612 37.6638,120.278 35.5,119.5C 42.7859,116.789 50.1193,113.956 57.5,111C 63.0982,105.909 68.0982,100.409 72.5,94.5 Z"/></g>
<g><path style="opacity:1" fill="#32404c" d="M 56.5,94.5 C 59.1667,94.5 61.8333,94.5 64.5,94.5C 64.1667,95.1667 63.8333,95.8333 63.5,96.5C 60.8333,98.1667 58.1667,99.8333 55.5,101.5C 55.6741,99.139 56.0074,96.8056 56.5,94.5 Z"/></g>
<g><path style="opacity:1" fill="#d8b5b2" d="M 64.5,94.5 C 66.5,94.5 68.5,94.5 70.5,94.5C 66.8883,97.1076 63.555,100.108 60.5,103.5C 59.4173,102.635 59.2506,101.635 60,100.5C 62.0714,99.8971 63.2381,98.5638 63.5,96.5C 63.8333,95.8333 64.1667,95.1667 64.5,94.5 Z"/></g>
<g><path style="opacity:1" fill="#ad8835" d="M 59.5,84.5 C 60.6572,87.2727 61.3239,90.2727 61.5,93.5C 74.5,93.5 87.5,93.5 100.5,93.5C 94.021,94.4907 87.3543,94.824 80.5,94.5C 77.8333,94.5 75.1667,94.5 72.5,94.5C 71.8333,94.5 71.1667,94.5 70.5,94.5C 68.5,94.5 66.5,94.5 64.5,94.5C 61.8333,94.5 59.1667,94.5 56.5,94.5C 55.3054,94.1344 54.6387,93.301 54.5,92C 55.697,90.4801 57.197,89.3134 59,88.5C 59.49,87.2068 59.6567,85.8734 59.5,84.5 Z"/></g>
<g><path style="opacity:1" fill="#9d5d49" d="M 137.5,81.5 C 136.228,86.9818 134.561,92.3152 132.5,97.5C 123.467,97.7159 114.467,97.3825 105.5,96.5C 104.939,93.538 103.939,90.7047 102.5,88C 103.058,85.942 104.391,84.7753 106.5,84.5C 110.107,85.5601 112.274,87.8934 113,91.5C 117.212,89.2095 121.712,88.8762 126.5,90.5C 128.27,89.1436 129.936,87.6436 131.5,86C 123.859,83.2954 116.526,80.1288 109.5,76.5C 110.376,76.6309 111.043,76.2975 111.5,75.5C 107.808,69.6606 109.141,66.1606 115.5,65C 114.424,66.7261 114.257,68.5594 115,70.5C 116.308,72.6414 117.808,74.6414 119.5,76.5C 122.166,77.0389 124.333,78.3722 126,80.5C 126.5,80 127,79.5 127.5,79C 125.416,76.9555 123.416,74.7888 121.5,72.5C 120.41,71.3914 120.41,70.3914 121.5,69.5C 124.088,70.1936 126.421,71.3602 128.5,73C 131.999,75.3961 134.999,78.2294 137.5,81.5 Z"/></g>
<g><path style="opacity:1" fill="#26221c" d="M 91.5,83.5 C 85.4655,91.7172 77.7989,93.5505 68.5,89C 66.2345,87.2419 64.5678,85.0752 63.5,82.5C 62.7084,81.0331 62.7084,79.6998 63.5,78.5C 69.8749,91.1515 78.3749,92.8182 89,83.5C 91.8556,75.7642 92.6889,75.7642 91.5,83.5 Z"/></g>
<g><path style="opacity:1" fill="#c39b8d" d="M 58.5,83.5 C 58.8333,83.5 59.1667,83.5 59.5,83.5C 59.5,83.8333 59.5,84.1667 59.5,84.5C 54.3727,85.2842 49.7061,87.1175 45.5,90C 41.0953,90.8511 37.0953,92.3511 33.5,94.5C 26.8611,96.3418 20.1944,97.8418 13.5,99C 11.5087,99.3736 9.84203,100.207 8.5,101.5C 7.66175,101.158 7.32842,100.492 7.5,99.5C 24.1365,93.4389 41.1365,88.1056 58.5,83.5 Z"/></g>
<g><path style="opacity:1" fill="#f9d232" d="M 63.5,82.5 C 64.5678,85.0752 66.2345,87.2419 68.5,89C 77.7989,93.5505 85.4655,91.7172 91.5,83.5C 95.1785,83.9396 98.5118,83.273 101.5,81.5C 101.817,85.7016 101.483,89.7016 100.5,93.5C 87.5,93.5 74.5,93.5 61.5,93.5C 61.3239,90.2727 60.6572,87.2727 59.5,84.5C 59.5,84.1667 59.5,83.8333 59.5,83.5C 60.2107,81.1582 61.544,80.8249 63.5,82.5 Z"/></g>
<g><path style="opacity:1" fill="#dcc9c3" d="M 53.5,77.5 C 53.8333,77.5 54.1667,77.5 54.5,77.5C 54.5,78.8333 54.5,80.1667 54.5,81.5C 56.3797,81.2291 57.713,81.8958 58.5,83.5C 41.1365,88.1056 24.1365,93.4389 7.5,99.5C 6.87605,99.0831 6.54272,98.4164 6.5,97.5C 7.7866,95.8404 9.11994,94.1738 10.5,92.5C 15.3177,91.376 20.1511,91.376 25,92.5C 27.1454,92.604 28.9788,91.9373 30.5,90.5C 26.0854,88.4364 21.4187,87.4364 16.5,87.5C 23.3234,87.1335 30.3234,86.9669 37.5,87C 40.2556,86.483 42.5889,85.3163 44.5,83.5C 46.5648,83.4828 48.5648,83.1495 50.5,82.5C 52.2231,81.3947 53.2231,79.7281 53.5,77.5 Z"/></g>
<g><path style="opacity:1" fill="#733a2a" d="M 109.5,76.5 C 116.526,80.1288 123.859,83.2954 131.5,86C 129.936,87.6436 128.27,89.1436 126.5,90.5C 121.712,88.8762 117.212,89.2095 113,91.5C 112.274,87.8934 110.107,85.5601 106.5,84.5C 104.391,84.7753 103.058,85.942 102.5,88C 103.939,90.7047 104.939,93.538 105.5,96.5C 104.209,96.2627 103.209,96.596 102.5,97.5C 96.1579,97.6662 89.8246,97.4995 83.5,97C 82.0577,96.6232 81.0577,95.7899 80.5,94.5C 87.3543,94.824 94.021,94.4907 100.5,93.5C 101.483,89.7016 101.817,85.7016 101.5,81.5C 109.961,80.7662 110.295,79.4329 102.5,77.5C 102.5,76.5 102.5,75.5 102.5,74.5C 104.921,74.8782 107.254,75.5448 109.5,76.5 Z"/></g>
<g><path style="opacity:1" fill="#c8786c" d="M 50.5,82.5 C 48.5648,83.1495 46.5648,83.4828 44.5,83.5C 43.8505,81.5648 43.5172,79.5648 43.5,77.5C 44.601,76.2003 45.9343,75.7003 47.5,76C 48.7929,78.0519 49.7929,80.2186 50.5,82.5 Z"/></g>
<g><path style="opacity:1" fill="#2b4c5d" d="M 0.5,66.5 C 6.07067,67.4131 11.404,69.2465 16.5,72C 25.6254,73.7913 34.6254,75.6247 43.5,77.5C 43.5172,79.5648 43.8505,81.5648 44.5,83.5C 42.5889,85.3163 40.2556,86.483 37.5,87C 30.3234,86.9669 23.3234,87.1335 16.5,87.5C 11.8487,87.6791 7.34872,87.6791 3,87.5C 1.4002,80.6026 0.566862,73.6026 0.5,66.5 Z"/></g>
<g><path style="opacity:1" fill="#f9dc55" d="M 54.5,75.5 C 70.1667,76.1667 85.8333,76.8333 101.5,77.5C 101.5,78.8333 101.5,80.1667 101.5,81.5C 98.5118,83.273 95.1785,83.9396 91.5,83.5C 92.6889,75.7642 91.8556,75.7642 89,83.5C 78.3749,92.8182 69.8749,91.1515 63.5,78.5C 62.7084,79.6998 62.7084,81.0331 63.5,82.5C 61.544,80.8249 60.2107,81.1582 59.5,83.5C 59.1667,83.5 58.8333,83.5 58.5,83.5C 57.713,81.8958 56.3797,81.2291 54.5,81.5C 54.5,80.1667 54.5,78.8333 54.5,77.5C 54.5,76.8333 54.5,76.1667 54.5,75.5 Z"/></g>
<g><path style="opacity:1" fill="#ab7060" d="M 91.5,53.5 C 99.5758,53.6833 107.242,55.5166 114.5,59C 117.061,61.2427 119.061,63.4093 120.5,65.5C 124.944,66.6104 128.611,68.9437 131.5,72.5C 136.339,72.9987 138.339,75.6654 137.5,80.5C 137.5,80.8333 137.5,81.1667 137.5,81.5C 134.999,78.2294 131.999,75.3961 128.5,73C 126.421,71.3602 124.088,70.1936 121.5,69.5C 120.41,70.3914 120.41,71.3914 121.5,72.5C 123.416,74.7888 125.416,76.9555 127.5,79C 127,79.5 126.5,80 126,80.5C 124.333,78.3722 122.166,77.0389 119.5,76.5C 117.808,74.6414 116.308,72.6414 115,70.5C 114.257,68.5594 114.424,66.7261 115.5,65C 109.141,66.1606 107.808,69.6606 111.5,75.5C 111.043,76.2975 110.376,76.6309 109.5,76.5C 107.254,75.5448 104.921,74.8782 102.5,74.5C 102.5,75.5 102.5,76.5 102.5,77.5C 110.295,79.4329 109.961,80.7662 101.5,81.5C 101.5,80.1667 101.5,78.8333 101.5,77.5C 101.5,74.1667 101.5,70.8333 101.5,67.5C 105.219,67.9975 108.553,67.1642 111.5,65C 109.937,63.0527 107.937,61.886 105.5,61.5C 105.389,60.8826 105.056,60.3826 104.5,60C 99.0613,59.8124 94.728,57.6457 91.5,53.5 Z"/></g>
<g><path style="opacity:1" fill="#fce67b" d="M 55.5,64.5 C 70.8333,64.5 86.1667,64.5 101.5,64.5C 101.5,65.5 101.5,66.5 101.5,67.5C 101.5,70.8333 101.5,74.1667 101.5,77.5C 85.8333,76.8333 70.1667,76.1667 54.5,75.5C 54.185,71.6286 54.5184,67.9619 55.5,64.5 Z"/></g>
<g><path style="opacity:1" fill="#5a5752" d="M 84.5,67.5 C 88.31,68.7542 88.31,69.7542 84.5,70.5C 84.5,69.5 84.5,68.5 84.5,67.5 Z"/></g>
<g><path style="opacity:1" fill="#625d53" d="M 68.5,67.5 C 71.8606,68.2032 72.1939,69.5365 69.5,71.5C 68.5713,70.3112 68.238,68.9778 68.5,67.5 Z"/></g>
<g><path style="opacity:1" fill="#d7bbb0" d="M 108.5,51.5 C 118.592,56.3815 128.259,62.0482 137.5,68.5C 138.644,72.6478 138.644,76.6478 137.5,80.5C 138.339,75.6654 136.339,72.9987 131.5,72.5C 128.611,68.9437 124.944,66.6104 120.5,65.5C 119.061,63.4093 117.061,61.2427 114.5,59C 107.242,55.5166 99.5758,53.6833 91.5,53.5C 91.5,52.5 91.5,51.5 91.5,50.5C 97.1585,50.742 102.825,51.0753 108.5,51.5 Z"/></g>
<g><path style="opacity:1" fill="#dabbab" d="M 105.5,61.5 C 107.937,61.886 109.937,63.0527 111.5,65C 108.553,67.1642 105.219,67.9975 101.5,67.5C 101.5,66.5 101.5,65.5 101.5,64.5C 86.1667,64.5 70.8333,64.5 55.5,64.5C 67.1864,62.3691 79.1864,60.7024 91.5,59.5C 96.1994,60.0955 100.866,60.7622 105.5,61.5 Z"/></g>
<g><path style="opacity:1" fill="#597d8b" d="M 91.5,53.5 C 94.728,57.6457 99.0613,59.8124 104.5,60C 105.056,60.3826 105.389,60.8826 105.5,61.5C 100.866,60.7622 96.1994,60.0955 91.5,59.5C 79.1864,60.7024 67.1864,62.3691 55.5,64.5C 54.5184,67.9619 54.185,71.6286 54.5,75.5C 54.5,76.1667 54.5,76.8333 54.5,77.5C 54.1667,77.5 53.8333,77.5 53.5,77.5C 53.5,73.5 53.5,69.5 53.5,65.5C 43.7998,63.5234 33.7998,61.0234 23.5,58C 17.8653,53.0803 11.532,49.5803 4.5,47.5C 5.28239,43.9368 6.61572,40.6035 8.5,37.5C 11.7702,36.4944 15.1035,36.6611 18.5,38C 23.5348,42.3934 28.8682,46.2267 34.5,49.5C 52.918,58.6156 71.918,59.9489 91.5,53.5 Z"/></g>
<g><path style="opacity:1" fill="#3b6374" d="M 4.5,47.5 C 11.532,49.5803 17.8653,53.0803 23.5,58C 33.7998,61.0234 43.7998,63.5234 53.5,65.5C 53.5,69.5 53.5,73.5 53.5,77.5C 53.2231,79.7281 52.2231,81.3947 50.5,82.5C 49.7929,80.2186 48.7929,78.0519 47.5,76C 45.9343,75.7003 44.601,76.2003 43.5,77.5C 34.6254,75.6247 25.6254,73.7913 16.5,72C 11.404,69.2465 6.07067,67.4131 0.5,66.5C 0.5,63.8333 0.5,61.1667 0.5,58.5C 1.67978,54.7831 3.01312,51.1165 4.5,47.5 Z"/></g>
<g><path style="opacity:1" fill="#698b97" d="M 16.5,25.5 C 21.5775,29.9203 26.9108,33.9203 32.5,37.5C 33.6523,39.0856 33.6523,40.5856 32.5,42C 36.8409,45.1724 41.5076,47.8391 46.5,50C 76.0867,55.072 102.42,48.2387 125.5,29.5C 126.833,31.5 128.167,33.5 129.5,35.5C 122.383,40.6032 115.05,45.4366 107.5,50C 108.056,50.3826 108.389,50.8826 108.5,51.5C 102.825,51.0753 97.1585,50.742 91.5,50.5C 91.5,51.5 91.5,52.5 91.5,53.5C 71.918,59.9489 52.918,58.6156 34.5,49.5C 28.8682,46.2267 23.5348,42.3934 18.5,38C 15.1035,36.6611 11.7702,36.4944 8.5,37.5C 10.7744,33.228 13.4411,29.228 16.5,25.5 Z"/></g>
<g><path style="opacity:1" fill="#3f6672" d="M 129.5,35.5 C 135.829,45.8106 138.496,56.8106 137.5,68.5C 128.259,62.0482 118.592,56.3815 108.5,51.5C 108.389,50.8826 108.056,50.3826 107.5,50C 115.05,45.4366 122.383,40.6032 129.5,35.5 Z"/></g>
<g><path style="opacity:1" fill="#7895a1" d="M 121.5,24.5 C 122.833,26.1667 124.167,27.8333 125.5,29.5C 102.42,48.2387 76.0867,55.072 46.5,50C 41.5076,47.8391 36.8409,45.1724 32.5,42C 33.6523,40.5856 33.6523,39.0856 32.5,37.5C 59.6448,53.2341 85.9781,51.7341 111.5,33C 114.179,29.382 117.512,26.5487 121.5,24.5 Z"/></g>
<g><path style="opacity:1" fill="#86a1ac" d="M 20.5,21.5 C 21.5,21.5 22.5,21.5 23.5,21.5C 23.281,22.675 23.6143,23.675 24.5,24.5C 35.1016,33.1957 47.1016,39.6957 60.5,44C 67.1667,44.6667 73.8333,44.6667 80.5,44C 85.6187,41.7388 90.952,40.0721 96.5,39C 103.733,32.9224 111.066,27.0891 118.5,21.5C 119.833,22.1667 120.833,23.1667 121.5,24.5C 117.512,26.5487 114.179,29.382 111.5,33C 85.9781,51.7341 59.6448,53.2341 32.5,37.5C 26.9108,33.9203 21.5775,29.9203 16.5,25.5C 17.5,23.8333 18.8333,22.5 20.5,21.5 Z"/></g>
<g><path style="opacity:1" fill="#94abb4" d="M 26.5,16.5 C 30.9085,19.0716 34.5752,22.5716 37.5,27C 47.6749,32.3327 58.5082,35.4993 70,36.5C 75.659,36.6774 81.159,35.8441 86.5,34C 91.463,31.3762 96.6297,29.2095 102,27.5C 102.308,28.3081 102.808,28.9747 103.5,29.5C 108.172,26.4917 112.172,22.825 115.5,18.5C 116.833,19.1667 117.833,20.1667 118.5,21.5C 111.066,27.0891 103.733,32.9224 96.5,39C 90.952,40.0721 85.6187,41.7388 80.5,44C 73.8333,44.6667 67.1667,44.6667 60.5,44C 47.1016,39.6957 35.1016,33.1957 24.5,24.5C 23.6143,23.675 23.281,22.675 23.5,21.5C 22.5,21.5 21.5,21.5 20.5,21.5C 21.9108,19.086 23.9108,17.4194 26.5,16.5 Z"/></g>
<g><path style="opacity:1" fill="#a9bec6" d="M 36.5,9.5 C 39.9059,13.0483 43.9059,15.8816 48.5,18C 56.0558,21.1105 63.8891,22.9438 72,23.5C 80.475,22.9701 88.1416,20.3034 95,15.5C 95.3333,15.8333 95.6667,16.1667 96,16.5C 98.6557,14.4407 100.822,12.1074 102.5,9.5C 107.394,11.7729 111.727,14.7729 115.5,18.5C 112.172,22.825 108.172,26.4917 103.5,29.5C 102.808,28.9747 102.308,28.3081 102,27.5C 96.6297,29.2095 91.463,31.3762 86.5,34C 81.159,35.8441 75.659,36.6774 70,36.5C 58.5082,35.4993 47.6749,32.3327 37.5,27C 34.5752,22.5716 30.9085,19.0716 26.5,16.5C 29.2565,13.4208 32.5899,11.0875 36.5,9.5 Z"/></g>
<g><path style="opacity:1" fill="#b5cbd1" d="M 42.5,6.5 C 45.1286,7.95983 47.6286,9.62649 50,11.5C 53.6061,9.8841 57.1061,10.3841 60.5,13C 62.5675,13.6869 64.5675,13.5202 66.5,12.5C 67.6878,13.84 69.1878,14.5066 71,14.5C 75.1269,13.8762 79.1269,12.8762 83,11.5C 83.414,11.9574 83.914,12.2907 84.5,12.5C 88.2886,10.0367 92.2886,8.03666 96.5,6.5C 98.8185,6.99249 100.819,7.99249 102.5,9.5C 100.822,12.1074 98.6557,14.4407 96,16.5C 95.6667,16.1667 95.3333,15.8333 95,15.5C 88.1416,20.3034 80.475,22.9701 72,23.5C 63.8891,22.9438 56.0558,21.1105 48.5,18C 43.9059,15.8816 39.9059,13.0483 36.5,9.5C 38.1815,7.99249 40.1815,6.99249 42.5,6.5 Z"/></g>
<g><path style="opacity:1" fill="#b9d1d7" d="M 96.5,6.5 C 92.2886,8.03666 88.2886,10.0367 84.5,12.5C 83.914,12.2907 83.414,11.9574 83,11.5C 79.1269,12.8762 75.1269,13.8762 71,14.5C 69.1878,14.5066 67.6878,13.84 66.5,12.5C 64.5675,13.5202 62.5675,13.6869 60.5,13C 57.1061,10.3841 53.6061,9.8841 50,11.5C 47.6286,9.62649 45.1286,7.95983 42.5,6.5C 60.4966,-1.41707 78.4966,-1.41707 96.5,6.5 Z"/></g>
</svg>
