<svg width="19" height="16" viewBox="0 0 19 16" fill="none" xmlns="http://www.w3.org/2000/svg">
<path d="M18.1365 7.90929C18.0736 8.23846 18.0561 8.57471 17.9786 8.90152C17.4446 11.1603 16.0873 12.7659 14.0489 13.8158C12.667 14.5281 11.1768 14.8232 9.63405 14.8832C8.47251 14.9282 7.32516 14.8251 6.19626 14.5394C6.10167 14.5153 6.03404 14.529 5.95932 14.5999C4.99689 15.5193 3.85049 15.9753 2.5168 15.9573C2.15217 15.9525 1.78706 15.9563 1.42148 15.9563C1.41296 15.8769 1.47066 15.8542 1.50471 15.8197C1.77382 15.5463 2.04859 15.2791 2.31533 15.0034C2.73672 14.5683 2.9921 14.0457 3.11791 13.455C3.15101 13.2998 3.11885 13.2067 2.97697 13.1088C1.8859 12.3573 1.0209 11.4071 0.503031 10.1742C-0.220564 8.45081 -0.143948 6.72978 0.607078 5.04139C1.49857 3.03756 3.02663 1.67266 5.01628 0.807653C6.62427 0.108651 8.31597 -0.0876185 10.0531 0.0334536C11.5092 0.135135 12.9101 0.455315 14.2036 1.15101C16.0428 2.14039 17.3198 3.60177 17.8953 5.63541C18.0046 6.0218 18.0746 6.41623 18.1044 6.81728C18.1077 6.86363 18.1015 6.91281 18.1356 6.95207C18.1365 7.27177 18.1365 7.59053 18.1365 7.90929ZM3.83583 14.6638C3.85995 14.669 3.87177 14.6751 3.88123 14.6723C3.9096 14.6647 3.93703 14.6548 3.96446 14.6444C4.60246 14.4004 5.12837 14.0007 5.55164 13.4696C5.65947 13.3344 5.75264 13.3055 5.92148 13.3571C7.78959 13.9227 9.68181 13.9795 11.5844 13.5685C13.131 13.2346 14.4878 12.545 15.5647 11.3546C17.2885 9.44918 17.5638 6.58932 16.2178 4.4086C15.3169 2.94959 13.9889 2.04722 12.3795 1.54071C10.7123 1.01622 9.0074 0.922577 7.29111 1.22715C5.41355 1.56057 3.8065 2.40713 2.56741 3.88364C1.69862 4.9189 1.16609 6.10503 1.08238 7.46378C0.992522 8.9228 1.48154 10.1846 2.45721 11.2638C2.9363 11.7935 3.50004 12.2178 4.11297 12.5791C4.18485 12.6216 4.24965 12.6557 4.24255 12.764C4.22316 13.0638 4.21654 13.3642 4.15837 13.6612C4.09169 14.0083 3.97534 14.3384 3.83583 14.6638Z" fill="#949494"/>
</svg>
