<svg width="20" height="20" viewBox="0 0 20 20" fill="none" xmlns="http://www.w3.org/2000/svg">
<path d="M10 0C8.02219 0 6.08879 0.58649 4.4443 1.6853C2.79981 2.78412 1.51809 4.3459 0.761209 6.17317C0.00433286 8.00043 -0.193701 10.0111 0.192152 11.9509C0.578004 13.8907 1.53041 15.6725 2.92894 17.0711C4.32746 18.4696 6.10929 19.422 8.0491 19.8079C9.98891 20.1937 11.9996 19.9957 13.8268 19.2388C15.6541 18.4819 17.2159 17.2002 18.3147 15.5557C19.4135 13.9112 20 11.9778 20 10C19.9971 7.34872 18.9426 4.80684 17.0679 2.9321C15.1932 1.05736 12.6513 0.00286757 10 0ZM17.2142 5.83333H14.5258C13.9234 4.43625 13.1294 3.12983 12.1667 1.95167C14.295 2.52981 16.109 3.92482 17.2142 5.83333ZM13.75 10C13.744 10.8483 13.6111 11.691 13.3558 12.5H6.64417C6.38887 11.691 6.25601 10.8483 6.25 10C6.25601 9.15168 6.38887 8.30902 6.64417 7.5H13.3558C13.6111 8.30902 13.744 9.15168 13.75 10ZM7.31167 14.1667H12.6883C11.9805 15.5636 11.0751 16.8513 10 17.99C8.9249 16.8513 8.01948 15.5636 7.31167 14.1667ZM7.31167 5.83333C8.01948 4.43638 8.9249 3.1487 10 2.01C11.0751 3.1487 11.9805 4.43638 12.6883 5.83333H7.31167ZM7.83334 1.95167C6.87088 3.12999 6.07689 4.43638 5.47417 5.83333H2.78584C3.89104 3.92482 5.70504 2.52981 7.83334 1.95167ZM2.05 7.5H4.91C4.47446 9.13821 4.47446 10.8618 4.91 12.5H2.05C1.53891 10.8725 1.53891 9.12749 2.05 7.5ZM2.78584 14.1667H5.47417C6.07665 15.5637 6.87066 16.8702 7.83334 18.0483C5.70504 17.4702 3.89104 16.0752 2.78584 14.1667ZM12.1667 18.0483C13.1291 16.87 13.9231 15.5636 14.5258 14.1667H17.2142C16.109 16.0752 14.295 17.4702 12.1667 18.0483ZM17.95 12.5H15.09C15.5255 10.8618 15.5255 9.13821 15.09 7.5H17.95C18.4611 9.12749 18.4611 10.8725 17.95 12.5Z" fill="#949494"/>
</svg>
