<svg width="34" height="32" viewBox="0 0 34 32" fill="none" xmlns="http://www.w3.org/2000/svg">
<path d="M16.7205 15.9929C16.9991 14.0868 16.6914 10.0974 16.8752 7.40986M16.7205 15.9929H16.7991M16.7205 15.9929V26.4657M16.7205 15.9929H25.7721M16.7991 15.9929H7.48113M16.7991 15.9929H25.7721M16.8752 7.40986C16.9191 6.76777 16.8752 6.19147 16.8752 5.72306C16.8752 3.29406 19.0999 1.71131 20.2503 1.14902C22.551 1.03657 27.5666 0.879131 29.2232 1.14902C30.8797 1.41891 31.754 3.73546 31.9841 4.85999C31.9841 5.75962 31.9841 8.36855 31.9841 11.6072C32.2602 14.576 28.8781 15.768 27.1525 15.9929H25.7721M16.8752 7.40986L10.9322 1.14902H2.30444C1.49917 3.62302 0.233764 8.90839 1.61421 10.2578C2.99466 11.6073 5.8706 14.6435 7.13602 15.9929H7.48113M16.7296 26.4512C16.7266 26.456 16.7236 26.4608 16.7205 26.4657M7.48113 15.9929L6.44579 15.3183L5.75557 14.9809C5.64053 15.0933 5.20339 15.4532 4.37512 15.9929C0.233777 18.6917 1.61421 27.1259 2.64956 28.4753C9.54042 33.8642 14.8945 29.3898 16.7205 26.4657M16.7205 26.4657L23.0112 30.8369L31.2939 30.4995L31.9841 22.0655L25.7721 15.9929" stroke="#C9AF83" stroke-width="2"/>
</svg>
