<svg width="15" height="17" viewBox="0 0 15 17" fill="none" xmlns="http://www.w3.org/2000/svg">
<g clip-path="url(#clip0_1_17)">
<path d="M7.26245 1.95752C7.44995 1.79085 7.62703 1.79085 7.7937 1.95752L14.325 8.52002C14.5125 8.68669 14.5125 8.85335 14.325 9.02002L7.7937 15.5825C7.62703 15.7492 7.44995 15.7492 7.26245 15.5825L6.63745 14.9575C6.57495 14.895 6.5437 14.8117 6.5437 14.7075C6.5437 14.6034 6.57495 14.5096 6.63745 14.4263L11.4812 9.58252H0.824951C0.574951 9.58252 0.449951 9.45752 0.449951 9.20752V8.33252C0.449951 8.08252 0.574951 7.95752 0.824951 7.95752H11.4812L6.63745 3.11377C6.47078 2.92627 6.47078 2.74919 6.63745 2.58252L7.26245 1.95752Z" fill="#5C6BF4"/>
</g>
<defs>
<clipPath id="clip0_1_17">
<rect width="14" height="16" fill="white" transform="matrix(1 0 0 -1 0.449951 16.77)"/>
</clipPath>
</defs>
</svg>
